<?xml version="1.0" encoding="utf-8"?>
<!-- Generator: Adobe Illustrator 15.0.0, SVG Export Plug-In . SVG Version: 6.00 Build 0)  -->
<!DOCTYPE svg PUBLIC "-//W3C//DTD SVG 1.1//EN" "http://www.w3.org/Graphics/SVG/1.1/DTD/svg11.dtd">
<svg version="1.1" id="Layer_2" xmlns="http://www.w3.org/2000/svg" xmlns:xlink="http://www.w3.org/1999/xlink" x="0px" y="0px"
	 width="595.28px" height="841.89px" viewBox="0 0 595.28 841.89" enable-background="new 0 0 595.28 841.89" xml:space="preserve">
<path fill="#FBB040" stroke="#231F20" stroke-width="4" stroke-miterlimit="10" d="M309.449,369.29
	c-1.379,5.518-51.806-24.539-52.486-15.336c-5.562,75.152,69.867,25.22,47.033,74.98c-8.795,19.166-52.437-4.359-66.46-13.975
	c-23.858-16.359-3.733-59.303-12.611-59.303c-23.175,0-36.707,28.873-40.505,21.773c-10.522-19.67-20.161-17.684-16.687-22.776
	c7.604-11.151,19.399,17.959,19.702,12.591c4.771-84.864-72.595-83.841-64.415-100.542c7.071-14.437,6.773,5.683,13.633,5.795
	c42.261,0.681,70.161,1.788,58.28-6.817c-7.233-5.238-10.802-7.389-10.906-10.82c-0.133-4.355,11.177-9.779,8.435-14.826
	c-12.014-22.111,13.931-18.532,14.57-7.668c0.33,5.625,14.548,6.107,18.276,3.323c19.682-14.698,25.817,17.766,8.946,15.721
	c-2.298-0.28-0.779,5.651-1.534,8.307c-1.096,3.858,49.461-4.261,65.14-5.624c4.875-0.423,8.127-17.466,16.018-7.499
	c11.758,14.852-42.261-3.123-16.359,106.336c3.877,16.387,11.395-14.816,21.131-13.077
	C338.418,343.387,315.584,344.751,309.449,369.29z"/>
<path fill="#FFFFFF" stroke="#231F20" stroke-width="4" stroke-miterlimit="10" d="M270.672,321.912
	c-8.32,10.092-20.238,17.281-35.322,11.967c-1.353-0.477-1.168,1.237-3.435-1.04c-1.899-1.907,0.443-3.172-1.042-5.414
	c-5.28-7.968,3.184-26.706,7.737-31.773C251.054,296.165,268.211,315.875,270.672,321.912z"/>
<path fill="#231F20" stroke="#231F20" stroke-width="4" stroke-miterlimit="10" d="M278.55,321.596
	c-2.089,4.366-6.969,3.061-7.727,0.728c-0.042-0.129-0.092-0.267-0.151-0.412c-2.461-6.037-19.619-25.747-32.062-26.26
	c-0.469-0.021-0.932-0.013-1.387,0.025c-1.483,0.12-0.845-4.51-0.417-5.934c2.186-7.288,18.837-8.83,27.68-3.865
	c12.813,7.195,4.903-5.089,10.732-2.278c6.53,3.149-2.815,8.286-0.938,10.265C280.84,300.776,283.234,311.811,278.55,321.596z"/>
<g>
	<path d="M206.954,303.464l18.021-0.035l-0.789,23.674c-0.502,7.628-4.168,11.729-10.997,12.299
		c-4.385,0.343-7.571,0.079-9.559-0.788c-5.55-1.508-9.056-5.596-10.518-12.265c-2.559-15.211-3.175-28.881-1.851-41.009
		c0.548-3.905,2.524-6.223,5.928-6.954c7.971-1.987,14.103-2.467,18.397-1.439c6.304,1.85,9.57,5.745,9.798,11.682
		c0.114,2.718,0.125,5.699,0.034,8.941l-10.518,0.959c-0.114-1.552-0.274-3.06-0.479-4.522c-0.457-2.923-1.645-4.488-3.563-4.693
		c-2.946-0.617-5.15-0.56-6.611,0.171c-1.462,0.64-2.364,2.524-2.707,5.653c-0.617,6.898-0.137,16.148,1.438,27.75
		c0.845,3.266,3.323,4.522,7.435,3.768c2.512-0.387,3.791-2.112,3.837-5.173l0.274-7.023l-7.948,0.479L206.954,303.464z"/>
</g>
<g>
	<path d="M311.672,272.439l14.801,33.917l-0.787-30.457l13.566-0.754l-2.022,60.982h-9.523l-14.594-33.677l-0.515,29.977
		l-9.832,0.651l-2.296-58.481L311.672,272.439z"/>
	<path d="M376.286,324.035c-0.251,5.778-3.735,9.535-10.449,11.271c-4.021,0.845-9.684,0.366-16.992-1.438
		c-3.632-0.846-5.825-3.906-6.578-9.182c-1.188-9.73-0.834-26.289,1.063-49.677l11.888,0.891
		c-1.805,21.15-2.377,35.059-1.713,41.728c0.365,3.015,1.323,4.842,2.877,5.482c1.53,0.616,2.98,0.719,4.352,0.308
		c2.101-0.457,3.38-1.987,3.837-4.591c1.21-7.492,0.627-20.669-1.748-39.536l11.683-1.576
		C376.308,295.234,376.902,310.673,376.286,324.035z"/>
	<path d="M392.011,334.416l-0.616-46.799h-11.991l-0.206-11.819l36.316-2.056l-0.411,13.875h-11.031l-0.824,45.394L392.011,334.416z
		"/>
	<path d="M436.273,299.333c14.092,5.275,17.758,15.6,10.998,30.97c-0.868,2.033-2.627,3.426-5.276,4.18
		c-2.558,0.775-6.029,1.165-10.415,1.165c-5.938-0.274-9.489-1.279-10.654-3.015c-2.467-3.882-3.632-7.771-3.494-11.665
		c0.137-3.894,0.924-7.269,2.364-10.124l9.559,1.199c-2.033,3.38-2.308,6.417-0.822,9.113c0.639,1.211,2.204,1.805,4.693,1.781
		c2.74,0,4.465-0.228,5.172-0.685c1.28-0.548,1.988-1.359,2.124-2.433c0.662-4.203-1.129-7.08-5.377-8.633
		c-11.695-5.367-17.646-11.386-17.851-18.055c-0.091-7.971,0.902-12.653,2.98-14.046c3.746-2.786,9.021-4.476,15.828-5.07
		c6.989,0,11.157,2.695,12.505,8.085c0.708,3.357,0.765,8.211,0.172,14.56l-8.908,0.411c-0.068-1.987-0.193-3.666-0.377-5.037
		c-0.411-3.151-2.033-4.944-4.864-5.378c-3.746,0.046-5.961,1.61-6.646,4.693C427.298,293.727,430.062,296.387,436.273,299.333z"/>
	<path d="M458.098,334.86c-1.668,0-2.775-0.239-3.324-0.719c-0.365-0.343-0.822-1.53-1.369-3.563
		c-0.664-2.649-0.993-4.705-0.993-6.167c-0.023-1.576,0.342-2.523,1.095-2.843c1.394-0.64,3.541-1.028,6.441-1.165
		c2.559,0,4.088,0.617,4.592,1.851c0.251,0.776,0.376,1.815,0.376,3.117c0,3.244-0.742,5.984-2.228,8.223
		c-0.365,0.457-0.947,0.788-1.746,0.994C460.415,334.677,459.467,334.769,458.098,334.86z M454.329,318.245l-1.713-43.887
		l12.436-1.37l-2.329,45.154L454.329,318.245z"/>
</g>
</svg>
