<?xml version="1.0" encoding="utf-8"?>
<!-- Generator: Adobe Illustrator 15.0.0, SVG Export Plug-In . SVG Version: 6.00 Build 0)  -->
<!DOCTYPE svg PUBLIC "-//W3C//DTD SVG 1.1//EN" "http://www.w3.org/Graphics/SVG/1.1/DTD/svg11.dtd">
<svg version="1.1" id="Layer_1" xmlns="http://www.w3.org/2000/svg" xmlns:xlink="http://www.w3.org/1999/xlink" x="0px" y="0px"
	 width="595.28px" height="841.89px" viewBox="0 0 595.28 841.89" enable-background="new 0 0 595.28 841.89" xml:space="preserve">
<rect x="104.059" y="92" fill="#FFFFFF" stroke="#231F20" stroke-width="3" stroke-miterlimit="10" width="0" height="253"/>
<rect x="49.059" y="161.5" fill="#FFFFFF" stroke="#231F20" stroke-width="3" stroke-miterlimit="10" width="110" height="114"/>
<rect x="59.059" y="168.5" fill="#FFFFFF" stroke="#231F20" stroke-width="3" stroke-miterlimit="10" width="40" height="100"/>
<rect x="79.059" y="147.5" fill="#FFFFFF" stroke="#231F20" stroke-width="3" stroke-miterlimit="10" width="50" height="14"/>
<rect x="79.059" y="275.5" fill="#FFFFFF" stroke="#231F20" stroke-width="3" stroke-miterlimit="10" width="50" height="14"/>
<g>
	<path stroke="#231F20" stroke-miterlimit="10" d="M203.43,172.2c-0.31-1.41-0.69-2.76-1.14-4.05c-0.46-1.37-0.86-2.28-1.2-2.73
		c-0.95-1.37-2.18-2.49-3.7-3.37c-1.52-0.87-3.14-1.46-4.85-1.76c-1.7-0.31-3.42-0.4-5.15-0.29c-1.73,0.12-3.34,0.44-4.82,0.97
		c-1.56,0.57-2.88,1.45-3.96,2.62c-1.08,1.18-1.84,2.49-2.28,3.93c-0.43,1.45-0.6,2.97-0.48,4.56c0.11,1.6,0.55,3.1,1.31,4.51
		c0.49,0.87,1.59,2.26,3.3,4.16c2.36,2.54,3.84,4.19,4.45,4.95c1.59,1.94,2.66,3.59,3.19,4.96c0.61,1.52,0.63,2.77,0.06,3.76
		c-0.16,0.23-0.27,0.38-0.35,0.46c-0.07,0-0.28-0.02-0.62-0.06c-1.14-0.15-2.13-0.82-2.97-1.99c-0.6-0.92-1.21-2.26-1.82-4.05
		c-0.15-0.42-0.32-1.35-0.51-2.79c-0.19-1.45-0.48-2.55-0.86-3.31c-0.45-0.91-1.02-1.44-1.71-1.59c-0.68-0.19-1.4-0.06-2.16,0.4
		c-0.08,0.03-0.29,0.17-0.63,0.4c-0.23,0.11-0.4,0.2-0.51,0.28c-0.08,0.04-0.32,0.13-0.74,0.28c-0.5,0.16-0.89,0.29-1.2,0.4
		l-1.2,0.57c-0.53,0.31-0.89,0.63-1.08,0.97c-0.26,0.53-0.36,1.2-0.28,2c0.03,0.15,0.06,0.31,0.08,0.48s0.04,0.31,0.06,0.43
		c0.02,0.11,0.03,0.23,0.03,0.34c0,2.55,0.22,4.78,0.65,6.7c0.44,1.91,1.4,3.61,2.88,5.1c1.86,1.9,4.48,3.24,7.87,4.04
		c3.3,0.8,6.55,0.91,9.74,0.34c3.53-0.6,6.19-1.93,7.98-3.99c2.12-2.39,2.75-5.43,1.88-9.11c-0.27-1.22-0.7-2.34-1.28-3.36
		c-0.59-1.03-1.31-1.93-2.17-2.71c-0.85-0.78-1.65-1.43-2.39-1.94c-0.74-0.51-1.65-1.07-2.71-1.68l-1.14-0.68l-1.2-0.69l-0.96-0.62
		c-0.5-0.31-0.84-0.52-1.03-0.63l-0.8-0.63c-0.38-0.26-0.64-0.49-0.8-0.68l-0.57-0.69c-0.22-0.26-0.4-0.53-0.54-0.79
		c-0.13-0.27-0.24-0.55-0.31-0.86c-0.42-1.44-0.44-2.55-0.06-3.33c0.38-0.78,0.97-1.26,1.77-1.45s1.62-0.05,2.48,0.42
		c0.85,0.48,1.49,1.27,1.91,2.37c0.11,0.3,0.2,0.65,0.25,1.05c0.06,0.4,0.09,0.75,0.09,1.06c0,0.3-0.01,0.74-0.03,1.31
		s-0.03,1-0.03,1.31c0,0.3,0.12,0.57,0.34,0.79c0.23,0.23,0.5,0.35,0.8,0.35h0.12c0.15,0.07,0.3,0.11,0.45,0.11
		c0.23,0,0.8,0.07,1.71,0.2c0.91,0.13,1.6,0.22,2.05,0.26c0.91,0.11,1.65,0.19,2.22,0.22c0.84,0.04,1.45-0.01,1.83-0.17
		c0.57-0.22,0.97-0.7,1.19-1.42c0.12-0.46,0.18-1.01,0.18-1.65C204.02,175.12,203.81,173.79,203.43,172.2z M201.72,177.16h-0.74
		c-0.53-0.04-1.24-0.12-2.11-0.23c-0.42-0.04-1.03-0.11-1.82-0.2c-0.8-0.1-1.33-0.16-1.6-0.2c0.08-2.09-0.06-3.61-0.4-4.56
		c-0.61-1.63-1.59-2.83-2.96-3.59c-1.37-0.76-2.76-0.97-4.16-0.63c-1.48,0.34-2.56,1.22-3.22,2.62c-0.67,1.41-0.69,3.1-0.09,5.08
		c0.15,0.49,0.35,0.97,0.6,1.45c0.25,0.47,0.6,0.94,1.06,1.39l1.02,1.03c0.31,0.3,0.78,0.67,1.43,1.08l1.31,0.86
		c0.26,0.19,0.79,0.5,1.56,0.94c0.78,0.44,1.25,0.69,1.4,0.77c2.09,1.21,3.75,2.43,4.99,3.64c1.23,1.22,2.08,2.74,2.53,4.56
		c0.65,2.97,0.17,5.36-1.42,7.18c-1.45,1.64-3.65,2.72-6.61,3.25c-2.89,0.5-5.83,0.38-8.83-0.34c-3.01-0.72-5.28-1.86-6.84-3.42
		c-1.18-1.18-1.95-2.57-2.31-4.19c-0.36-1.61-0.54-3.62-0.54-6.01c0-0.04-0.06-0.55-0.17-1.54c-0.04-0.26-0.04-0.43,0-0.51
		c0.07-0.08,0.15-0.13,0.22-0.17l0.92-0.46c0.26-0.07,0.62-0.21,1.08-0.4c0.46-0.15,0.76-0.26,0.91-0.34
		c0.23-0.07,0.49-0.21,0.8-0.4c0.34-0.23,0.53-0.34,0.57-0.34c0.23-0.15,0.38-0.23,0.45-0.23l0.23,0.46
		c0.27,0.49,0.48,1.35,0.63,2.56c0.23,1.6,0.44,2.7,0.63,3.31c0.68,1.94,1.38,3.44,2.1,4.5c1.26,1.75,2.76,2.75,4.51,3.02
		c0.83,0.11,1.46,0.08,1.88-0.11c0.45-0.19,0.91-0.67,1.36-1.43c0.99-1.59,1.03-3.51,0.12-5.75c-0.65-1.56-1.83-3.4-3.53-5.53
		c-0.2-0.23-1.7-1.92-4.51-5.07c-1.59-1.79-2.58-3.04-2.96-3.76c-1.29-2.28-1.52-4.69-0.68-7.21c0.83-2.53,2.45-4.23,4.84-5.1
		c1.86-0.61,3.78-0.92,5.76-0.94c1.97-0.02,3.9,0.37,5.78,1.17c1.88,0.79,3.33,1.9,4.36,3.3c0.19,0.34,0.47,1.06,0.85,2.17
		c0.42,1.25,0.78,2.52,1.09,3.81c0.34,1.49,0.53,2.68,0.57,3.59C201.78,176.62,201.76,176.93,201.72,177.16z"/>
	<path fill="#FFFFFF" stroke="#231F20" stroke-miterlimit="10" d="M201.78,176.24c0,0.38-0.02,0.69-0.06,0.92h-0.74
		c-0.53-0.04-1.24-0.12-2.11-0.23c-0.42-0.04-1.03-0.11-1.82-0.2c-0.8-0.1-1.33-0.16-1.6-0.2c0.08-2.09-0.06-3.61-0.4-4.56
		c-0.61-1.63-1.59-2.83-2.96-3.59c-1.37-0.76-2.76-0.97-4.16-0.63c-1.48,0.34-2.56,1.22-3.22,2.62c-0.67,1.41-0.69,3.1-0.09,5.08
		c0.15,0.49,0.35,0.97,0.6,1.45c0.25,0.47,0.6,0.94,1.06,1.39l1.02,1.03c0.31,0.3,0.78,0.67,1.43,1.08l1.31,0.86
		c0.26,0.19,0.79,0.5,1.56,0.94c0.78,0.44,1.25,0.69,1.4,0.77c2.09,1.21,3.75,2.43,4.99,3.64c1.23,1.22,2.08,2.74,2.53,4.56
		c0.65,2.97,0.17,5.36-1.42,7.18c-1.45,1.64-3.65,2.72-6.61,3.25c-2.89,0.5-5.83,0.38-8.83-0.34c-3.01-0.72-5.28-1.86-6.84-3.42
		c-1.18-1.18-1.95-2.57-2.31-4.19c-0.36-1.61-0.54-3.62-0.54-6.01c0-0.04-0.06-0.55-0.17-1.54c-0.04-0.26-0.04-0.43,0-0.51
		c0.07-0.08,0.15-0.13,0.22-0.17l0.92-0.46c0.26-0.07,0.62-0.21,1.08-0.4c0.46-0.15,0.76-0.26,0.91-0.34
		c0.23-0.07,0.49-0.21,0.8-0.4c0.34-0.23,0.53-0.34,0.57-0.34c0.23-0.15,0.38-0.23,0.45-0.23l0.23,0.46
		c0.27,0.49,0.48,1.35,0.63,2.56c0.23,1.6,0.44,2.7,0.63,3.31c0.68,1.94,1.38,3.44,2.1,4.5c1.26,1.75,2.76,2.75,4.51,3.02
		c0.83,0.11,1.46,0.08,1.88-0.11c0.45-0.19,0.91-0.67,1.36-1.43c0.99-1.59,1.03-3.51,0.12-5.75c-0.65-1.56-1.83-3.4-3.53-5.53
		c-0.2-0.23-1.7-1.92-4.51-5.07c-1.59-1.79-2.58-3.04-2.96-3.76c-1.29-2.28-1.52-4.69-0.68-7.21c0.83-2.53,2.45-4.23,4.84-5.1
		c1.86-0.61,3.78-0.92,5.76-0.94c1.97-0.02,3.9,0.37,5.78,1.17c1.88,0.79,3.33,1.9,4.36,3.3c0.19,0.34,0.47,1.06,0.85,2.17
		c0.42,1.25,0.78,2.52,1.09,3.81C201.55,174.14,201.74,175.33,201.78,176.24z"/>
	<path stroke="#231F20" stroke-miterlimit="10" d="M242.75,169.69c-0.27-1.4-0.4-2.24-0.4-2.51v-0.85c0-0.53-0.02-0.99-0.06-1.37
		c-0.04-0.57-0.11-1.06-0.23-1.48c-0.15-0.65-0.43-1.12-0.85-1.43c-0.15-0.11-0.34-0.19-0.57-0.22c-0.12-0.04-0.25-0.08-0.4-0.12
		c-0.23,0-0.53-0.02-0.91-0.05h-2.85c-1.98,0.07-4.69,0.19-8.15,0.34c-1.71,0.07-3.62,0.17-5.73,0.28c-2.1,0.12-3.86,0.22-5.27,0.32
		c-1.4,0.09-2.3,0.14-2.68,0.14h-1.31c-0.95-0.04-1.69-0.06-2.22-0.06c-0.95,0-1.71,0.02-2.28,0.06c-0.38,0.04-0.68,0.09-0.91,0.17
		c-0.46,0.11-0.8,0.28-1.03,0.51c-0.19,0.23-0.32,0.54-0.39,0.91c-0.04,0.19-0.04,0.42,0,0.69c0,0.34,0.03,0.8,0.11,1.37
		c0.04,0.3,0.11,0.74,0.23,1.31c0.07,0.41,0.11,0.66,0.11,0.74c0.04,0.15,0.04,0.49,0,1.02c0,0.72,0.02,1.24,0.06,1.54
		c0,0.68,0.06,1.24,0.17,1.65c0.11,0.69,0.34,1.22,0.68,1.6c0.38,0.38,0.9,0.53,1.54,0.46c0.08,0,0.21-0.04,0.4-0.12h0.17
		c2.51-0.23,4.9-0.34,7.18-0.34c0.31,0,0.57-0.11,0.8-0.34h1.14c0.38,0.04,0.7,0.05,0.97,0.05c-0.42,2.02-0.76,4.28-1.03,6.79
		c-0.19,1.82-0.36,5.77-0.51,11.85c-0.04,2.96-0.04,5.34,0,7.12c0,1.03,0.04,1.82,0.11,2.39c0.04,0.38,0.08,0.67,0.12,0.86
		c0.03,0.15,0.07,0.28,0.11,0.4c0.15,0.26,0.33,0.47,0.54,0.62c0.21,0.16,0.49,0.21,0.83,0.18h0.57c0.34-0.04,0.78-0.12,1.31-0.23
		c0.3-0.04,0.73-0.12,1.28-0.23c0.55-0.11,0.88-0.17,1-0.17c0.19-0.04,0.55-0.08,1.08-0.12c0.8-0.03,1.35-0.05,1.65-0.05
		c0.72-0.08,1.29-0.17,1.71-0.29c0.72-0.15,1.26-0.4,1.6-0.74c0.23-0.19,0.34-0.43,0.34-0.74c0.04-0.07,0.06-0.17,0.06-0.28
		c0-0.19-0.02-0.4-0.06-0.63c-0.04-0.42-0.09-0.97-0.17-1.65c-0.08-0.5-0.15-1.07-0.23-1.71l-0.11-0.97
		c-0.5-4.03-0.59-9.86-0.29-17.5c0-0.22-0.02-0.68-0.05-1.36v-1.37c0.03-0.84,0.15-1.29,0.34-1.37l0.57-0.11
		c0.34,0,0.81,0.02,1.42,0.06c0.38,0,1.01,0.03,1.88,0.11l2.05,0.17c1.71,0.11,3.04,0.08,3.99-0.11c1.64-0.27,2.55-1.01,2.74-2.23
		C242.99,171.93,242.94,170.94,242.75,169.69z M240.64,172.31c-0.08,0.15-0.36,0.27-0.86,0.34c-0.76,0.16-1.9,0.17-3.42,0.06
		c-0.79-0.07-1.46-0.11-1.99-0.11c-0.91-0.08-1.58-0.14-1.99-0.17c-0.69-0.04-1.24-0.06-1.66-0.06c-0.64,0.04-1.14,0.15-1.48,0.34
		c-0.99,0.53-1.52,1.63-1.59,3.31c0,0.38,0.02,0.91,0.05,1.59v1.14c-0.3,7.75-0.21,13.7,0.29,17.84c0,0.03,0.05,0.38,0.14,1.02
		c0.1,0.65,0.16,1.2,0.2,1.66c0.08,0.68,0.13,1.21,0.17,1.59h-0.11c-0.38,0.08-0.86,0.15-1.43,0.23c-0.26,0-0.79,0.02-1.59,0.06
		c-0.65,0.03-1.09,0.07-1.31,0.11c-0.16,0.04-0.51,0.1-1.06,0.2c-0.55,0.09-0.98,0.18-1.28,0.26c-0.34,0.03-0.61,0.07-0.8,0.11
		c-0.07-0.49-0.11-1.22-0.11-2.17c-0.04-1.74-0.04-4.08,0-7.01c0.15-6,0.32-9.89,0.51-11.68c0.27-2.43,0.61-4.61,1.03-6.55v-0.06
		l0.17-0.34c0.23-0.61,0.19-1.14-0.12-1.59c-0.15-0.23-0.36-0.4-0.62-0.52c-0.12-0.03-0.23-0.05-0.35-0.05
		c-0.19-0.04-0.41-0.08-0.68-0.12c-0.38-0.04-0.91-0.07-1.59-0.11h-2.68c-0.34,0-0.63,0.11-0.86,0.34
		c-1.86,0.04-3.82,0.15-5.87,0.34c-0.07,0-0.17,0.02-0.28,0.06c-0.04-0.04-0.06-0.1-0.06-0.17c-0.08-0.31-0.11-0.72-0.11-1.26
		c-0.04-0.3-0.06-0.77-0.06-1.42c0.04-0.61,0.04-1.05,0-1.31c0-0.12-0.05-0.43-0.14-0.94c-0.1-0.51-0.16-0.92-0.2-1.23
		c-0.08-0.41-0.12-0.74-0.12-0.97c0.08-0.03,0.18-0.05,0.29-0.05c0.49-0.04,1.16-0.06,1.99-0.06c0.54,0,1.26,0.02,2.17,0.06h1.54
		c0.38,0,1.27-0.05,2.68-0.14c1.4-0.1,3.16-0.2,5.27-0.32c2.11-0.11,4.01-0.21,5.72-0.28c3.46-0.15,6.16-0.27,8.1-0.35h2.73
		c0.27,0.04,0.46,0.06,0.57,0.06c0.04,0.04,0.06,0.08,0.06,0.12c0.07,0.22,0.11,0.57,0.11,1.02c0.04,0.31,0.06,0.71,0.06,1.2v0.97
		c0.04,0.38,0.17,1.31,0.4,2.79C240.66,171.11,240.71,171.86,240.64,172.31z"/>
	<path fill="#FFFFFF" stroke="#231F20" stroke-miterlimit="10" d="M240.64,172.31c-0.08,0.15-0.36,0.27-0.86,0.34
		c-0.76,0.16-1.9,0.17-3.42,0.06c-0.79-0.07-1.46-0.11-1.99-0.11c-0.91-0.08-1.58-0.14-1.99-0.17c-0.69-0.04-1.24-0.06-1.66-0.06
		c-0.64,0.04-1.14,0.15-1.48,0.34c-0.99,0.53-1.52,1.63-1.59,3.31c0,0.38,0.02,0.91,0.05,1.59v1.14c-0.3,7.75-0.21,13.7,0.29,17.84
		c0,0.03,0.05,0.38,0.14,1.02c0.1,0.65,0.16,1.2,0.2,1.66c0.08,0.68,0.13,1.21,0.17,1.59h-0.11c-0.38,0.08-0.86,0.15-1.43,0.23
		c-0.26,0-0.79,0.02-1.59,0.06c-0.65,0.03-1.09,0.07-1.31,0.11c-0.16,0.04-0.51,0.1-1.06,0.2c-0.55,0.09-0.98,0.18-1.28,0.26
		c-0.34,0.03-0.61,0.07-0.8,0.11c-0.07-0.49-0.11-1.22-0.11-2.17c-0.04-1.74-0.04-4.08,0-7.01c0.15-6,0.32-9.89,0.51-11.68
		c0.27-2.43,0.61-4.61,1.03-6.55v-0.06l0.17-0.34c0.23-0.61,0.19-1.14-0.12-1.59c-0.15-0.23-0.36-0.4-0.62-0.52
		c-0.12-0.03-0.23-0.05-0.35-0.05c-0.19-0.04-0.41-0.08-0.68-0.12c-0.38-0.04-0.91-0.07-1.59-0.11h-2.68
		c-0.34,0-0.63,0.11-0.86,0.34c-1.86,0.04-3.82,0.15-5.87,0.34c-0.07,0-0.17,0.02-0.28,0.06c-0.04-0.04-0.06-0.1-0.06-0.17
		c-0.08-0.31-0.11-0.72-0.11-1.26c-0.04-0.3-0.06-0.77-0.06-1.42c0.04-0.61,0.04-1.05,0-1.31c0-0.12-0.05-0.43-0.14-0.94
		c-0.1-0.51-0.16-0.92-0.2-1.23c-0.08-0.41-0.12-0.74-0.12-0.97c0.08-0.03,0.18-0.05,0.29-0.05c0.49-0.04,1.16-0.06,1.99-0.06
		c0.54,0,1.26,0.02,2.17,0.06h1.54c0.38,0,1.27-0.05,2.68-0.14c1.4-0.1,3.16-0.2,5.27-0.32c2.11-0.11,4.01-0.21,5.72-0.28
		c3.46-0.15,6.16-0.27,8.1-0.35h2.73c0.27,0.04,0.46,0.06,0.57,0.06c0.04,0.04,0.06,0.08,0.06,0.12c0.07,0.22,0.11,0.57,0.11,1.02
		c0.04,0.31,0.06,0.71,0.06,1.2v0.97c0.04,0.38,0.17,1.31,0.4,2.79C240.66,171.11,240.71,171.86,240.64,172.31z"/>
	<path stroke="#231F20" stroke-miterlimit="10" d="M283.03,178.01c0-0.23,0.01-0.68,0.03-1.37c0.02-0.68,0.05-1.55,0.09-2.59
		s0.05-1.97,0.05-2.76c0.04-1.71,0.06-3.04,0.06-3.99c-0.04-0.61-0.07-1.1-0.11-1.48c0-0.23-0.02-0.4-0.06-0.52
		c-0.08-0.34-0.19-0.59-0.34-0.74c-0.23-0.26-0.59-0.47-1.08-0.63c-0.31-0.11-0.71-0.22-1.2-0.34c-0.87-0.19-1.94-0.36-3.19-0.51
		c-1.18-0.15-2.2-0.23-3.08-0.23c-0.49-0.04-0.89-0.04-1.2,0c-0.19,0-0.36,0.02-0.51,0.06c-0.26,0.08-0.49,0.19-0.68,0.34
		s-0.32,0.38-0.4,0.68c-0.04,0.12-0.08,0.27-0.11,0.46v0.91c0.03,0.54,0.11,1.29,0.22,2.28c0.04,0.46,0.1,0.97,0.17,1.54
		c0.08,0.57,0.15,1.05,0.2,1.43c0.06,0.38,0.09,0.64,0.09,0.79c0.64,8.44,0.13,15.5-1.54,21.2c-0.04,0.15-0.11,0.44-0.23,0.86
		c-0.11,0.41-0.21,0.74-0.28,0.96c-0.19,0.61-0.36,0.99-0.51,1.14c-0.88,0.8-2.35,1.21-4.42,1.23s-3.47-0.37-4.19-1.17
		c-0.61-0.64-1.12-2.07-1.54-4.27c-0.34-2.02-0.59-4.54-0.74-7.58c-0.19-5.05-0.09-9.65,0.29-13.79c0-0.04,0.01-0.17,0.05-0.4
		s0.1-0.55,0.17-0.97c0.04-0.34,0.08-0.74,0.12-1.2c0.07-0.72,0.15-1.29,0.23-1.71c0-0.26,0.01-0.47,0.05-0.62v-0.46l-0.11-0.45
		c-0.31-0.54-0.93-0.92-1.88-1.14c-0.57-0.16-1.31-0.25-2.22-0.29c-0.46-0.04-1.66-0.06-3.59-0.06h-0.12
		c-0.19-0.3-0.45-0.47-0.8-0.51c-0.34-0.04-0.63,0.04-0.88,0.23s-0.39,0.44-0.43,0.74c-0.76,5.96-1.14,12.31-1.14,19.03
		c0,0.46-0.03,1.58-0.11,3.36c-0.04,1.56-0.04,2.82,0,3.77c0.11,3.03,0.72,5.47,1.82,7.29c1.86,3,4.28,5.19,7.24,6.55
		c1.6,0.76,3.48,1.24,5.64,1.43c2.17,0.23,4.29,0.17,6.38-0.17c4.98-0.8,8.53-2.66,10.66-5.59c0.87-1.21,1.56-2.5,2.05-3.84
		c0.49-1.35,0.83-2.83,1-4.42c0.17-1.6,0.26-2.96,0.28-4.1c0.02-1.14-0.01-2.63-0.08-4.48
		C283.07,180.07,283.03,178.77,283.03,178.01z M280.93,171.23c0,0.8-0.02,1.72-0.06,2.76c-0.04,1.05-0.07,1.92-0.09,2.62
		c-0.02,0.71-0.03,1.17-0.03,1.4c0,0.91,0.03,2.28,0.09,4.1c0.06,1.83,0.09,3.26,0.09,4.31c0,1.04-0.07,2.28-0.2,3.73
		c-0.14,1.44-0.43,2.75-0.89,3.93c-0.45,1.18-1.04,2.28-1.76,3.3c-1.75,2.47-4.81,4.05-9.18,4.73c-4.18,0.65-7.77,0.29-10.77-1.08
		c-2.51-1.18-4.58-3.09-6.21-5.75c-0.91-1.45-1.4-3.5-1.48-6.16c-0.04-0.87-0.04-2.05,0-3.53c0.08-1.82,0.11-2.98,0.11-3.48
		c0-6.11,0.33-11.85,0.97-17.21h0.12c1.9,0,3.05,0.02,3.47,0.06c0.76,0.04,1.35,0.11,1.77,0.23c0.07,0,0.15,0.02,0.23,0.06v0.11
		c-0.04,0.42-0.12,0.99-0.23,1.71c-0.04,0.34-0.09,0.74-0.14,1.2c-0.06,0.45-0.11,0.79-0.15,1.02l-0.05,0.4
		c-0.38,4.26-0.48,8.95-0.29,14.08c0.15,3.07,0.42,5.71,0.8,7.92c0.46,2.66,1.14,4.48,2.05,5.47c1.22,1.29,3.19,1.91,5.93,1.88
		c2.66-0.04,4.61-0.65,5.87-1.83c0.49-0.45,0.89-1.17,1.19-2.16c0.08-0.23,0.17-0.56,0.29-1c0.11-0.44,0.19-0.71,0.23-0.82
		c1.74-6.01,2.29-13.38,1.65-22.12c0-0.11-0.03-0.37-0.09-0.76c-0.05-0.4-0.12-0.9-0.2-1.49c-0.07-0.58-0.13-1.11-0.17-1.56
		c-0.11-0.91-0.19-1.62-0.23-2.11v-0.06h0.52c0.83,0,1.82,0.08,2.96,0.23c1.14,0.11,2.11,0.27,2.91,0.46
		c0.38,0.07,0.7,0.15,0.97,0.22c0,0.31,0.01,0.73,0.05,1.26C280.98,168.25,280.96,169.56,280.93,171.23z"/>
	<path fill="#FFFFFF" stroke="#231F20" stroke-miterlimit="10" d="M280.78,176.61c-0.02,0.71-0.03,1.17-0.03,1.4
		c0,0.91,0.03,2.28,0.09,4.1c0.06,1.83,0.09,3.26,0.09,4.31c0,1.04-0.07,2.28-0.2,3.73c-0.14,1.44-0.43,2.75-0.89,3.93
		c-0.45,1.18-1.04,2.28-1.76,3.3c-1.75,2.47-4.81,4.05-9.18,4.73c-4.18,0.65-7.77,0.29-10.77-1.08c-2.51-1.18-4.58-3.09-6.21-5.75
		c-0.91-1.45-1.4-3.5-1.48-6.16c-0.04-0.87-0.04-2.05,0-3.53c0.08-1.82,0.11-2.98,0.11-3.48c0-6.11,0.33-11.85,0.97-17.21h0.12
		c1.9,0,3.05,0.02,3.47,0.06c0.76,0.04,1.35,0.11,1.77,0.23c0.07,0,0.15,0.02,0.23,0.06v0.11c-0.04,0.42-0.12,0.99-0.23,1.71
		c-0.04,0.34-0.09,0.74-0.14,1.2c-0.06,0.45-0.11,0.79-0.15,1.02l-0.05,0.4c-0.38,4.26-0.48,8.95-0.29,14.08
		c0.15,3.07,0.42,5.71,0.8,7.92c0.46,2.66,1.14,4.48,2.05,5.47c1.22,1.29,3.19,1.91,5.93,1.88c2.66-0.04,4.61-0.65,5.87-1.83
		c0.49-0.45,0.89-1.17,1.19-2.16c0.08-0.23,0.17-0.56,0.29-1c0.11-0.44,0.19-0.71,0.23-0.82c1.74-6.01,2.29-13.38,1.65-22.12
		c0-0.11-0.03-0.37-0.09-0.76c-0.05-0.4-0.12-0.9-0.2-1.49c-0.07-0.58-0.13-1.11-0.17-1.56c-0.11-0.91-0.19-1.62-0.23-2.11v-0.06
		h0.52c0.83,0,1.82,0.08,2.96,0.23c1.14,0.11,2.11,0.27,2.91,0.46c0.38,0.07,0.7,0.15,0.97,0.22c0,0.31,0.01,0.73,0.05,1.26
		c0,0.95-0.02,2.26-0.05,3.93c0,0.8-0.02,1.72-0.06,2.76C280.83,175.04,280.8,175.91,280.78,176.61z"/>
	<path stroke="#231F20" stroke-miterlimit="10" d="M322.58,187.36c-0.19-0.73-0.76-1.24-1.71-1.54c-0.57-0.19-1.29-0.31-2.16-0.35
		c-0.58-0.03-1.26-0.03-2.06,0c-0.15,0-0.33,0.01-0.54,0.03s-0.37,0.03-0.48,0.03h-0.34c-0.57,0-0.93,0.27-1.09,0.8h-0.17
		c-0.3,0-0.57,0.11-0.8,0.34c-0.221,0.23-0.341,0.5-0.341,0.8c0,3.8-0.729,6.59-2.189,8.38c-1.46,1.78-3.2,2.66-5.21,2.62
		c-1.94-0.04-3.7-0.88-5.28-2.51c-1.57-1.63-2.42-3.78-2.53-6.44c-0.12-2.77,0.24-5.37,1.08-7.81c0.84-2.43,2.181-4.48,4.05-6.15
		c0.721-0.65,1.57-1.14,2.561-1.48c0.95-0.34,1.86-0.48,2.74-0.4c1.93,0.15,3.069,1.2,3.42,3.13c0.029,0.23,0.14,0.42,0.34,0.57
		c0.149,0.61,0.53,0.9,1.14,0.86c1.25-0.04,2.26-0.14,3.021-0.29c1.439-0.23,2.52-0.6,3.239-1.14c0.771-0.64,0.99-1.61,0.69-2.9
		c-0.19-0.76-0.61-1.69-1.25-2.8c-1.07-1.89-2.11-3.3-3.14-4.21c-1.4-1.29-3.12-2.28-5.13-2.97c-3.341-1.13-6.86-1.04-10.54,0.29
		c-1.98,0.72-3.69,1.69-5.16,2.91c-1.46,1.21-2.64,2.51-3.53,3.9c-0.89,1.39-1.61,2.98-2.14,4.79c-0.53,1.8-0.89,3.54-1.08,5.21
		c-0.19,1.67-0.28,3.51-0.28,5.53c0,4.44,0.62,8,1.88,10.65c1.21,2.59,3.1,4.6,5.67,6.04c2.56,1.45,5.38,2.28,8.46,2.51
		c3.04,0.19,5.95-0.23,8.75-1.25c2.79-1.03,5.04-2.6,6.75-4.73c0.15-0.19,0.32-0.51,0.511-0.97c0.149-0.38,0.319-0.84,0.51-1.37
		c0.38-1.06,0.76-2.3,1.14-3.7c0.42-1.45,0.75-2.68,0.97-3.71c0.12-0.57,0.19-1.04,0.23-1.42
		C322.66,188.08,322.66,187.66,322.58,187.36z M320.36,188.27c-0.04,0.34-0.12,0.76-0.23,1.25c-0.26,1.1-0.57,2.3-0.91,3.59
		c-0.38,1.37-0.76,2.56-1.14,3.59c-0.19,0.49-0.34,0.91-0.46,1.25l-0.22,0.46c-1.41,1.75-3.341,3.07-5.79,3.96
		c-2.45,0.89-5.021,1.26-7.721,1.11c-2.729-0.19-5.2-0.91-7.41-2.16c-2.2-1.26-3.82-2.97-4.84-5.13c-1.1-2.32-1.65-5.53-1.65-9.63
		c0-2.43,0.15-4.63,0.45-6.58c0.31-1.96,0.84-3.85,1.6-5.67c0.76-1.83,1.86-3.41,3.3-4.76c1.45-1.35,3.23-2.4,5.36-3.16
		c3.149-1.18,6.17-1.28,9.06-0.29c1.67,0.57,3.11,1.41,4.33,2.51c0.8,0.72,1.69,1.94,2.68,3.64c0.49,0.88,0.811,1.62,0.971,2.23
		c0.04,0.26,0.05,0.45,0.05,0.57c-0.41,0.3-1.12,0.53-2.11,0.68c-0.569,0.08-1.229,0.13-1.989,0.17c-0.341-1.4-1.011-2.48-1.99-3.22
		c-0.99-0.74-2.13-1.17-3.42-1.28c-1.221-0.08-2.45,0.11-3.7,0.54c-1.26,0.44-2.34,1.07-3.25,1.91c-2.17,1.94-3.73,4.29-4.68,7.07
		c-0.95,2.77-1.36,5.68-1.25,8.71c0.15,3.23,1.22,5.87,3.19,7.93c1.98,2.05,4.25,3.11,6.84,3.19c2.73,0.07,5.03-1.02,6.891-3.28
		c1.859-2.26,2.819-5.48,2.85-9.66h0.46c0.15,0,0.33-0.01,0.54-0.03s0.39-0.03,0.54-0.03h1.88c0.68,0.04,1.2,0.12,1.54,0.23
		c0.11,0.04,0.19,0.08,0.23,0.12V188.27z"/>
	<path fill="#FFFFFF" stroke="#231F20" stroke-miterlimit="10" d="M320.36,188.1v0.17c-0.04,0.34-0.12,0.76-0.23,1.25
		c-0.26,1.1-0.57,2.3-0.91,3.59c-0.38,1.37-0.76,2.56-1.14,3.59c-0.19,0.49-0.34,0.91-0.46,1.25l-0.22,0.46
		c-1.41,1.75-3.341,3.07-5.79,3.96c-2.45,0.89-5.021,1.26-7.721,1.11c-2.729-0.19-5.2-0.91-7.41-2.16c-2.2-1.26-3.82-2.97-4.84-5.13
		c-1.1-2.32-1.65-5.53-1.65-9.63c0-2.43,0.15-4.63,0.45-6.58c0.31-1.96,0.84-3.85,1.6-5.67c0.76-1.83,1.86-3.41,3.3-4.76
		c1.45-1.35,3.23-2.4,5.36-3.16c3.149-1.18,6.17-1.28,9.06-0.29c1.67,0.57,3.11,1.41,4.33,2.51c0.8,0.72,1.69,1.94,2.68,3.64
		c0.49,0.88,0.811,1.62,0.971,2.23c0.04,0.26,0.05,0.45,0.05,0.57c-0.41,0.3-1.12,0.53-2.11,0.68c-0.569,0.08-1.229,0.13-1.989,0.17
		c-0.341-1.4-1.011-2.48-1.99-3.22c-0.99-0.74-2.13-1.17-3.42-1.28c-1.221-0.08-2.45,0.11-3.7,0.54c-1.26,0.44-2.34,1.07-3.25,1.91
		c-2.17,1.94-3.73,4.29-4.68,7.07c-0.95,2.77-1.36,5.68-1.25,8.71c0.15,3.23,1.22,5.87,3.19,7.93c1.98,2.05,4.25,3.11,6.84,3.19
		c2.73,0.07,5.03-1.02,6.891-3.28c1.859-2.26,2.819-5.48,2.85-9.66h0.46c0.15,0,0.33-0.01,0.54-0.03s0.39-0.03,0.54-0.03h1.88
		c0.68,0.04,1.2,0.12,1.54,0.23C320.24,188.02,320.32,188.06,320.36,188.1z"/>
	<path stroke="#231F20" stroke-miterlimit="10" d="M363.72,198.47l-0.91-0.4l-3.59-2.91l-5.3-4.44c-2.09-1.83-3.7-3.31-4.84-4.45
		c-0.65-0.68-1.12-1.25-1.43-1.71c-0.15-0.15-0.24-0.3-0.28-0.45c0.11-0.19,0.26-0.42,0.45-0.69c0.38-0.53,0.949-1.25,1.71-2.16
		l5.239-5.99l5.19-5.92c0.76-0.91,1.31-1.65,1.65-2.22c0.229-0.35,0.399-0.63,0.52-0.86c0.22-0.45,0.28-0.87,0.17-1.25
		c-0.08-0.31-0.27-0.53-0.569-0.69c-0.08-0.03-0.171-0.07-0.29-0.11c-0.07,0-0.171-0.02-0.28-0.06c-0.16,0-0.37-0.02-0.63-0.05
		c-0.34-0.04-0.931-0.08-1.771-0.12c-2.01-0.11-3.3-0.21-3.87-0.28c-0.72-0.08-1.199-0.14-1.43-0.17c-0.38-0.04-0.7-0.08-0.96-0.12
		h-0.35c-0.23,0-0.41,0.02-0.57,0.06c-0.19,0.04-0.32,0.11-0.39,0.23c-0.04,0.04-0.08,0.06-0.12,0.08s-0.07,0.07-0.11,0.14
		l-0.29,0.35l-1.02,1.19l-2.91,3.59c-2.96,3.65-4.63,5.68-5.01,6.1c-1.48,1.63-2.28,2.51-2.4,2.62c-0.34,0.34-0.64,0.63-0.91,0.86
		v-0.86c0-0.57,0.061-2.22,0.17-4.96c0.08-2.27,0.15-4.04,0.23-5.3c0.04-0.83,0.04-1.51,0-2.05c-0.04-0.68-0.11-1.19-0.23-1.54
		c-0.3-0.68-1.02-1.19-2.16-1.53c-0.729-0.23-1.68-0.4-2.85-0.52c-0.76-0.11-1.75-0.2-2.97-0.25c-1.21-0.06-1.841-0.09-1.88-0.09
		c-0.601-0.04-1,0.23-1.19,0.8c-0.5,0.15-0.771,0.49-0.8,1.03c-0.08,2.27-0.181,6.92-0.32,13.93c-0.13,7.01-0.31,12.43-0.54,16.27
		c0,0.07-0.04,0.68-0.11,1.82c-0.079,1.14-0.149,2.13-0.229,2.96c-0.08,1.22-0.11,2.19-0.11,2.91c-0.04,0.46-0.04,0.8,0,1.02v0.46
		l0.11,0.23c0.04,0.23,0.13,0.42,0.29,0.57c0.189,0.15,0.41,0.26,0.68,0.34c0.19,0.04,0.4,0.08,0.63,0.11
		c0.341,0.08,0.811,0.14,1.42,0.18c0.95,0.03,2.24,0.05,3.881,0.05c1.1,0,2.43-0.01,3.989-0.03c1.551-0.02,2.351-0.02,2.391-0.02
		c0.6,0,0.989-0.31,1.14-0.92c0.3-0.22,0.46-0.53,0.46-0.91c0-4.29,0.01-7.03,0.05-8.2c0.08-1.9,0.21-3.38,0.4-4.45
		c0.04,0.19,0.1,0.36,0.17,0.51c0.88,1.87,2.17,4.16,3.88,6.9c2.271,3.65,3.64,5.87,4.1,6.67c0.04,0.11,0.131,0.43,0.28,0.97
		c0.2,0.68,0.46,1.21,0.8,1.59c0.42,0.49,1.051,0.7,1.881,0.63c0.529,0,1.18-0.14,1.939-0.4c1.18-0.38,2.7-1.01,4.561-1.88
		c1.479-0.72,2.89-1.46,4.22-2.22c0.56-0.31,1.02-0.57,1.359-0.8c0.19-0.15,0.351-0.27,0.46-0.34c0.07-0.04,0.141-0.09,0.2-0.15
		c0.061-0.05,0.101-0.12,0.141-0.2c0.149-0.22,0.229-0.45,0.229-0.68C365.09,199.49,364.63,198.89,363.72,198.47z M361.56,200.52
		l-4.05,2.11c-1.75,0.83-3.17,1.42-4.27,1.76c-0.57,0.19-1.03,0.29-1.37,0.29h-0.17c-0.04-0.12-0.101-0.31-0.17-0.57
		c-0.19-0.69-0.38-1.18-0.57-1.48c-0.15-0.27-1.52-2.51-4.11-6.73c-1.63-2.66-2.88-4.9-3.76-6.72c-0.03-0.08-0.09-0.27-0.17-0.57
		c-0.15-0.49-0.25-0.8-0.28-0.91c-0.149-0.46-0.35-0.82-0.569-1.09c-0.46-0.49-1.011-0.68-1.65-0.57c-0.61,0.16-1.07,0.61-1.37,1.37
		c-0.16,0.46-0.31,1.05-0.46,1.77c-0.189,1.14-0.32,2.75-0.399,4.84c-0.08,1.9-0.091,4.52-0.051,7.87
		c-2.739,0.03-4.64,0.05-5.699,0.05c-1.601,0-2.851-0.02-3.761-0.05c-0.42-0.04-0.75-0.08-0.97-0.12v-0.45
		c0-0.69,0.04-1.64,0.11-2.85c0.04-0.8,0.1-1.78,0.199-2.94c0.101-1.16,0.141-1.77,0.141-1.85c0.229-3.8,0.41-9.2,0.54-16.21
		c0.14-7.01,0.24-11.56,0.319-13.65l4.33,0.29c1.021,0.11,1.82,0.26,2.391,0.45c0.31,0.08,0.55,0.17,0.74,0.29
		c0.039,0.19,0.06,0.43,0.06,0.74c0.04,0.49,0.04,1.13,0,1.91s-0.11,2.51-0.23,5.21c-0.109,2.7-0.17,4.41-0.17,5.13
		c0,0.76,0.021,1.37,0.061,1.82c0.04,0.31,0.09,0.57,0.17,0.8c0.149,0.38,0.36,0.67,0.63,0.85c0.41,0.27,0.91,0.29,1.48,0.06
		c0.229-0.11,0.51-0.28,0.85-0.51c0.42-0.34,0.95-0.84,1.6-1.48c0.15-0.15,0.99-1.07,2.5-2.74c0.391-0.42,2.07-2.47,5.07-6.15
		l2.91-3.59l0.97-1.14l0.061-0.06c0.189,0.04,0.43,0.08,0.739,0.12c0.19,0.03,0.65,0.09,1.37,0.17c0.681,0.07,2.03,0.17,4.04,0.28
		l0.86,0.06l-1.26,1.54c-0.53,0.68-2.24,2.66-5.12,5.92l-5.301,6.04c-0.8,0.95-1.409,1.71-1.829,2.28l-0.57,0.86
		c-0.19,0.38-0.3,0.7-0.34,0.97c-0.04,0.57,0.21,1.23,0.739,1.99c0.381,0.53,0.931,1.16,1.65,1.88c1.14,1.18,2.811,2.72,5.021,4.62
		l5.3,4.44l3.59,2.91c0.15,0.15,0.38,0.3,0.68,0.45L361.56,200.52z"/>
	<path fill="#FFFFFF" stroke="#231F20" stroke-miterlimit="10" d="M362.01,200.23l-0.45,0.29l-4.05,2.11
		c-1.75,0.83-3.17,1.42-4.27,1.76c-0.57,0.19-1.03,0.29-1.37,0.29h-0.17c-0.04-0.12-0.101-0.31-0.17-0.57
		c-0.19-0.69-0.38-1.18-0.57-1.48c-0.15-0.27-1.52-2.51-4.11-6.73c-1.63-2.66-2.88-4.9-3.76-6.72c-0.03-0.08-0.09-0.27-0.17-0.57
		c-0.15-0.49-0.25-0.8-0.28-0.91c-0.149-0.46-0.35-0.82-0.569-1.09c-0.46-0.49-1.011-0.68-1.65-0.57c-0.61,0.16-1.07,0.61-1.37,1.37
		c-0.16,0.46-0.31,1.05-0.46,1.77c-0.189,1.14-0.32,2.75-0.399,4.84c-0.08,1.9-0.091,4.52-0.051,7.87
		c-2.739,0.03-4.64,0.05-5.699,0.05c-1.601,0-2.851-0.02-3.761-0.05c-0.42-0.04-0.75-0.08-0.97-0.12v-0.45
		c0-0.69,0.04-1.64,0.11-2.85c0.04-0.8,0.1-1.78,0.199-2.94c0.101-1.16,0.141-1.77,0.141-1.85c0.229-3.8,0.41-9.2,0.54-16.21
		c0.14-7.01,0.24-11.56,0.319-13.65l4.33,0.29c1.021,0.11,1.82,0.26,2.391,0.45c0.31,0.08,0.55,0.17,0.74,0.29
		c0.039,0.19,0.06,0.43,0.06,0.74c0.04,0.49,0.04,1.13,0,1.91s-0.11,2.51-0.23,5.21c-0.109,2.7-0.17,4.41-0.17,5.13
		c0,0.76,0.021,1.37,0.061,1.82c0.04,0.31,0.09,0.57,0.17,0.8c0.149,0.38,0.36,0.67,0.63,0.85c0.41,0.27,0.91,0.29,1.48,0.06
		c0.229-0.11,0.51-0.28,0.85-0.51c0.42-0.34,0.95-0.84,1.6-1.48c0.15-0.15,0.99-1.07,2.5-2.74c0.391-0.42,2.07-2.47,5.07-6.15
		l2.91-3.59l0.97-1.14l0.061-0.06c0.189,0.04,0.43,0.08,0.739,0.12c0.19,0.03,0.65,0.09,1.37,0.17c0.681,0.07,2.03,0.17,4.04,0.28
		l0.86,0.06l-1.26,1.54c-0.53,0.68-2.24,2.66-5.12,5.92l-5.301,6.04c-0.8,0.95-1.409,1.71-1.829,2.28l-0.57,0.86
		c-0.19,0.38-0.3,0.7-0.34,0.97c-0.04,0.57,0.21,1.23,0.739,1.99c0.381,0.53,0.931,1.16,1.65,1.88c1.14,1.18,2.811,2.72,5.021,4.62
		l5.3,4.44l3.59,2.91C361.48,199.93,361.71,200.08,362.01,200.23z"/>
</g>
<g>
	<g>
		<path stroke="#231F20" stroke-miterlimit="10" d="M374.36,154.82c-0.841-0.46-2.08-0.42-3.74,0.1c-0.26,0.1-0.43,0.28-0.5,0.54
			c-1.08,0.87-1.71,1.89-1.88,3.06c-0.141,0.96,0.1,1.71,0.72,2.24c0.65,0.52,1.61,0.68,2.88,0.46c0.891-0.16,1.68-0.66,2.38-1.47
			c0.7-0.82,1.101-1.66,1.221-2.52C375.59,156.1,375.23,155.3,374.36,154.82z M374,157.01c-0.07,0.6-0.35,1.19-0.84,1.77
			c-0.49,0.57-1,0.91-1.53,1c-0.84,0.15-1.42,0.1-1.729-0.14c-0.221-0.19-0.301-0.49-0.25-0.9c0.09-0.5,0.35-1.02,0.77-1.55
			c0.42-0.52,0.91-0.88,1.46-1.08c0.05-0.02,0.08-0.05,0.11-0.07c0.79-0.14,1.35-0.12,1.689,0.07
			C373.97,156.26,374.08,156.56,374,157.01z M376.92,178.18c-0.07-0.55-0.189-1.19-0.36-1.91c-0.14-0.77-0.22-1.19-0.22-1.26
			l-0.39-2.23c-0.17-0.96-0.28-1.6-0.33-1.91c-0.28-1.6-0.46-2.96-0.54-4.07v-0.28c0-0.12,0.02-0.29,0.04-0.51
			c0.02-0.21,0.05-0.42,0.07-0.61v-0.9c-0.021-0.43-0.12-0.76-0.29-0.97c-0.5-0.6-1.42-0.83-2.771-0.69c-0.5,0.05-1.1,0.16-1.8,0.33
			c-0.12-0.05-0.24-0.07-0.36-0.07c-0.29,0.02-0.479,0.16-0.569,0.43c-0.17,0.19-0.221,0.41-0.15,0.65
			c0.03,0.09,0.06,0.18,0.11,0.25c0.05,0.86,0.06,1.94,0.04,3.24c0,0.29-0.011,0.69-0.021,1.22c-0.01,0.53-0.03,1.01-0.04,1.44
			c-0.01,0.43-0.02,0.84-0.02,1.23c0,1.6-0.03,3.44-0.101,5.5c-0.029,0.44-0.05,1.04-0.06,1.82c-0.01,0.78-0.021,1.29-0.021,1.53
			l-0.069,0.22c-0.09,0.45,0,0.81,0.29,1.08c0.1,0.05,0.199,0.09,0.319,0.14c0.051,0,0.101,0.01,0.15,0.04h0.29
			c0.189,0.02,0.45,0.03,0.79,0.03h2.189l2.16-0.07c0.32,0,0.561-0.01,0.721-0.03h0.359c0.03,0,0.04-0.02,0.04-0.04
			c0.12,0,0.23-0.05,0.32-0.14c0.2-0.17,0.33-0.44,0.399-0.8c0.021-0.19,0.04-0.44,0.04-0.75
			C377.11,179.63,377.04,179,376.92,178.18z M375.7,180.41h-0.47l-2.131,0.07h-2.52v-0.07c0-0.21,0.01-0.71,0.02-1.49
			c0.011-0.78,0.03-1.38,0.061-1.78c0.07-2.12,0.1-3.98,0.1-5.58c0-0.39,0.01-0.79,0.021-1.21c0.01-0.42,0.029-0.89,0.04-1.42
			c0.01-0.53,0.02-0.94,0.02-1.23c0.021-1.24,0.01-2.3-0.04-3.16c0.58-0.15,1.07-0.24,1.48-0.29c0.739-0.07,1.22-0.02,1.439,0.14
			c0.021,0.05,0.03,0.11,0.03,0.18v0.76c-0.07,1.01-0.11,1.52-0.11,1.55c0.08,1.17,0.261,2.59,0.54,4.24
			c0.051,0.32,0.17,0.95,0.351,1.89c0.18,0.95,0.3,1.69,0.37,2.22c0.029,0.09,0.109,0.52,0.26,1.28c0.14,0.75,0.25,1.39,0.32,1.92
			c0.119,0.72,0.189,1.29,0.22,1.69V180.41z"/>
		<path fill="#FFFFFF" stroke="#231F20" stroke-miterlimit="10" d="M374,157.01c-0.07,0.6-0.35,1.19-0.84,1.77
			c-0.49,0.57-1,0.91-1.53,1c-0.84,0.15-1.42,0.1-1.729-0.14c-0.221-0.19-0.301-0.49-0.25-0.9c0.09-0.5,0.35-1.02,0.77-1.55
			c0.42-0.52,0.91-0.88,1.46-1.08c0.05-0.02,0.08-0.05,0.11-0.07c0.79-0.14,1.35-0.12,1.689,0.07
			C373.97,156.26,374.08,156.56,374,157.01z"/>
		<path fill="#FFFFFF" stroke="#231F20" stroke-miterlimit="10" d="M375.7,180.12v0.29h-0.47l-2.131,0.07h-2.52v-0.07
			c0-0.21,0.01-0.71,0.02-1.49c0.011-0.78,0.03-1.38,0.061-1.78c0.07-2.12,0.1-3.98,0.1-5.58c0-0.39,0.01-0.79,0.021-1.21
			c0.01-0.42,0.029-0.89,0.04-1.42c0.01-0.53,0.02-0.94,0.02-1.23c0.021-1.24,0.01-2.3-0.04-3.16c0.58-0.15,1.07-0.24,1.48-0.29
			c0.739-0.07,1.22-0.02,1.439,0.14c0.021,0.05,0.03,0.11,0.03,0.18v0.76c-0.07,1.01-0.11,1.52-0.11,1.55
			c0.08,1.17,0.261,2.59,0.54,4.24c0.051,0.32,0.17,0.95,0.351,1.89c0.18,0.95,0.3,1.69,0.37,2.22c0.029,0.09,0.109,0.52,0.26,1.28
			c0.14,0.75,0.25,1.39,0.32,1.92C375.6,179.15,375.67,179.72,375.7,180.12z"/>
		<path stroke="#231F20" stroke-miterlimit="10" d="M396.76,179.3c-0.05-0.12-0.109-0.23-0.18-0.33l-0.15-0.21
			c-0.02-0.08-0.05-0.15-0.069-0.22c-0.41-1.3-0.79-3.01-1.15-5.15l-0.18-1.11c-0.101-0.58-0.181-1.06-0.25-1.44
			c-0.07-0.39-0.17-0.87-0.29-1.46c-0.12-0.59-0.26-1.15-0.42-1.68c-0.15-0.52-0.311-1.03-0.48-1.51c-0.6-1.44-1.32-2.47-2.16-3.09
			c-1.109-0.8-2.38-0.92-3.819-0.36c-0.811,0.33-1.57,0.92-2.271,1.76c-0.02-0.29-0.08-0.55-0.18-0.79
			c-0.28-0.6-0.76-0.87-1.44-0.79c-0.239,0.02-0.64,0.15-1.22,0.39l-1.62,0.72c-1.68,0.75-2.62,1.15-2.81,1.23
			c-0.19,0.07-0.33,0.19-0.431,0.36c-0.1,0.16-0.109,0.34-0.04,0.54c0.12,0.38,0.381,0.55,0.761,0.5c0.02,1.46,0.13,3.55,0.319,6.25
			c0.2,2.7,0.32,4.55,0.36,5.56v0.68c-0.021,0.46-0.03,0.73-0.03,0.83c-0.029,0.77,0.05,1.37,0.21,1.8c0.2,0.5,0.57,0.82,1.12,0.94
			c0.12,0.02,0.29,0.01,0.5-0.04c0.17,0,0.37-0.02,0.58-0.07l1.58-0.29c0.29-0.07,0.63-0.14,1.03-0.22
			c0.399-0.07,0.729-0.13,0.989-0.19c0.261-0.06,0.44-0.09,0.54-0.09c0.021-0.03,0.101-0.04,0.221-0.04
			c0.14-0.02,0.25-0.04,0.319-0.04c0.41-0.07,0.721-0.22,0.94-0.46c0.24-0.27,0.3-0.62,0.18-1.05c-0.05-0.12-0.09-0.21-0.109-0.29
			v-0.03c-0.03-0.17-0.21-1.01-0.54-2.52c-0.24-1.15-0.41-2.11-0.511-2.88c-0.239-2.21,0.04-3.71,0.83-4.5
			c0.46-0.43,0.931-0.55,1.41-0.34c0.48,0.2,0.78,0.82,0.9,1.85c0.09,0.77,0.03,2.06-0.181,3.89c-0.27,2.33-0.399,3.71-0.399,4.14
			c-0.05,0.67-0.021,1.24,0.07,1.69c0.119,0.62,0.369,1.07,0.76,1.33c0.12,0.1,0.26,0.15,0.43,0.15c0.07,0.02,0.16,0.02,0.25,0
			c0.12,0,0.28-0.02,0.47-0.04c0.29-0.05,0.67-0.13,1.15-0.25c0.29-0.1,0.65-0.2,1.08-0.31c0.43-0.11,0.67-0.17,0.72-0.2
			c0.03,0,0.19-0.02,0.51-0.07l0.9-0.18c0.4-0.07,0.73-0.15,0.97-0.25c0.41-0.14,0.69-0.34,0.86-0.58
			C397.06,180.41,397.04,179.9,396.76,179.3z M395.42,180.05c-0.16,0.07-0.42,0.15-0.75,0.22c-0.24,0.05-0.52,0.09-0.83,0.14
			c-0.359,0.07-0.58,0.12-0.649,0.15c-0.021,0-0.25,0.06-0.681,0.18c-0.43,0.12-0.81,0.21-1.12,0.28l-1.04,0.22
			c-0.05,0.02-0.1,0.04-0.14,0.04c-0.05-0.1-0.09-0.21-0.11-0.33c-0.05-0.33-0.06-0.79-0.04-1.37c0-0.38,0.131-1.71,0.4-3.99
			c0.21-1.85,0.271-3.26,0.18-4.25c-0.17-1.56-0.76-2.56-1.77-2.99c-1.08-0.48-2.07-0.26-2.99,0.65c-1.12,1.13-1.54,3.01-1.26,5.65
			c0.1,0.82,0.28,1.83,0.54,3.03l0.51,2.44c0.021,0.05,0.05,0.13,0.07,0.22h-0.11c-0.14,0.02-0.26,0.04-0.34,0.05
			c-0.08,0.02-0.26,0.05-0.521,0.09c-0.27,0.05-0.6,0.12-1.01,0.22l-1.04,0.22l-1.51,0.28c-0.25,0.03-0.41,0.05-0.51,0.08h-0.11
			c-0.09-0.27-0.14-0.69-0.14-1.26c0-0.08,0.01-0.35,0.03-0.83v-0.79c-0.04-0.94-0.171-2.83-0.37-5.67
			c-0.21-2.85-0.311-5.06-0.311-6.65l1.69-0.75c0.67-0.31,1.189-0.54,1.55-0.69c0.41-0.16,0.68-0.26,0.83-0.28
			c0.05,0.14,0.06,0.37,0.03,0.68c0,0.02-0.021,0.36-0.07,1.01v0.47c0.03,0.12,0.06,0.24,0.11,0.36c0.17,0.28,0.42,0.42,0.76,0.39
			c0.38-0.05,0.689-0.27,0.93-0.68c0.05-0.07,0.09-0.14,0.13-0.2c0.03-0.06,0.061-0.1,0.09-0.13l0.03-0.1
			c0.32-0.39,0.51-0.63,0.58-0.72c0.07-0.1,0.22-0.27,0.43-0.51c0.221-0.24,0.42-0.42,0.601-0.54c0.18-0.12,0.39-0.21,0.63-0.29
			c0.96-0.38,1.77-0.33,2.439,0.15c0.65,0.48,1.2,1.31,1.66,2.48c0.19,0.43,0.36,0.9,0.5,1.39c0.15,0.49,0.28,1.01,0.4,1.56
			l0.25,1.37c0.07,0.39,0.149,0.87,0.24,1.46c0.08,0.59,0.13,0.95,0.159,1.1c0.381,2.23,0.79,4.02,1.221,5.36
			c0.029,0.1,0.069,0.22,0.149,0.36c0.07,0.15,0.141,0.28,0.21,0.4c0.07,0.12,0.11,0.19,0.11,0.21c0.021,0.03,0.04,0.06,0.04,0.11
			H395.42z"/>
		<path fill="#FFFFFF" stroke="#231F20" stroke-miterlimit="10" d="M395.5,180.05h-0.08c-0.16,0.07-0.42,0.15-0.75,0.22
			c-0.24,0.05-0.52,0.09-0.83,0.14c-0.359,0.07-0.58,0.12-0.649,0.15c-0.021,0-0.25,0.06-0.681,0.18c-0.43,0.12-0.81,0.21-1.12,0.28
			l-1.04,0.22c-0.05,0.02-0.1,0.04-0.14,0.04c-0.05-0.1-0.09-0.21-0.11-0.33c-0.05-0.33-0.06-0.79-0.04-1.37
			c0-0.38,0.131-1.71,0.4-3.99c0.21-1.85,0.271-3.26,0.18-4.25c-0.17-1.56-0.76-2.56-1.77-2.99c-1.08-0.48-2.07-0.26-2.99,0.65
			c-1.12,1.13-1.54,3.01-1.26,5.65c0.1,0.82,0.28,1.83,0.54,3.03l0.51,2.44c0.021,0.05,0.05,0.13,0.07,0.22h-0.11
			c-0.14,0.02-0.26,0.04-0.34,0.05c-0.08,0.02-0.26,0.05-0.521,0.09c-0.27,0.05-0.6,0.12-1.01,0.22l-1.04,0.22l-1.51,0.28
			c-0.25,0.03-0.41,0.05-0.51,0.08h-0.11c-0.09-0.27-0.14-0.69-0.14-1.26c0-0.08,0.01-0.35,0.03-0.83v-0.79
			c-0.04-0.94-0.171-2.83-0.37-5.67c-0.21-2.85-0.311-5.06-0.311-6.65l1.69-0.75c0.67-0.31,1.189-0.54,1.55-0.69
			c0.41-0.16,0.68-0.26,0.83-0.28c0.05,0.14,0.06,0.37,0.03,0.68c0,0.02-0.021,0.36-0.07,1.01v0.47c0.03,0.12,0.06,0.24,0.11,0.36
			c0.17,0.28,0.42,0.42,0.76,0.39c0.38-0.05,0.689-0.27,0.93-0.68c0.05-0.07,0.09-0.14,0.13-0.2c0.03-0.06,0.061-0.1,0.09-0.13
			l0.03-0.1c0.32-0.39,0.51-0.63,0.58-0.72c0.07-0.1,0.22-0.27,0.43-0.51c0.221-0.24,0.42-0.42,0.601-0.54
			c0.18-0.12,0.39-0.21,0.63-0.29c0.96-0.38,1.77-0.33,2.439,0.15c0.65,0.48,1.2,1.31,1.66,2.48c0.19,0.43,0.36,0.9,0.5,1.39
			c0.15,0.49,0.28,1.01,0.4,1.56l0.25,1.37c0.07,0.39,0.149,0.87,0.24,1.46c0.08,0.59,0.13,0.95,0.159,1.1
			c0.381,2.23,0.79,4.02,1.221,5.36c0.029,0.1,0.069,0.22,0.149,0.36c0.07,0.15,0.141,0.28,0.21,0.4c0.07,0.12,0.11,0.19,0.11,0.21
			C395.48,179.97,395.5,180,395.5,180.05z"/>
	</g>
	<g>
		<path stroke="#231F20" stroke-miterlimit="10" d="M383.31,199.45c-0.17-0.11-0.35-0.15-0.54-0.12c-1.8,0.4-3.029,1.04-3.71,1.9
			c-0.67,0.82-0.8,1.7-0.39,2.63c0.33,0.79,0.9,1.32,1.69,1.59c0.359,0.14,0.76,0.15,1.189,0.01c0.431-0.13,0.771-0.42,1.01-0.88
			c0.19-0.38,0.33-0.97,0.431-1.76c0.02-0.15,0.05-0.4,0.09-0.76c0.03-0.36,0.06-0.62,0.09-0.79c0.021-0.19-0.01-0.36-0.11-0.5
			c0.19-0.05,0.341-0.16,0.45-0.33c0.11-0.17,0.141-0.35,0.11-0.54C383.58,199.71,383.48,199.56,383.31,199.45z M381.64,201.9
			c-0.04,0.35-0.069,0.61-0.09,0.77c-0.069,0.6-0.17,1.02-0.29,1.26c-0.069,0.17-0.22,0.22-0.43,0.15
			c-0.39-0.15-0.67-0.42-0.85-0.81c-0.181-0.4-0.11-0.78,0.199-1.14c0.29-0.38,0.801-0.72,1.551-1
			C381.7,201.29,381.67,201.55,381.64,201.9z M383.31,199.45c-0.17-0.11-0.35-0.15-0.54-0.12c-1.8,0.4-3.029,1.04-3.71,1.9
			c-0.67,0.82-0.8,1.7-0.39,2.63c0.33,0.79,0.9,1.32,1.69,1.59c0.359,0.14,0.76,0.15,1.189,0.01c0.431-0.13,0.771-0.42,1.01-0.88
			c0.19-0.38,0.33-0.97,0.431-1.76c0.02-0.15,0.05-0.4,0.09-0.76c0.03-0.36,0.06-0.62,0.09-0.79c0.021-0.19-0.01-0.36-0.11-0.5
			c0.19-0.05,0.341-0.16,0.45-0.33c0.11-0.17,0.141-0.35,0.11-0.54C383.58,199.71,383.48,199.56,383.31,199.45z M381.64,201.9
			c-0.04,0.35-0.069,0.61-0.09,0.77c-0.069,0.6-0.17,1.02-0.29,1.26c-0.069,0.17-0.22,0.22-0.43,0.15
			c-0.39-0.15-0.67-0.42-0.85-0.81c-0.181-0.4-0.11-0.78,0.199-1.14c0.29-0.38,0.801-0.72,1.551-1
			C381.7,201.29,381.67,201.55,381.64,201.9z M389.83,204.26c-0.271-0.41-0.4-0.63-0.4-0.65c-0.29-0.74-0.51-1.8-0.68-3.17
			c-0.03-0.17-0.11-0.92-0.25-2.25c-0.15-1.33-0.28-2.42-0.4-3.26c-0.189-1.24-0.38-2.28-0.58-3.09c-0.26-1.06-0.56-1.81-0.899-2.27
			c-0.33-0.46-0.75-0.79-1.26-0.99c-0.5-0.2-0.971-0.29-1.4-0.27l-1.3,0.07c-1.92,0.2-3.84,1.06-5.76,2.59
			c-0.021-0.02-0.061-0.03-0.101-0.03c-0.2-0.1-0.38-0.11-0.56-0.04c-0.181,0.07-0.311,0.21-0.38,0.4
			c-0.46,1.03-0.73,1.83-0.83,2.41c-0.12,0.82,0.109,1.35,0.689,1.58c0.38,0.15,0.88,0.1,1.511-0.14
			c0.289-0.12,0.77-0.36,1.439-0.72c1.39-0.74,2.3-1.14,2.73-1.19c0.239-0.02,0.399,0,0.47,0.07c0.149,0.15,0.22,0.47,0.22,0.98
			c0,0.14,0.01,0.39,0.03,0.73c0.03,0.35,0.04,0.56,0.04,0.63c0.02,0.48,0.01,0.82-0.04,1.01c-0.09,0.27-0.49,0.48-1.18,0.65
			c-0.32,0.07-0.771,0.16-1.37,0.25c-0.721,0.1-1.261,0.18-1.62,0.25c-1.391,0.29-2.47,0.74-3.24,1.34
			c-1.08,0.86-1.68,2.08-1.8,3.67c-0.12,1.7,0.09,2.94,0.649,3.71c0.601,0.81,1.82,1.36,3.671,1.65c1.51,0.22,3.25,0.25,5.22,0.11
			c1.87-0.14,3.51-0.42,4.93-0.83c0.72-0.21,1.3-0.44,1.73-0.68c0.6-0.34,0.949-0.73,1.04-1.19
			C390.22,205.18,390.12,204.74,389.83,204.26z M388.39,205.52c-0.34,0.19-0.819,0.37-1.439,0.54c-1.3,0.38-2.83,0.65-4.61,0.79
			c-1.85,0.14-3.479,0.11-4.899-0.11c-1.46-0.21-2.37-0.57-2.73-1.08c-0.34-0.48-0.46-1.38-0.36-2.7c0.091-1.2,0.511-2.1,1.261-2.7
			c0.569-0.45,1.449-0.8,2.63-1.04c0.31-0.05,0.819-0.13,1.54-0.25c0.68-0.1,1.17-0.18,1.479-0.26c1.25-0.28,1.99-0.82,2.23-1.62
			c0.12-0.36,0.16-0.87,0.109-1.54c0-0.08-0.01-0.27-0.04-0.58c-0.02-0.31-0.029-0.54-0.029-0.68c0-0.89-0.21-1.55-0.61-1.98
			c-0.41-0.44-0.979-0.6-1.7-0.51c-0.64,0.1-1.72,0.55-3.239,1.37l-1.29,0.65l-0.221,0.07c0.05-0.22,0.12-0.48,0.221-0.79
			c0.02,0,0.029-0.01,0.029-0.04c0.84-0.84,1.811-1.56,2.9-2.18c1.09-0.61,2.16-0.96,3.189-1.06c0.601-0.09,1.131-0.1,1.601-0.02
			c0.47,0.09,0.82,0.3,1.06,0.63c0.221,0.29,0.431,0.87,0.65,1.73c0.189,0.75,0.37,1.73,0.54,2.95c0.12,0.89,0.25,1.98,0.399,3.28
			c0.141,1.32,0.221,2.08,0.25,2.27c0.19,1.46,0.44,2.61,0.75,3.45c0.051,0.12,0.23,0.42,0.54,0.9c0.08,0.12,0.11,0.21,0.11,0.26
			C388.66,205.34,388.56,205.42,388.39,205.52z M383.31,199.45c-0.17-0.11-0.35-0.15-0.54-0.12c-1.8,0.4-3.029,1.04-3.71,1.9
			c-0.67,0.82-0.8,1.7-0.39,2.63c0.33,0.79,0.9,1.32,1.69,1.59c0.359,0.14,0.76,0.15,1.189,0.01c0.431-0.13,0.771-0.42,1.01-0.88
			c0.19-0.38,0.33-0.97,0.431-1.76c0.02-0.15,0.05-0.4,0.09-0.76c0.03-0.36,0.06-0.62,0.09-0.79c0.021-0.19-0.01-0.36-0.11-0.5
			c0.19-0.05,0.341-0.16,0.45-0.33c0.11-0.17,0.141-0.35,0.11-0.54C383.58,199.71,383.48,199.56,383.31,199.45z M381.64,201.9
			c-0.04,0.35-0.069,0.61-0.09,0.77c-0.069,0.6-0.17,1.02-0.29,1.26c-0.069,0.17-0.22,0.22-0.43,0.15
			c-0.39-0.15-0.67-0.42-0.85-0.81c-0.181-0.4-0.11-0.78,0.199-1.14c0.29-0.38,0.801-0.72,1.551-1
			C381.7,201.29,381.67,201.55,381.64,201.9z"/>
		<path fill="#FFFFFF" stroke="#231F20" stroke-miterlimit="10" d="M388.6,205.01c-0.31-0.48-0.489-0.78-0.54-0.9
			c-0.31-0.84-0.56-1.99-0.75-3.45c-0.029-0.19-0.109-0.95-0.25-2.27c-0.149-1.3-0.279-2.39-0.399-3.28
			c-0.17-1.22-0.351-2.2-0.54-2.95c-0.22-0.86-0.43-1.44-0.65-1.73c-0.239-0.33-0.59-0.54-1.06-0.63c-0.47-0.08-1-0.07-1.601,0.02
			c-1.029,0.1-2.1,0.45-3.189,1.06c-1.09,0.62-2.061,1.34-2.9,2.18c0,0.03-0.01,0.04-0.029,0.04c-0.101,0.31-0.171,0.57-0.221,0.79
			l0.221-0.07l1.29-0.65c1.52-0.82,2.6-1.27,3.239-1.37c0.721-0.09,1.29,0.07,1.7,0.51c0.4,0.43,0.61,1.09,0.61,1.98
			c0,0.14,0.01,0.37,0.029,0.68c0.03,0.31,0.04,0.5,0.04,0.58c0.051,0.67,0.011,1.18-0.109,1.54c-0.24,0.8-0.98,1.34-2.23,1.62
			c-0.31,0.08-0.8,0.16-1.479,0.26c-0.721,0.12-1.23,0.2-1.54,0.25c-1.181,0.24-2.061,0.59-2.63,1.04c-0.75,0.6-1.17,1.5-1.261,2.7
			c-0.1,1.32,0.021,2.22,0.36,2.7c0.36,0.51,1.271,0.87,2.73,1.08c1.42,0.22,3.05,0.25,4.899,0.11c1.78-0.14,3.311-0.41,4.61-0.79
			c0.62-0.17,1.1-0.35,1.439-0.54c0.17-0.1,0.271-0.18,0.32-0.25C388.71,205.22,388.68,205.13,388.6,205.01z M383.51,200.44
			c-0.109,0.17-0.26,0.28-0.45,0.33c0.101,0.14,0.131,0.31,0.11,0.5c-0.03,0.17-0.06,0.43-0.09,0.79c-0.04,0.36-0.07,0.61-0.09,0.76
			c-0.101,0.79-0.24,1.38-0.431,1.76c-0.239,0.46-0.579,0.75-1.01,0.88c-0.43,0.14-0.83,0.13-1.189-0.01
			c-0.79-0.27-1.36-0.8-1.69-1.59c-0.41-0.93-0.28-1.81,0.39-2.63c0.681-0.86,1.91-1.5,3.71-1.9c0.19-0.03,0.37,0.01,0.54,0.12
			c0.171,0.11,0.271,0.26,0.311,0.45C383.65,200.09,383.62,200.27,383.51,200.44z"/>
	</g>
</g>
<g>
	<path stroke="#231F20" stroke-miterlimit="10" d="M437.61,192.25v-0.81c-0.08-0.37-0.181-0.66-0.311-0.87
		c-0.37-0.66-1.02-1.04-1.93-1.12c-0.59-0.09-1.29-0.02-2.12,0.18c-1.25,0.3-2.9,0.88-4.93,1.75l-4.62,2
		c-0.38,0.16-0.69,0.29-0.94,0.37c-0.04-0.62-0.08-1.47-0.12-2.56c0-0.54-0.01-1.18-0.029-1.93c-0.03-0.75-0.051-1.36-0.07-1.84
		c-0.021-0.48-0.03-0.78-0.03-0.91c-0.04-0.87-0.1-5.63-0.189-14.29c0-4.28-0.021-7.17-0.061-8.67v-2.81c0-0.37-0.02-0.64-0.06-0.81
		v-0.43c0-0.05-0.021-0.09-0.061-0.13l-0.31-0.56c-0.3-0.29-0.71-0.52-1.25-0.69c-0.34-0.08-0.771-0.14-1.311-0.18
		c-0.88-0.13-1.979-0.17-3.31-0.13c-0.67,0-1.37,0.01-2.12,0.03s-1.46,0.05-2.12,0.1c-0.67,0.04-1.06,0.06-1.189,0.06
		c-0.16,0-0.33,0.04-0.5,0.12c-0.37-0.33-0.811-0.41-1.311-0.25c-0.29,0.13-0.52,0.35-0.68,0.66c-0.17,0.31-0.19,0.63-0.07,0.97
		c1.13,3.12,1.521,8.34,1.19,15.66c-0.17,3.95-0.65,9.48-1.44,16.6c-0.12,0.87-0.52,3.07-1.18,6.61l-0.63,3.24
		c-0.08,0.46-0.141,0.82-0.18,1.07c-0.051,0.16-0.07,0.29-0.07,0.37v0.5c0,0.04,0.03,0.12,0.1,0.25c0.061,0.12,0.13,0.23,0.221,0.31
		c0.159,0.21,0.409,0.38,0.739,0.5c0.13,0.04,0.32,0.08,0.57,0.13c0.33,0.08,0.75,0.12,1.25,0.12c0.87,0.08,2.01,0.12,3.42,0.12
		c0.96,0.04,2.11,0.06,3.44,0.04c1.33-0.03,2.04-0.04,2.119-0.04c0.381,0,1.23,0.03,2.561,0.07h4.18
		c1.41,0.04,2.721,0.06,3.931,0.06c2.29,0.04,4.04,0.06,5.239,0.06h2.561c0.08-0.04,0.149-0.06,0.189-0.06
		c0.25-0.13,0.431-0.29,0.561-0.5c0.12-0.17,0.21-0.35,0.25-0.56c0-0.09,0.02-0.19,0.06-0.31c0-0.17,0.021-0.4,0.07-0.69
		c0.04-0.5,0.08-1.19,0.12-2.06c0-0.41,0.01-0.88,0.029-1.4c0.021-0.52,0.04-0.95,0.061-1.28c0.02-0.33,0.03-0.56,0.03-0.69
		l0.069-1.31l0.181-2.06C437.65,193.46,437.65,192.8,437.61,192.25z M435.12,194.13l-0.19,2.06c-0.04,0.83-0.06,1.27-0.06,1.31
		c0,0.08-0.01,0.3-0.03,0.65c-0.03,0.35-0.05,0.79-0.07,1.31c-0.02,0.52-0.029,0.99-0.029,1.41c-0.04,0.74-0.08,1.35-0.12,1.81
		h-1.12c-1.25,0-3.02-0.03-5.31-0.07c-1.16,0-2.45-0.02-3.87-0.06h-4.12c-1.37-0.04-2.26-0.06-2.681-0.06
		c-0.079,0-0.789,0.01-2.119,0.03s-2.48,0.01-3.44-0.03c-1.33,0-2.41-0.02-3.24-0.06c-0.12-0.05-0.25-0.07-0.37-0.07v-0.25
		l0.681-3.24c0.67-3.5,1.069-5.78,1.189-6.87c0.79-7.15,1.271-12.72,1.431-16.72c0.29-6.45,0.02-11.38-0.811-14.79
		c2.71-0.12,4.43-0.18,5.18-0.18c1.211-0.04,2.19-0.02,2.94,0.06c0.33,0.04,0.6,0.08,0.8,0.12v3.12c0.05,1.46,0.07,4.33,0.07,8.61
		c0.08,8.74,0.14,13.55,0.18,14.42c0,0.17,0.01,0.48,0.04,0.93c0.021,0.46,0.04,1.07,0.061,1.81c0.02,0.75,0.029,1.38,0.029,1.88
		c0.04,1.2,0.08,2.14,0.12,2.8c0.05,0.42,0.09,0.75,0.13,1c0,0.17,0.011,0.31,0.03,0.41c0.021,0.1,0.05,0.2,0.09,0.28
		c0.13,0.25,0.32,0.44,0.57,0.56c0.29,0.21,0.66,0.27,1.12,0.19c0.21,0,0.46-0.06,0.75-0.19c0.41-0.12,1-0.33,1.75-0.62l4.609-2.06
		c1.921-0.79,3.41-1.31,4.5-1.56c0.58-0.13,1.021-0.17,1.311-0.13v0.38C435.16,192.78,435.16,193.38,435.12,194.13z"/>
	<path fill="#FFFFFF" stroke="#231F20" stroke-miterlimit="10" d="M435.12,194.13l-0.19,2.06c-0.04,0.83-0.06,1.27-0.06,1.31
		c0,0.08-0.01,0.3-0.03,0.65c-0.03,0.35-0.05,0.79-0.07,1.31c-0.02,0.52-0.029,0.99-0.029,1.41c-0.04,0.74-0.08,1.35-0.12,1.81
		h-1.12c-1.25,0-3.02-0.03-5.31-0.07c-1.16,0-2.45-0.02-3.87-0.06h-4.12c-1.37-0.04-2.26-0.06-2.681-0.06
		c-0.079,0-0.789,0.01-2.119,0.03s-2.48,0.01-3.44-0.03c-1.33,0-2.41-0.02-3.24-0.06c-0.12-0.05-0.25-0.07-0.37-0.07v-0.25
		l0.681-3.24c0.67-3.5,1.069-5.78,1.189-6.87c0.79-7.15,1.271-12.72,1.431-16.72c0.29-6.45,0.02-11.38-0.811-14.79
		c2.71-0.12,4.43-0.18,5.18-0.18c1.211-0.04,2.19-0.02,2.94,0.06c0.33,0.04,0.6,0.08,0.8,0.12v3.12c0.05,1.46,0.07,4.33,0.07,8.61
		c0.08,8.74,0.14,13.55,0.18,14.42c0,0.17,0.01,0.48,0.04,0.93c0.021,0.46,0.04,1.07,0.061,1.81c0.02,0.75,0.029,1.38,0.029,1.88
		c0.04,1.2,0.08,2.14,0.12,2.8c0.05,0.42,0.09,0.75,0.13,1c0,0.17,0.011,0.31,0.03,0.41c0.021,0.1,0.05,0.2,0.09,0.28
		c0.13,0.25,0.32,0.44,0.57,0.56c0.29,0.21,0.66,0.27,1.12,0.19c0.21,0,0.46-0.06,0.75-0.19c0.41-0.12,1-0.33,1.75-0.62l4.609-2.06
		c1.921-0.79,3.41-1.31,4.5-1.56c0.58-0.13,1.021-0.17,1.311-0.13v0.38C435.16,192.78,435.16,193.38,435.12,194.13z"/>
	<path stroke="#231F20" stroke-miterlimit="10" d="M470,161.99l-0.13-1c-0.08-0.37-0.14-0.7-0.18-1c-0.051-0.29-0.07-0.54-0.07-0.74
		c0-0.05,0.01-0.1,0.03-0.16c0.02-0.06,0.04-0.2,0.04-0.41c0.04-0.74-0.19-1.31-0.69-1.68c-0.25-0.17-0.58-0.29-1-0.38
		c-0.25,0-0.56-0.02-0.94-0.06c-0.699-0.04-1.659-0.06-2.869-0.06c-2.2-0.04-4.971,0-8.29,0.12c-7.7,0.21-12.32,0.46-13.86,0.75
		c-0.33,0.09-0.59,0.27-0.78,0.57c-0.189,0.29-0.26,0.6-0.22,0.93c0.13,0.58,0.479,0.92,1.06,1v0.06c-0.08,2.17-0.1,3.52-0.06,4.06
		c0.08,1.29,0.5,2.14,1.25,2.56c0.54,0.29,1.43,0.35,2.68,0.18c1.92-0.2,3.21-0.33,3.87-0.37c0.08,0,0.23-0.02,0.44-0.06
		c0.04,0.33,0.08,0.77,0.12,1.31v2.56c0.17,1.16,0.25,4.63,0.25,10.42c-0.04,5.65-0.04,9.11,0,10.35c0.04,1.59,0.13,3.1,0.25,4.56
		c0,0.17,0.06,0.4,0.189,0.69c-0.21,0.08-0.479,0.12-0.81,0.12c-0.29,0.04-1.101,0-2.431-0.12c-1.25-0.09-2.21,0-2.869,0.25
		c-1.171,0.41-1.79,1.33-1.881,2.74c0,0.17,0.021,0.4,0.07,0.69l0.18,0.75c0.17,0.54,0.36,1.18,0.561,1.93
		c0.21,0.75,0.399,1.37,0.57,1.87c0.079,0.29,0.14,0.52,0.18,0.69c0.05,0.12,0.09,0.22,0.13,0.28s0.08,0.13,0.12,0.22l0.07,0.06
		c0.029,0.08,0.109,0.17,0.21,0.25c0.109,0.08,0.22,0.15,0.35,0.19c0.16,0.04,0.39,0.06,0.68,0.06h0.57
		c0.37-0.04,0.87-0.1,1.49-0.19c0.88-0.12,2.33-0.35,4.37-0.68c4.369-0.67,6.859-1.02,7.489-1.06c0.04,0,0.62,0.02,1.74,0.06
		c1.13,0.04,2.021,0.06,2.69,0.06c1.12-0.08,2.04-0.25,2.739-0.5c1.131-0.5,1.73-1.29,1.811-2.37c0.04-0.71-0.12-1.58-0.5-2.62
		c-0.33-1-0.521-1.64-0.561-1.93c0-0.05,0.08-0.5,0.25-1.38c0.29-1.29,0.021-2.2-0.81-2.74c-0.58-0.38-1.43-0.44-2.56-0.19
		c-0.66,0.12-1.49,0.4-2.49,0.81l-1.62,0.62l-0.07-1.37c-0.08-2-0.16-4.3-0.25-6.92c-0.21-6.91-0.31-11.71-0.31-14.42
		c0-0.12-0.021-0.49-0.061-1.09c-0.04-0.6-0.06-1.09-0.06-1.47c0-0.54,0.02-0.97,0.06-1.31v-0.19h0.12c0.08,0,0.19-0.01,0.32-0.03
		c0.12-0.02,0.26-0.03,0.43-0.03c0.21-0.04,0.75-0.02,1.62,0.06c1.17,0.09,2.04,0.13,2.62,0.13c1.13,0.04,2.02-0.04,2.69-0.25
		c1.159-0.37,1.869-1.06,2.119-2.06C470.19,164.4,470.16,163.36,470,161.99z M467.56,164.61c-0.04,0.04-0.14,0.09-0.31,0.13
		c-0.46,0.16-1.12,0.23-2,0.18c-0.49,0-1.31-0.04-2.43-0.12c-1.08-0.08-1.771-0.1-2.061-0.06c-1.2,0.12-2,0.37-2.37,0.75
		c-0.409,0.33-0.67,0.89-0.75,1.68c-0.04,0.46-0.06,1.02-0.06,1.69c0,0.41,0.02,0.93,0.06,1.56c0.04,0.54,0.061,0.85,0.061,0.93
		c0,2.71,0.109,7.53,0.319,14.48c0.08,2.66,0.16,4.99,0.25,6.99c0.04,0.99,0.061,1.72,0.061,2.18c0.04,0.25,0.06,0.46,0.06,0.62
		v0.32c0,0.04,0.021,0.08,0.061,0.12v0.13l0.069,0.12c0.04,0.04,0.091,0.12,0.15,0.22c0.061,0.1,0.16,0.2,0.28,0.28
		c0.21,0.13,0.46,0.19,0.75,0.19c0.08,0,0.18-0.01,0.28-0.03c0.1-0.02,0.239-0.06,0.409-0.1c0.16-0.04,0.41-0.14,0.75-0.31
		c1.37-0.54,2.101-0.81,2.181-0.81c0.87-0.33,1.58-0.56,2.12-0.69h0.439c-0.25,1.13-0.36,1.88-0.31,2.25
		c0.08,0.46,0.31,1.25,0.68,2.37c0.29,0.71,0.42,1.25,0.38,1.62l-0.31,0.25c-0.38,0.17-1,0.27-1.87,0.31
		c-0.55,0-1.36-0.02-2.44-0.06s-1.75-0.06-2-0.06c-0.29,0-2.89,0.37-7.8,1.12l-4.24,0.63c-0.5,0.08-0.88,0.12-1.12,0.12
		c-0.17-0.46-0.359-1.04-0.56-1.75c-0.21-0.7-0.38-1.33-0.5-1.87c-0.09-0.29-0.15-0.52-0.19-0.68v-0.07
		c0.04-0.25,0.12-0.41,0.25-0.5c0.33-0.08,0.94-0.1,1.811-0.06c1.45,0.13,2.39,0.17,2.81,0.13c1.29-0.04,2.24-0.48,2.87-1.31
		c0.37-0.5,0.43-1.11,0.18-1.81c-0.039-0.21-0.079-0.34-0.119-0.38v-0.06c-0.131-1.5-0.21-2.93-0.25-4.31v-10.48
		c0-4.28-0.08-7.76-0.25-10.42v-2.5c-0.04-0.66-0.08-1.18-0.12-1.56c-0.09-0.7-0.28-1.22-0.57-1.56c-0.37-0.45-0.93-0.66-1.68-0.62
		h-0.5c-0.17,0.04-0.271,0.06-0.311,0.06c-0.75,0.04-2.08,0.17-4,0.38c-0.54,0.08-0.91,0.12-1.12,0.12
		c-0.04-0.12-0.06-0.29-0.06-0.5c-0.04-0.45-0.021-1.72,0.06-3.8v-0.44c2.83-0.21,6.631-0.37,11.42-0.5
		c3.24-0.12,5.971-0.16,8.171-0.12c1.17,0,2.079,0.02,2.75,0.06h0.18v0.31c0,0.08,0.13,1.06,0.38,2.93
		C467.67,163.43,467.69,164.2,467.56,164.61z"/>
	<path fill="#FFFFFF" stroke="#231F20" stroke-miterlimit="10" d="M467.56,164.61c-0.04,0.04-0.14,0.09-0.31,0.13
		c-0.46,0.16-1.12,0.23-2,0.18c-0.49,0-1.31-0.04-2.43-0.12c-1.08-0.08-1.771-0.1-2.061-0.06c-1.2,0.12-2,0.37-2.37,0.75
		c-0.409,0.33-0.67,0.89-0.75,1.68c-0.04,0.46-0.06,1.02-0.06,1.69c0,0.41,0.02,0.93,0.06,1.56c0.04,0.54,0.061,0.85,0.061,0.93
		c0,2.71,0.109,7.53,0.319,14.48c0.08,2.66,0.16,4.99,0.25,6.99c0.04,0.99,0.061,1.72,0.061,2.18c0.04,0.25,0.06,0.46,0.06,0.62
		v0.32c0,0.04,0.021,0.08,0.061,0.12v0.13l0.069,0.12c0.04,0.04,0.091,0.12,0.15,0.22c0.061,0.1,0.16,0.2,0.28,0.28
		c0.21,0.13,0.46,0.19,0.75,0.19c0.08,0,0.18-0.01,0.28-0.03c0.1-0.02,0.239-0.06,0.409-0.1c0.16-0.04,0.41-0.14,0.75-0.31
		c1.37-0.54,2.101-0.81,2.181-0.81c0.87-0.33,1.58-0.56,2.12-0.69h0.439c-0.25,1.13-0.36,1.88-0.31,2.25
		c0.08,0.46,0.31,1.25,0.68,2.37c0.29,0.71,0.42,1.25,0.38,1.62l-0.31,0.25c-0.38,0.17-1,0.27-1.87,0.31
		c-0.55,0-1.36-0.02-2.44-0.06s-1.75-0.06-2-0.06c-0.29,0-2.89,0.37-7.8,1.12l-4.24,0.63c-0.5,0.08-0.88,0.12-1.12,0.12
		c-0.17-0.46-0.359-1.04-0.56-1.75c-0.21-0.7-0.38-1.33-0.5-1.87c-0.09-0.29-0.15-0.52-0.19-0.68v-0.07
		c0.04-0.25,0.12-0.41,0.25-0.5c0.33-0.08,0.94-0.1,1.811-0.06c1.45,0.13,2.39,0.17,2.81,0.13c1.29-0.04,2.24-0.48,2.87-1.31
		c0.37-0.5,0.43-1.11,0.18-1.81c-0.039-0.21-0.079-0.34-0.119-0.38v-0.06c-0.131-1.5-0.21-2.93-0.25-4.31v-10.48
		c0-4.28-0.08-7.76-0.25-10.42v-2.5c-0.04-0.66-0.08-1.18-0.12-1.56c-0.09-0.7-0.28-1.22-0.57-1.56c-0.37-0.45-0.93-0.66-1.68-0.62
		h-0.5c-0.17,0.04-0.271,0.06-0.311,0.06c-0.75,0.04-2.08,0.17-4,0.38c-0.54,0.08-0.91,0.12-1.12,0.12
		c-0.04-0.12-0.06-0.29-0.06-0.5c-0.04-0.45-0.021-1.72,0.06-3.8v-0.44c2.83-0.21,6.631-0.37,11.42-0.5
		c3.24-0.12,5.971-0.16,8.171-0.12c1.17,0,2.079,0.02,2.75,0.06h0.18v0.31c0,0.08,0.13,1.06,0.38,2.93
		C467.67,163.43,467.69,164.2,467.56,164.61z"/>
	<path stroke="#231F20" stroke-miterlimit="10" d="M503.25,158.18c-0.2-0.37-0.54-0.64-0.99-0.81c-0.3-0.12-0.67-0.22-1.12-0.31
		c-0.71-0.12-1.67-0.21-2.88-0.25c-2.04-0.12-4.72-0.12-8.05,0c-5.78,0.21-10.17,0.54-13.16,1c-0.21-0.17-0.46-0.25-0.75-0.25
		c-0.34,0-0.63,0.13-0.87,0.38c-0.25,0.24-0.38,0.54-0.38,0.87c0,3.66,0.101,9.13,0.311,16.41c0.21,7.28,0.31,12.75,0.31,16.41
		c0,0.08-0.04,0.77-0.12,2.06s-0.12,2.35-0.12,3.18c0,1.29,0.061,2.31,0.181,3.06c0.09,0.54,0.189,1,0.31,1.37
		c0.3,0.54,0.67,0.92,1.13,1.13c0.79,0.37,1.931,0.45,3.431,0.25c0.159,0,1.119-0.15,2.869-0.44c0.08-0.04,0.48-0.02,1.19,0.06
		c0.91,0.04,1.64-0.14,2.18-0.56c0.46-0.42,0.75-1.04,0.87-1.87c0.08-0.54,0.11-1.25,0.07-2.12c-0.05-1.17-0.23-2.92-0.57-5.25
		c-0.41-2.82-0.66-4.55-0.75-5.17c-0.08-0.79-0.1-1.4-0.06-1.81v-0.63c0.17-0.29,0.67-0.41,1.5-0.37
		c0.42,0.04,0.979,0.12,1.689,0.25l1.99,0.37c1.83,0.29,3.23,0.21,4.18-0.25c1.5-0.7,2.25-2.16,2.25-4.37
		c0-0.2,0.021-0.45,0.061-0.75l0.06-0.93c0.09-0.88,0.021-1.6-0.18-2.18c-0.42-1.21-1.38-1.9-2.87-2.06
		c-0.88-0.09-2.06,0.02-3.56,0.31c-0.42,0.08-0.99,0.21-1.721,0.37c-0.729,0.17-1.189,0.27-1.399,0.31
		c-0.41,0.09-0.73,0.13-0.94,0.13c-0.08-0.33-0.12-0.77-0.12-1.31c0-0.29,0.021-0.77,0.061-1.44c0.04-0.66,0.06-1.04,0.06-1.12
		c0-0.12-0.02-0.46-0.06-1c-0.08-0.7-0.12-1.18-0.12-1.43c-0.04-0.59-0.07-1.04-0.07-1.38c0.04,0,0.09-0.02,0.13-0.06
		c0.41-0.08,0.98-0.12,1.681-0.12c1.25-0.04,2.92,0.02,5,0.18c0.75,0.09,2.39,0.25,4.93,0.5c0.79,0.13,1.35,0.19,1.68,0.19
		c0.25,0.04,0.46,0.06,0.63,0.06c0.08-0.04,0.181-0.06,0.311-0.06c0.25-0.04,0.47-0.14,0.68-0.31c0.71-0.58,1.061-1.64,1.061-3.18
		v-1.44c-0.04-0.5-0.061-0.81-0.061-0.94c0-0.08,0.01-0.2,0.03-0.37c0.02-0.16,0.06-0.39,0.13-0.69c0.06-0.29,0.11-0.58,0.15-0.87
		c0.079-0.5,0.13-0.94,0.13-1.31C503.57,159,503.46,158.52,503.25,158.18z M500.95,160.56c0,0.16-0.03,0.4-0.09,0.71
		c-0.07,0.32-0.12,0.61-0.16,0.88c-0.05,0.27-0.07,0.47-0.07,0.59c0,0.25,0.021,0.64,0.07,1.19v1.31c0,0.41-0.03,0.74-0.07,0.99
		c-0.33,0-0.85-0.04-1.55-0.12l-4.94-0.56c-2.199-0.17-3.97-0.23-5.3-0.19c-0.87,0-1.58,0.06-2.12,0.19c-0.83,0.21-1.43,0.54-1.81,1
		c-0.17,0.21-0.271,0.5-0.311,0.87v0.69c0,0.37,0.021,0.87,0.061,1.49c0,0.3,0.04,0.79,0.13,1.5c0.04,0.46,0.06,0.71,0.06,0.75
		s-0.02,0.35-0.06,0.94c-0.05,0.66-0.07,1.22-0.07,1.68c0,0.71,0.07,1.29,0.19,1.75c0.17,0.83,0.5,1.41,1,1.74
		c0.37,0.21,0.87,0.3,1.5,0.25c0.33,0,0.79-0.06,1.37-0.18c0.21-0.04,0.66-0.15,1.37-0.32c0.71-0.16,1.29-0.28,1.75-0.37
		c1.21-0.25,2.119-0.33,2.75-0.25c0.489,0.04,0.76,0.15,0.81,0.31c0.08,0.3,0.1,0.71,0.06,1.25v0.56l-0.06,0.32
		c-0.05,0.37-0.07,0.7-0.07,0.99c0,1.17-0.27,1.86-0.81,2.06c-0.5,0.25-1.41,0.27-2.75,0.07l-1.12-0.19
		c-0.5-0.08-0.77-0.13-0.81-0.13c-0.83-0.16-1.5-0.27-1.99-0.31c-1.84-0.08-3.08,0.46-3.75,1.62c-0.25,0.42-0.37,1.02-0.37,1.81
		c-0.04,0.54,0,1.25,0.12,2.12c0.04,0.63,0.27,2.38,0.689,5.25c0.33,2.28,0.521,3.97,0.561,5.05c0.04,0.67,0.04,1.21,0,1.62
		c-0.04,0.13-0.061,0.23-0.061,0.32h-0.439c-0.87-0.09-1.43-0.11-1.68-0.07c-1.711,0.29-2.65,0.46-2.811,0.5
		c-0.88,0.09-1.52,0.09-1.939,0c-0.08-0.16-0.141-0.39-0.181-0.68c-0.09-0.63-0.13-1.52-0.13-2.69c0-0.75,0.04-1.75,0.13-2.99
		c0.08-1.25,0.12-2,0.12-2.25c0-3.62-0.1-8.92-0.31-15.91c-0.21-6.99-0.311-12.15-0.311-15.48c2.91-0.41,7.15-0.72,12.73-0.93
		c3.239-0.13,5.859-0.13,7.859,0c1.12,0.04,1.971,0.1,2.561,0.19c0.16,0.04,0.29,0.08,0.37,0.12
		C501.07,159.87,501.03,160.18,500.95,160.56z"/>
	<path fill="#FFFFFF" stroke="#231F20" stroke-miterlimit="10" d="M501.07,159.62c0,0.25-0.04,0.56-0.12,0.94
		c0,0.16-0.03,0.4-0.09,0.71c-0.07,0.32-0.12,0.61-0.16,0.88c-0.05,0.27-0.07,0.47-0.07,0.59c0,0.25,0.021,0.64,0.07,1.19v1.31
		c0,0.41-0.03,0.74-0.07,0.99c-0.33,0-0.85-0.04-1.55-0.12l-4.94-0.56c-2.199-0.17-3.97-0.23-5.3-0.19c-0.87,0-1.58,0.06-2.12,0.19
		c-0.83,0.21-1.43,0.54-1.81,1c-0.17,0.21-0.271,0.5-0.311,0.87v0.69c0,0.37,0.021,0.87,0.061,1.49c0,0.3,0.04,0.79,0.13,1.5
		c0.04,0.46,0.06,0.71,0.06,0.75s-0.02,0.35-0.06,0.94c-0.05,0.66-0.07,1.22-0.07,1.68c0,0.71,0.07,1.29,0.19,1.75
		c0.17,0.83,0.5,1.41,1,1.74c0.37,0.21,0.87,0.3,1.5,0.25c0.33,0,0.79-0.06,1.37-0.18c0.21-0.04,0.66-0.15,1.37-0.32
		c0.71-0.16,1.29-0.28,1.75-0.37c1.21-0.25,2.119-0.33,2.75-0.25c0.489,0.04,0.76,0.15,0.81,0.31c0.08,0.3,0.1,0.71,0.06,1.25v0.56
		l-0.06,0.32c-0.05,0.37-0.07,0.7-0.07,0.99c0,1.17-0.27,1.86-0.81,2.06c-0.5,0.25-1.41,0.27-2.75,0.07l-1.12-0.19
		c-0.5-0.08-0.77-0.13-0.81-0.13c-0.83-0.16-1.5-0.27-1.99-0.31c-1.84-0.08-3.08,0.46-3.75,1.62c-0.25,0.42-0.37,1.02-0.37,1.81
		c-0.04,0.54,0,1.25,0.12,2.12c0.04,0.63,0.27,2.38,0.689,5.25c0.33,2.28,0.521,3.97,0.561,5.05c0.04,0.67,0.04,1.21,0,1.62
		c-0.04,0.13-0.061,0.23-0.061,0.32h-0.439c-0.87-0.09-1.43-0.11-1.68-0.07c-1.711,0.29-2.65,0.46-2.811,0.5
		c-0.88,0.09-1.52,0.09-1.939,0c-0.08-0.16-0.141-0.39-0.181-0.68c-0.09-0.63-0.13-1.52-0.13-2.69c0-0.75,0.04-1.75,0.13-2.99
		c0.08-1.25,0.12-2,0.12-2.25c0-3.62-0.1-8.92-0.31-15.91c-0.21-6.99-0.311-12.15-0.311-15.48c2.91-0.41,7.15-0.72,12.73-0.93
		c3.239-0.13,5.859-0.13,7.859,0c1.12,0.04,1.971,0.1,2.561,0.19C500.86,159.54,500.99,159.58,501.07,159.62z"/>
	<path stroke="#231F20" stroke-miterlimit="10" d="M546,165.67c-0.29-1.54-0.44-2.45-0.44-2.74v-0.94c0-0.58-0.02-1.08-0.06-1.5
		c-0.04-0.62-0.12-1.16-0.25-1.62c-0.17-0.71-0.48-1.23-0.94-1.56c-0.159-0.12-0.369-0.21-0.619-0.25
		c-0.131-0.04-0.271-0.08-0.44-0.12c-0.25,0-0.58-0.02-1-0.07h-3.11c-2.17,0.09-5.14,0.21-8.93,0.38c-1.87,0.08-3.96,0.19-6.27,0.31
		c-2.311,0.13-4.23,0.24-5.771,0.34c-1.54,0.11-2.52,0.16-2.93,0.16h-1.44c-1.04-0.04-1.85-0.06-2.43-0.06
		c-1.04,0-1.87,0.02-2.5,0.06c-0.41,0.04-0.75,0.1-1,0.19c-0.49,0.12-0.87,0.31-1.12,0.56c-0.21,0.25-0.35,0.58-0.44,1
		c-0.04,0.21-0.04,0.46,0,0.75c0,0.37,0.04,0.87,0.131,1.49c0.04,0.34,0.119,0.81,0.25,1.44c0.079,0.46,0.119,0.73,0.119,0.81
		c0.04,0.17,0.04,0.54,0,1.12c0,0.79,0.021,1.36,0.061,1.69c0,0.75,0.07,1.35,0.189,1.81c0.131,0.75,0.37,1.33,0.75,1.74
		c0.421,0.42,0.98,0.59,1.69,0.5c0.08,0,0.22-0.04,0.43-0.12h0.19c2.75-0.25,5.37-0.38,7.86-0.38c0.329,0,0.63-0.12,0.88-0.37h1.239
		c0.42,0.04,0.771,0.06,1.061,0.06c-0.45,2.21-0.83,4.68-1.12,7.43c-0.21,1.99-0.4,6.32-0.56,12.98c-0.04,3.24-0.04,5.84,0,7.8
		c0,1.12,0.039,1.99,0.119,2.62c0.04,0.41,0.091,0.73,0.131,0.93c0.039,0.17,0.079,0.32,0.119,0.44c0.17,0.29,0.37,0.52,0.601,0.69
		c0.229,0.16,0.53,0.23,0.899,0.18h0.631c0.369-0.04,0.85-0.12,1.43-0.25c0.33-0.04,0.8-0.12,1.399-0.25
		c0.61-0.12,0.971-0.18,1.101-0.18c0.21-0.04,0.6-0.09,1.18-0.13c0.87-0.04,1.48-0.06,1.811-0.06c0.79-0.08,1.42-0.19,1.869-0.31
		c0.79-0.17,1.381-0.44,1.75-0.81c0.25-0.21,0.381-0.48,0.381-0.81c0.04-0.09,0.06-0.19,0.06-0.32c0-0.2-0.02-0.43-0.06-0.68
		c-0.051-0.46-0.11-1.06-0.19-1.81c-0.09-0.54-0.17-1.17-0.25-1.87l-0.13-1.06c-0.54-4.41-0.64-10.8-0.311-19.16
		c0-0.25-0.02-0.75-0.06-1.5v-1.5c0.04-0.91,0.17-1.41,0.37-1.49l0.63-0.13c0.37,0,0.89,0.02,1.56,0.06
		c0.41,0,1.101,0.05,2.061,0.13l2.24,0.19c1.88,0.12,3.33,0.08,4.37-0.13c1.79-0.29,2.79-1.1,3-2.43
		C546.27,168.13,546.21,167.05,546,165.67z M543.69,168.54c-0.08,0.17-0.4,0.29-0.94,0.38c-0.83,0.16-2.08,0.18-3.74,0.06
		c-0.87-0.08-1.6-0.12-2.18-0.12c-1-0.09-1.73-0.15-2.19-0.19c-0.75-0.04-1.35-0.06-1.81-0.06c-0.7,0.04-1.25,0.16-1.62,0.37
		c-1.08,0.58-1.67,1.79-1.75,3.62c0,0.42,0.021,1,0.06,1.75v1.24c-0.329,8.49-0.22,15,0.32,19.53c0,0.05,0.05,0.42,0.15,1.13
		c0.109,0.71,0.18,1.31,0.22,1.81c0.08,0.75,0.15,1.33,0.19,1.75h-0.131c-0.409,0.08-0.93,0.16-1.56,0.25
		c-0.29,0-0.87,0.02-1.74,0.06c-0.71,0.04-1.189,0.08-1.439,0.12c-0.16,0.04-0.55,0.12-1.15,0.22c-0.61,0.1-1.07,0.2-1.41,0.28
		c-0.37,0.04-0.66,0.09-0.87,0.13c-0.08-0.54-0.119-1.34-0.119-2.38c-0.051-1.91-0.051-4.47,0-7.67
		c0.159-6.57,0.35-10.84,0.56-12.79c0.29-2.66,0.66-5.06,1.12-7.18v-0.06l0.189-0.37c0.25-0.67,0.2-1.25-0.13-1.75
		c-0.16-0.25-0.39-0.44-0.689-0.56c-0.12-0.04-0.24-0.07-0.37-0.07c-0.21-0.04-0.46-0.08-0.75-0.12c-0.41-0.04-0.99-0.08-1.74-0.13
		h-2.939c-0.37,0-0.69,0.13-0.931,0.38c-2.04,0.04-4.18,0.17-6.43,0.37c-0.09,0-0.19,0.02-0.311,0.07
		c-0.05-0.05-0.06-0.11-0.06-0.19c-0.09-0.33-0.13-0.79-0.13-1.37c-0.04-0.34-0.061-0.86-0.061-1.56c0.04-0.67,0.04-1.15,0-1.44
		c0-0.12-0.06-0.47-0.159-1.03c-0.101-0.56-0.17-1.01-0.221-1.34c-0.08-0.46-0.12-0.81-0.12-1.06c0.08-0.04,0.19-0.06,0.311-0.06
		c0.54-0.05,1.27-0.07,2.189-0.07c0.58,0,1.37,0.02,2.37,0.07h1.681c0.42,0,1.39-0.06,2.93-0.16s3.46-0.22,5.77-0.34
		c2.311-0.13,4.41-0.23,6.28-0.31c3.78-0.17,6.74-0.3,8.86-0.38h2.99c0.3,0.04,0.5,0.06,0.63,0.06c0.04,0.05,0.06,0.09,0.06,0.13
		c0.08,0.25,0.12,0.62,0.12,1.12c0.04,0.33,0.07,0.77,0.07,1.31v1.06c0.04,0.42,0.18,1.44,0.43,3.06
		C543.71,167.23,543.77,168.04,543.69,168.54z"/>
	<path fill="#FFFFFF" stroke="#231F20" stroke-miterlimit="10" d="M543.69,168.54c-0.08,0.17-0.4,0.29-0.94,0.38
		c-0.83,0.16-2.08,0.18-3.74,0.06c-0.87-0.08-1.6-0.12-2.18-0.12c-1-0.09-1.73-0.15-2.19-0.19c-0.75-0.04-1.35-0.06-1.81-0.06
		c-0.7,0.04-1.25,0.16-1.62,0.37c-1.08,0.58-1.67,1.79-1.75,3.62c0,0.42,0.021,1,0.06,1.75v1.24c-0.329,8.49-0.22,15,0.32,19.53
		c0,0.05,0.05,0.42,0.15,1.13c0.109,0.71,0.18,1.31,0.22,1.81c0.08,0.75,0.15,1.33,0.19,1.75h-0.131
		c-0.409,0.08-0.93,0.16-1.56,0.25c-0.29,0-0.87,0.02-1.74,0.06c-0.71,0.04-1.189,0.08-1.439,0.12c-0.16,0.04-0.55,0.12-1.15,0.22
		c-0.61,0.1-1.07,0.2-1.41,0.28c-0.37,0.04-0.66,0.09-0.87,0.13c-0.08-0.54-0.119-1.34-0.119-2.38c-0.051-1.91-0.051-4.47,0-7.67
		c0.159-6.57,0.35-10.84,0.56-12.79c0.29-2.66,0.66-5.06,1.12-7.18v-0.06l0.189-0.37c0.25-0.67,0.2-1.25-0.13-1.75
		c-0.16-0.25-0.39-0.44-0.689-0.56c-0.12-0.04-0.24-0.07-0.37-0.07c-0.21-0.04-0.46-0.08-0.75-0.12c-0.41-0.04-0.99-0.08-1.74-0.13
		h-2.939c-0.37,0-0.69,0.13-0.931,0.38c-2.04,0.04-4.18,0.17-6.43,0.37c-0.09,0-0.19,0.02-0.311,0.07
		c-0.05-0.05-0.06-0.11-0.06-0.19c-0.09-0.33-0.13-0.79-0.13-1.37c-0.04-0.34-0.061-0.86-0.061-1.56c0.04-0.67,0.04-1.15,0-1.44
		c0-0.12-0.06-0.47-0.159-1.03c-0.101-0.56-0.17-1.01-0.221-1.34c-0.08-0.46-0.12-0.81-0.12-1.06c0.08-0.04,0.19-0.06,0.311-0.06
		c0.54-0.05,1.27-0.07,2.189-0.07c0.58,0,1.37,0.02,2.37,0.07h1.681c0.42,0,1.39-0.06,2.93-0.16s3.46-0.22,5.77-0.34
		c2.311-0.13,4.41-0.23,6.28-0.31c3.78-0.17,6.74-0.3,8.86-0.38h2.99c0.3,0.04,0.5,0.06,0.63,0.06c0.04,0.05,0.06,0.09,0.06,0.13
		c0.08,0.25,0.12,0.62,0.12,1.12c0.04,0.33,0.07,0.77,0.07,1.31v1.06c0.04,0.42,0.18,1.44,0.43,3.06
		C543.71,167.23,543.77,168.04,543.69,168.54z"/>
</g>
<g>
	<path stroke="#231F20" stroke-miterlimit="10" d="M217.11,229.76c-0.44-2.03-0.99-3.97-1.64-5.83c-0.66-1.98-1.24-3.29-1.73-3.95
		c-1.37-1.97-3.15-3.58-5.34-4.84c-2.19-1.26-4.51-2.11-6.98-2.55c-2.46-0.43-4.94-0.57-7.43-0.41c-2.49,0.17-4.8,0.63-6.94,1.4
		c-2.24,0.82-4.14,2.08-5.71,3.78c-1.56,1.69-2.65,3.58-3.28,5.66s-0.86,4.27-0.7,6.57c0.17,2.3,0.79,4.46,1.89,6.49
		c0.71,1.26,2.3,3.26,4.76,5.99c3.4,3.67,5.53,6.05,6.41,7.15c2.3,2.79,3.83,5.17,4.6,7.14c0.87,2.19,0.9,4,0.08,5.42
		c-0.22,0.33-0.38,0.55-0.49,0.66c-0.11,0-0.41-0.03-0.91-0.08c-1.64-0.22-3.06-1.18-4.27-2.88c-0.87-1.31-1.75-3.25-2.62-5.83
		c-0.22-0.6-0.47-1.94-0.74-4.02c-0.28-2.08-0.69-3.67-1.23-4.76c-0.66-1.32-1.48-2.08-2.47-2.3c-0.98-0.28-2.02-0.09-3.12,0.57
		c-0.11,0.06-0.41,0.25-0.9,0.58c-0.33,0.16-0.58,0.3-0.74,0.41c-0.11,0.05-0.47,0.19-1.07,0.41c-0.71,0.22-1.29,0.41-1.72,0.57
		l-1.73,0.82c-0.77,0.44-1.29,0.91-1.56,1.4c-0.38,0.77-0.52,1.72-0.41,2.87c0.05,0.22,0.1,0.46,0.12,0.7
		c0.03,0.25,0.06,0.45,0.09,0.62c0.02,0.16,0.04,0.33,0.04,0.49c0,3.67,0.31,6.89,0.94,9.65c0.63,2.76,2.01,5.21,4.15,7.35
		c2.68,2.74,6.46,4.68,11.33,5.83c4.76,1.15,9.44,1.31,14.04,0.49c5.09-0.87,8.93-2.79,11.5-5.75c3.07-3.45,3.97-7.82,2.71-13.14
		c-0.38-1.75-1-3.36-1.85-4.84s-1.89-2.78-3.12-3.9c-1.23-1.12-2.38-2.05-3.45-2.79c-1.06-0.74-2.37-1.55-3.9-2.43l-1.64-0.98
		l-1.73-0.99l-1.39-0.9c-0.71-0.44-1.21-0.74-1.48-0.9l-1.15-0.91c-0.55-0.38-0.93-0.71-1.15-0.98l-0.82-0.99
		c-0.33-0.38-0.59-0.76-0.78-1.15c-0.19-0.38-0.34-0.79-0.45-1.23c-0.6-2.08-0.63-3.68-0.08-4.8c0.54-1.12,1.39-1.82,2.54-2.1
		c1.15-0.27,2.34-0.07,3.58,0.62c1.23,0.68,2.14,1.82,2.75,3.41c0.16,0.44,0.28,0.94,0.37,1.52c0.08,0.57,0.12,1.08,0.12,1.52
		c0,0.43-0.01,1.06-0.04,1.88c-0.03,0.83-0.04,1.46-0.04,1.89c0,0.44,0.16,0.82,0.49,1.15c0.33,0.33,0.71,0.5,1.15,0.5h0.16
		c0.22,0.11,0.44,0.16,0.66,0.16c0.33,0,1.15,0.1,2.46,0.29c1.32,0.19,2.3,0.31,2.96,0.37c1.31,0.16,2.38,0.27,3.2,0.33
		c1.21,0.05,2.08-0.03,2.63-0.25c0.82-0.33,1.4-1.01,1.72-2.05c0.17-0.66,0.25-1.45,0.25-2.39
		C217.96,233.97,217.65,232.05,217.11,229.76z M214.64,236.9h-1.06c-0.77-0.05-1.78-0.16-3.04-0.33c-0.6-0.05-1.48-0.15-2.63-0.29
		c-1.15-0.13-1.92-0.23-2.3-0.28c0.11-3.01-0.08-5.2-0.57-6.57c-0.88-2.36-2.3-4.08-4.27-5.18c-1.98-1.09-3.97-1.39-6-0.9
		c-2.13,0.49-3.68,1.75-4.64,3.78c-0.96,2.02-1,4.46-0.12,7.31c0.22,0.71,0.5,1.41,0.86,2.09c0.36,0.69,0.86,1.36,1.52,2.01
		l1.48,1.48c0.44,0.44,1.12,0.96,2.05,1.56l1.89,1.23c0.38,0.28,1.14,0.73,2.26,1.36c1.12,0.63,1.79,1,2.01,1.11
		c3.01,1.75,5.41,3.5,7.19,5.25c1.77,1.76,2.99,3.94,3.65,6.57c0.93,4.27,0.25,7.72-2.05,10.35c-2.08,2.35-5.26,3.91-9.53,4.68
		c-4.16,0.71-8.4,0.55-12.73-0.49c-4.32-1.04-7.61-2.69-9.85-4.93c-1.7-1.7-2.81-3.71-3.33-6.04c-0.52-2.32-0.78-5.21-0.78-8.66
		c0-0.05-0.08-0.79-0.24-2.22c-0.06-0.38-0.06-0.63,0-0.74c0.1-0.11,0.21-0.19,0.32-0.24l1.32-0.66c0.38-0.11,0.9-0.3,1.56-0.57
		c0.66-0.22,1.09-0.39,1.31-0.5c0.33-0.11,0.71-0.3,1.15-0.57c0.49-0.33,0.77-0.49,0.82-0.49c0.33-0.22,0.55-0.33,0.66-0.33
		l0.33,0.65c0.38,0.72,0.68,1.95,0.9,3.7c0.33,2.3,0.63,3.89,0.91,4.76c0.98,2.79,1.99,4.96,3.03,6.49
		c1.81,2.52,3.97,3.97,6.49,4.35c1.2,0.17,2.11,0.11,2.71-0.16c0.66-0.28,1.31-0.96,1.97-2.06c1.42-2.29,1.48-5.06,0.17-8.29
		c-0.94-2.24-2.63-4.9-5.09-7.96c-0.28-0.33-2.44-2.77-6.49-7.31c-2.3-2.58-3.73-4.38-4.27-5.42c-1.86-3.29-2.19-6.75-0.99-10.39
		c1.2-3.64,3.53-6.09,6.98-7.35c2.68-0.88,5.45-1.33,8.3-1.36c2.84-0.02,5.62,0.54,8.33,1.69c2.71,1.15,4.8,2.73,6.28,4.76
		c0.28,0.49,0.69,1.53,1.23,3.12c0.61,1.81,1.13,3.64,1.56,5.5c0.5,2.14,0.77,3.86,0.83,5.18
		C214.73,236.13,214.7,236.57,214.64,236.9z"/>
	<path fill="#FFFFFF" stroke="#231F20" stroke-miterlimit="10" d="M214.73,235.59c0,0.54-0.03,0.98-0.09,1.31h-1.06
		c-0.77-0.05-1.78-0.16-3.04-0.33c-0.6-0.05-1.48-0.15-2.63-0.29c-1.15-0.13-1.92-0.23-2.3-0.28c0.11-3.01-0.08-5.2-0.57-6.57
		c-0.88-2.36-2.3-4.08-4.27-5.18c-1.98-1.09-3.97-1.39-6-0.9c-2.13,0.49-3.68,1.75-4.64,3.78c-0.96,2.02-1,4.46-0.12,7.31
		c0.22,0.71,0.5,1.41,0.86,2.09c0.36,0.69,0.86,1.36,1.52,2.01l1.48,1.48c0.44,0.44,1.12,0.96,2.05,1.56l1.89,1.23
		c0.38,0.28,1.14,0.73,2.26,1.36c1.12,0.63,1.79,1,2.01,1.11c3.01,1.75,5.41,3.5,7.19,5.25c1.77,1.76,2.99,3.94,3.65,6.57
		c0.93,4.27,0.25,7.72-2.05,10.35c-2.08,2.35-5.26,3.91-9.53,4.68c-4.16,0.71-8.4,0.55-12.73-0.49c-4.32-1.04-7.61-2.69-9.85-4.93
		c-1.7-1.7-2.81-3.71-3.33-6.04c-0.52-2.32-0.78-5.21-0.78-8.66c0-0.05-0.08-0.79-0.24-2.22c-0.06-0.38-0.06-0.63,0-0.74
		c0.1-0.11,0.21-0.19,0.32-0.24l1.32-0.66c0.38-0.11,0.9-0.3,1.56-0.57c0.66-0.22,1.09-0.39,1.31-0.5c0.33-0.11,0.71-0.3,1.15-0.57
		c0.49-0.33,0.77-0.49,0.82-0.49c0.33-0.22,0.55-0.33,0.66-0.33l0.33,0.65c0.38,0.72,0.68,1.95,0.9,3.7
		c0.33,2.3,0.63,3.89,0.91,4.76c0.98,2.79,1.99,4.96,3.03,6.49c1.81,2.52,3.97,3.97,6.49,4.35c1.2,0.17,2.11,0.11,2.71-0.16
		c0.66-0.28,1.31-0.96,1.97-2.06c1.42-2.29,1.48-5.06,0.17-8.29c-0.94-2.24-2.63-4.9-5.09-7.96c-0.28-0.33-2.44-2.77-6.49-7.31
		c-2.3-2.58-3.73-4.38-4.27-5.42c-1.86-3.29-2.19-6.75-0.99-10.39c1.2-3.64,3.53-6.09,6.98-7.35c2.68-0.88,5.45-1.33,8.3-1.36
		c2.84-0.02,5.62,0.54,8.33,1.69c2.71,1.15,4.8,2.73,6.28,4.76c0.28,0.49,0.69,1.53,1.23,3.12c0.61,1.81,1.13,3.64,1.56,5.5
		C214.4,232.55,214.67,234.27,214.73,235.59z"/>
	<path stroke="#231F20" stroke-miterlimit="10" d="M273.77,226.14c-0.38-2.02-0.57-3.23-0.57-3.61v-1.23c0-0.77-0.03-1.43-0.09-1.97
		c-0.05-0.82-0.16-1.54-0.32-2.14c-0.22-0.93-0.64-1.61-1.24-2.05c-0.22-0.17-0.49-0.27-0.82-0.33c-0.16-0.05-0.35-0.11-0.57-0.16
		c-0.33,0-0.77-0.03-1.32-0.09h-4.1c-2.85,0.11-6.76,0.28-11.74,0.5c-2.47,0.11-5.22,0.24-8.26,0.41c-3.04,0.16-5.57,0.31-7.59,0.45
		c-2.03,0.14-3.32,0.2-3.86,0.2h-1.89c-1.37-0.05-2.44-0.08-3.21-0.08c-1.36,0-2.46,0.03-3.28,0.08c-0.55,0.06-0.99,0.14-1.31,0.25
		c-0.66,0.16-1.15,0.41-1.48,0.74c-0.28,0.33-0.47,0.77-0.58,1.31c-0.05,0.28-0.05,0.61,0,0.99c0,0.49,0.06,1.15,0.17,1.97
		c0.05,0.44,0.16,1.07,0.33,1.89c0.1,0.6,0.16,0.96,0.16,1.07c0.05,0.22,0.05,0.71,0,1.47c0,1.04,0.03,1.78,0.08,2.22
		c0,0.99,0.08,1.78,0.25,2.38c0.16,0.99,0.49,1.76,0.98,2.3c0.55,0.55,1.29,0.77,2.22,0.66c0.11,0,0.3-0.05,0.58-0.17h0.24
		c3.61-0.32,7.06-0.49,10.35-0.49c0.44,0,0.82-0.16,1.15-0.49h1.64c0.55,0.05,1.01,0.08,1.4,0.08c-0.61,2.9-1.1,6.16-1.48,9.77
		c-0.28,2.63-0.52,8.33-0.74,17.08c-0.06,4.27-0.06,7.7,0,10.27c0,1.48,0.05,2.63,0.16,3.45c0.06,0.55,0.11,0.96,0.17,1.23
		c0.05,0.22,0.11,0.41,0.16,0.58c0.22,0.38,0.48,0.68,0.78,0.9c0.3,0.22,0.7,0.3,1.19,0.24h0.82c0.5-0.05,1.13-0.16,1.89-0.32
		c0.44-0.06,1.06-0.17,1.85-0.33c0.79-0.17,1.27-0.25,1.44-0.25c0.27-0.05,0.79-0.11,1.56-0.16c1.15-0.06,1.94-0.08,2.38-0.08
		c1.04-0.11,1.86-0.25,2.46-0.42c1.04-0.21,1.81-0.57,2.3-1.06c0.33-0.28,0.5-0.63,0.5-1.07c0.05-0.11,0.08-0.25,0.08-0.41
		c0-0.27-0.03-0.58-0.08-0.9c-0.06-0.61-0.14-1.4-0.25-2.39c-0.11-0.71-0.22-1.53-0.33-2.46l-0.16-1.39
		c-0.72-5.81-0.85-14.21-0.41-25.22c0-0.32-0.03-0.98-0.09-1.97v-1.97c0.06-1.2,0.22-1.86,0.5-1.97l0.82-0.16
		c0.49,0,1.17,0.03,2.05,0.08c0.55,0,1.45,0.05,2.71,0.16l2.96,0.25c2.46,0.16,4.38,0.11,5.75-0.16c2.35-0.39,3.66-1.45,3.94-3.21
		C274.13,229.37,274.04,227.95,273.77,226.14z M270.73,229.92c-0.11,0.22-0.52,0.38-1.23,0.49c-1.1,0.22-2.74,0.25-4.93,0.08
		c-1.15-0.1-2.11-0.16-2.87-0.16c-1.32-0.11-2.27-0.19-2.88-0.25c-0.98-0.05-1.78-0.08-2.38-0.08c-0.93,0.06-1.64,0.22-2.13,0.49
		c-1.43,0.77-2.19,2.36-2.3,4.77c0,0.55,0.03,1.31,0.08,2.3v1.64c-0.44,11.17-0.3,19.74,0.41,25.7c0,0.06,0.07,0.55,0.21,1.48
		c0.13,0.93,0.23,1.73,0.29,2.38c0.1,0.99,0.19,1.76,0.24,2.3h-0.16c-0.55,0.11-1.24,0.22-2.06,0.33c-0.38,0-1.15,0.03-2.3,0.08
		c-0.93,0.06-1.56,0.11-1.88,0.17c-0.22,0.05-0.73,0.15-1.52,0.28c-0.8,0.14-1.41,0.26-1.85,0.37c-0.49,0.06-0.88,0.11-1.15,0.17
		c-0.11-0.71-0.17-1.75-0.17-3.12c-0.05-2.52-0.05-5.89,0-10.1c0.22-8.65,0.47-14.26,0.74-16.84c0.39-3.5,0.88-6.65,1.48-9.44v-0.08
		l0.25-0.5c0.33-0.87,0.27-1.64-0.17-2.3c-0.22-0.32-0.52-0.57-0.9-0.73c-0.16-0.06-0.33-0.09-0.49-0.09
		c-0.28-0.05-0.61-0.11-0.99-0.16c-0.55-0.05-1.31-0.11-2.3-0.16h-3.86c-0.49,0-0.9,0.16-1.23,0.49c-2.68,0.05-5.5,0.22-8.46,0.49
		c-0.11,0-0.24,0.03-0.41,0.08c-0.05-0.05-0.08-0.13-0.08-0.24c-0.11-0.44-0.16-1.04-0.16-1.81c-0.06-0.44-0.09-1.12-0.09-2.05
		c0.06-0.88,0.06-1.51,0-1.89c0-0.17-0.07-0.62-0.2-1.36c-0.14-0.74-0.23-1.32-0.29-1.76c-0.11-0.6-0.16-1.07-0.16-1.4
		c0.11-0.05,0.24-0.08,0.41-0.08c0.71-0.06,1.67-0.08,2.87-0.08c0.77,0,1.81,0.02,3.12,0.08h2.22c0.55,0,1.83-0.07,3.86-0.21
		c2.02-0.13,4.56-0.28,7.59-0.45c3.04-0.16,5.79-0.3,8.26-0.41c4.98-0.22,8.87-0.38,11.66-0.49h3.94c0.38,0.05,0.66,0.08,0.82,0.08
		c0.06,0.06,0.08,0.11,0.08,0.17c0.11,0.32,0.17,0.82,0.17,1.47c0.05,0.44,0.08,1.02,0.08,1.73v1.39c0.05,0.55,0.25,1.89,0.58,4.03
		C270.76,228.2,270.84,229.26,270.73,229.92z"/>
	<path fill="#FFFFFF" stroke="#231F20" stroke-miterlimit="10" d="M270.73,229.92c-0.11,0.22-0.52,0.38-1.23,0.49
		c-1.1,0.22-2.74,0.25-4.93,0.08c-1.15-0.1-2.11-0.16-2.87-0.16c-1.32-0.11-2.27-0.19-2.88-0.25c-0.98-0.05-1.78-0.08-2.38-0.08
		c-0.93,0.06-1.64,0.22-2.13,0.49c-1.43,0.77-2.19,2.36-2.3,4.77c0,0.55,0.03,1.31,0.08,2.3v1.64c-0.44,11.17-0.3,19.74,0.41,25.7
		c0,0.06,0.07,0.55,0.21,1.48c0.13,0.93,0.23,1.73,0.29,2.38c0.1,0.99,0.19,1.76,0.24,2.3h-0.16c-0.55,0.11-1.24,0.22-2.06,0.33
		c-0.38,0-1.15,0.03-2.3,0.08c-0.93,0.06-1.56,0.11-1.88,0.17c-0.22,0.05-0.73,0.15-1.52,0.28c-0.8,0.14-1.41,0.26-1.85,0.37
		c-0.49,0.06-0.88,0.11-1.15,0.17c-0.11-0.71-0.17-1.75-0.17-3.12c-0.05-2.52-0.05-5.89,0-10.1c0.22-8.65,0.47-14.26,0.74-16.84
		c0.39-3.5,0.88-6.65,1.48-9.44v-0.08l0.25-0.5c0.33-0.87,0.27-1.64-0.17-2.3c-0.22-0.32-0.52-0.57-0.9-0.73
		c-0.16-0.06-0.33-0.09-0.49-0.09c-0.28-0.05-0.61-0.11-0.99-0.16c-0.55-0.05-1.31-0.11-2.3-0.16h-3.86c-0.49,0-0.9,0.16-1.23,0.49
		c-2.68,0.05-5.5,0.22-8.46,0.49c-0.11,0-0.24,0.03-0.41,0.08c-0.05-0.05-0.08-0.13-0.08-0.24c-0.11-0.44-0.16-1.04-0.16-1.81
		c-0.06-0.44-0.09-1.12-0.09-2.05c0.06-0.88,0.06-1.51,0-1.89c0-0.17-0.07-0.62-0.2-1.36c-0.14-0.74-0.23-1.32-0.29-1.76
		c-0.11-0.6-0.16-1.07-0.16-1.4c0.11-0.05,0.24-0.08,0.41-0.08c0.71-0.06,1.67-0.08,2.87-0.08c0.77,0,1.81,0.02,3.12,0.08h2.22
		c0.55,0,1.83-0.07,3.86-0.21c2.02-0.13,4.56-0.28,7.59-0.45c3.04-0.16,5.79-0.3,8.26-0.41c4.98-0.22,8.87-0.38,11.66-0.49h3.94
		c0.38,0.05,0.66,0.08,0.82,0.08c0.06,0.06,0.08,0.11,0.08,0.17c0.11,0.32,0.17,0.82,0.17,1.47c0.05,0.44,0.08,1.02,0.08,1.73v1.39
		c0.05,0.55,0.25,1.89,0.58,4.03C270.76,228.2,270.84,229.26,270.73,229.92z"/>
	<path stroke="#231F20" stroke-miterlimit="10" d="M331.83,238.13c0-0.33,0.01-0.98,0.04-1.97c0.03-0.98,0.07-2.23,0.12-3.74
		c0.06-1.5,0.09-2.83,0.09-3.98c0.05-2.46,0.08-4.38,0.08-5.75c-0.061-0.87-0.11-1.58-0.17-2.13c0-0.33-0.03-0.58-0.08-0.74
		c-0.11-0.49-0.271-0.85-0.49-1.07c-0.33-0.38-0.85-0.68-1.56-0.9c-0.44-0.17-1.021-0.33-1.73-0.49c-1.26-0.28-2.79-0.52-4.59-0.74
		c-1.7-0.22-3.18-0.33-4.44-0.33c-0.71-0.06-1.29-0.06-1.72,0c-0.28,0-0.52,0.03-0.74,0.08c-0.39,0.11-0.72,0.28-0.989,0.49
		c-0.271,0.22-0.46,0.55-0.57,0.99c-0.061,0.16-0.11,0.38-0.17,0.66v1.31c0.06,0.77,0.17,1.86,0.33,3.28
		c0.05,0.66,0.14,1.4,0.25,2.22c0.109,0.82,0.2,1.51,0.279,2.05c0.091,0.55,0.131,0.94,0.131,1.15
		c0.93,12.16,0.189,22.34-2.221,30.55c-0.06,0.22-0.16,0.63-0.33,1.24c-0.159,0.6-0.3,1.06-0.409,1.39
		c-0.271,0.88-0.521,1.42-0.74,1.64c-1.26,1.15-3.38,1.74-6.36,1.77c-2.99,0.03-5-0.53-6.04-1.69c-0.87-0.93-1.61-2.98-2.21-6.15
		c-0.5-2.91-0.85-6.55-1.07-10.93c-0.28-7.28-0.14-13.9,0.41-19.87c0-0.05,0.03-0.24,0.08-0.57c0.05-0.33,0.14-0.8,0.25-1.4
		c0.05-0.49,0.11-1.07,0.16-1.72c0.11-1.04,0.22-1.86,0.33-2.47c0-0.38,0.03-0.68,0.08-0.9v-0.66l-0.16-0.65
		c-0.44-0.77-1.35-1.32-2.71-1.65c-0.82-0.22-1.89-0.35-3.21-0.41c-0.65-0.05-2.38-0.08-5.17-0.08h-0.16
		c-0.28-0.44-0.66-0.68-1.15-0.74c-0.5-0.05-0.92,0.06-1.28,0.33c-0.35,0.27-0.56,0.63-0.61,1.07c-1.1,8.59-1.64,17.73-1.64,27.43
		c0,0.65-0.06,2.27-0.17,4.84c-0.05,2.24-0.05,4.05,0,5.42c0.17,4.38,1.04,7.88,2.63,10.51c2.68,4.33,6.16,7.47,10.43,9.44
		c2.3,1.1,5.01,1.78,8.13,2.06c3.12,0.33,6.181,0.24,9.2-0.25c7.17-1.15,12.29-3.83,15.35-8.05c1.261-1.75,2.25-3.6,2.96-5.54
		c0.711-1.94,1.19-4.06,1.44-6.36c0.24-2.3,0.38-4.27,0.41-5.92c0.02-1.64-0.021-3.79-0.13-6.44
		C331.88,241.1,331.83,239.23,331.83,238.13z M328.79,228.36c0,1.15-0.03,2.48-0.08,3.98c-0.06,1.51-0.1,2.77-0.12,3.78
		c-0.03,1.01-0.05,1.68-0.05,2.01c0,1.32,0.05,3.29,0.13,5.92c0.08,2.62,0.12,4.69,0.12,6.2c0,1.5-0.09,3.29-0.29,5.37
		c-0.19,2.09-0.61,3.97-1.27,5.67c-0.66,1.7-1.511,3.29-2.551,4.76c-2.51,3.56-6.92,5.83-13.22,6.82
		c-6.02,0.93-11.19,0.41-15.52-1.56c-3.61-1.7-6.59-4.46-8.95-8.3c-1.31-2.08-2.02-5.03-2.13-8.86c-0.06-1.26-0.06-2.96,0-5.1
		c0.11-2.62,0.16-4.29,0.16-5c0-8.82,0.47-17.09,1.4-24.81h0.16c2.74,0,4.41,0.03,5.01,0.09c1.09,0.05,1.94,0.16,2.55,0.32
		c0.11,0,0.21,0.03,0.32,0.09v0.16c-0.05,0.6-0.16,1.43-0.32,2.46c-0.06,0.5-0.13,1.07-0.21,1.73c-0.08,0.66-0.15,1.15-0.2,1.48
		l-0.09,0.57c-0.54,6.13-0.68,12.9-0.41,20.29c0.22,4.43,0.6,8.24,1.15,11.41c0.66,3.83,1.65,6.46,2.96,7.88
		c1.75,1.87,4.601,2.77,8.54,2.71c3.83-0.05,6.65-0.93,8.46-2.62c0.71-0.66,1.28-1.7,1.72-3.12c0.11-0.33,0.25-0.81,0.41-1.44
		c0.17-0.63,0.28-1.03,0.33-1.19c2.521-8.65,3.311-19.27,2.38-31.86c0-0.17-0.04-0.54-0.12-1.11c-0.079-0.58-0.18-1.29-0.29-2.14
		c-0.109-0.85-0.189-1.6-0.239-2.26c-0.17-1.31-0.28-2.32-0.33-3.04v-0.08h0.74c1.199,0,2.619,0.11,4.27,0.33
		c1.64,0.17,3.04,0.39,4.18,0.66c0.551,0.11,1.021,0.22,1.4,0.33c0,0.44,0.03,1.04,0.08,1.8
		C328.87,224.06,328.84,225.95,328.79,228.36z"/>
	<path fill="#FFFFFF" stroke="#231F20" stroke-miterlimit="10" d="M328.59,236.12c-0.03,1.01-0.05,1.68-0.05,2.01
		c0,1.32,0.05,3.29,0.13,5.92c0.08,2.62,0.12,4.69,0.12,6.2c0,1.5-0.09,3.29-0.29,5.37c-0.19,2.09-0.61,3.97-1.27,5.67
		c-0.66,1.7-1.511,3.29-2.551,4.76c-2.51,3.56-6.92,5.83-13.22,6.82c-6.02,0.93-11.19,0.41-15.52-1.56c-3.61-1.7-6.59-4.46-8.95-8.3
		c-1.31-2.08-2.02-5.03-2.13-8.86c-0.06-1.26-0.06-2.96,0-5.1c0.11-2.62,0.16-4.29,0.16-5c0-8.82,0.47-17.09,1.4-24.81h0.16
		c2.74,0,4.41,0.03,5.01,0.09c1.09,0.05,1.94,0.16,2.55,0.32c0.11,0,0.21,0.03,0.32,0.09v0.16c-0.05,0.6-0.16,1.43-0.32,2.46
		c-0.06,0.5-0.13,1.07-0.21,1.73c-0.08,0.66-0.15,1.15-0.2,1.48l-0.09,0.57c-0.54,6.13-0.68,12.9-0.41,20.29
		c0.22,4.43,0.6,8.24,1.15,11.41c0.66,3.83,1.65,6.46,2.96,7.88c1.75,1.87,4.601,2.77,8.54,2.71c3.83-0.05,6.65-0.93,8.46-2.62
		c0.71-0.66,1.28-1.7,1.72-3.12c0.11-0.33,0.25-0.81,0.41-1.44c0.17-0.63,0.28-1.03,0.33-1.19c2.521-8.65,3.311-19.27,2.38-31.86
		c0-0.17-0.04-0.54-0.12-1.11c-0.079-0.58-0.18-1.29-0.29-2.14c-0.109-0.85-0.189-1.6-0.239-2.26c-0.17-1.31-0.28-2.32-0.33-3.04
		v-0.08h0.74c1.199,0,2.619,0.11,4.27,0.33c1.64,0.17,3.04,0.39,4.18,0.66c0.551,0.11,1.021,0.22,1.4,0.33
		c0,0.44,0.03,1.04,0.08,1.8c0,1.37-0.03,3.26-0.08,5.67c0,1.15-0.03,2.48-0.08,3.98C328.65,233.85,328.61,235.11,328.59,236.12z"/>
	<path stroke="#231F20" stroke-miterlimit="10" d="M371.25,240.84c-0.55-3.88-2.63-6.68-6.24-8.37c-2.58-1.15-5.89-1.73-9.939-1.73
		c-0.44,0-0.82,0.17-1.15,0.49c-0.33,0.33-0.49,0.72-0.49,1.15c0,0.55,0.21,0.99,0.65,1.32c0,10.46,0.28,18.45,0.82,23.98
		c0.06,0.44,0.26,0.8,0.619,1.11c0.36,0.3,0.75,0.42,1.19,0.36c0.22,0,0.41-0.05,0.58-0.16c0.65,0.49,1.31,0.52,1.97,0.08
		c0.16-0.16,0.91-0.68,2.25-1.56c1.351-0.87,2.29-1.52,2.84-1.93c0.551-0.41,1.32-1.04,2.341-1.89c1.01-0.84,1.829-1.69,2.46-2.54
		c0.63-0.85,1.159-1.77,1.6-2.75C371.52,246.75,371.68,244.24,371.25,240.84z M367.8,247.08l-0.819,1.48
		c-0.33,0.49-0.74,0.99-1.24,1.48l-1.23,1.15c-0.27,0.33-0.79,0.77-1.56,1.31c-0.76,0.55-1.26,0.92-1.48,1.11
		c-0.22,0.19-0.8,0.6-1.76,1.23c-0.96,0.63-1.52,0.98-1.68,1.03c-0.44-5.04-0.66-12.29-0.66-21.76c2.52,0.16,4.6,0.63,6.24,1.39
		c2.52,1.15,3.97,3.1,4.35,5.83C368.34,244.07,368.29,245.99,367.8,247.08z M371.25,240.84c-0.55-3.88-2.63-6.68-6.24-8.37
		c-2.58-1.15-5.89-1.73-9.939-1.73c-0.44,0-0.82,0.17-1.15,0.49c-0.33,0.33-0.49,0.72-0.49,1.15c0,0.55,0.21,0.99,0.65,1.32
		c0,10.46,0.28,18.45,0.82,23.98c0.06,0.44,0.26,0.8,0.619,1.11c0.36,0.3,0.75,0.42,1.19,0.36c0.22,0,0.41-0.05,0.58-0.16
		c0.65,0.49,1.31,0.52,1.97,0.08c0.16-0.16,0.91-0.68,2.25-1.56c1.351-0.87,2.29-1.52,2.84-1.93c0.551-0.41,1.32-1.04,2.341-1.89
		c1.01-0.84,1.829-1.69,2.46-2.54c0.63-0.85,1.159-1.77,1.6-2.75C371.52,246.75,371.68,244.24,371.25,240.84z M367.8,247.08
		l-0.819,1.48c-0.33,0.49-0.74,0.99-1.24,1.48l-1.23,1.15c-0.27,0.33-0.79,0.77-1.56,1.31c-0.76,0.55-1.26,0.92-1.48,1.11
		c-0.22,0.19-0.8,0.6-1.76,1.23c-0.96,0.63-1.52,0.98-1.68,1.03c-0.44-5.04-0.66-12.29-0.66-21.76c2.52,0.16,4.6,0.63,6.24,1.39
		c2.52,1.15,3.97,3.1,4.35,5.83C368.34,244.07,368.29,245.99,367.8,247.08z M387.22,238.95c-0.41-3.88-1.68-7.58-3.819-11.08
		c-2.141-3.51-5.011-6.27-8.62-8.3c-1.48-0.76-3.11-1.43-4.891-2.01c-1.779-0.57-3.37-1-4.76-1.27c-1.399-0.28-3.2-0.48-5.42-0.62
		c-2.22-0.13-3.85-0.22-4.89-0.24c-1.04-0.03-2.801-0.03-5.29,0c-2.5,0.02-4.04,0.04-4.641,0.04c-0.609,0-1.069,0.24-1.399,0.74
		c-0.771,0.22-1.15,0.73-1.15,1.56c0,3.94,0.18,9.55,0.53,16.83c0.36,7.28,0.56,12.48,0.62,15.6c0,1.59-0.03,4.12-0.08,7.6
		c-0.061,3.48-0.03,6.58,0.08,9.32c0.05,2.63,0.25,5.23,0.569,7.8c0.061,0.44,0.28,0.79,0.66,1.07c0.38,0.27,0.79,0.38,1.23,0.33
		c0.5-0.11,0.88-0.39,1.149-0.82c0.33,0.21,0.69,0.3,1.07,0.24c1.1-0.22,2.96-0.38,5.58-0.49c2.58-0.16,4.57-0.38,6-0.66
		c3.61-0.82,7.47-2.51,11.58-5.09c4.1-2.57,7.34-5.28,9.689-8.13c2.461-3.06,4.211-6.59,5.25-10.59
		C387.31,246.78,387.63,242.84,387.22,238.95z M383.93,246.47c-0.68,4.84-2.529,9.1-5.54,12.77c-2.08,2.63-5.01,5.12-8.79,7.47
		c-3.77,2.35-7.279,3.89-10.51,4.6c-1.26,0.33-3.09,0.55-5.5,0.66c-2.85,0.11-4.82,0.27-5.91,0.49c-0.22,0.05-0.41,0.14-0.58,0.25
		c-0.27-2.19-0.42-4.52-0.449-6.99c-0.03-2.46,0-5.22,0.08-8.29c0.09-3.07,0.1-5.47,0.039-7.23c-0.05-3.17-0.26-8.28-0.609-15.31
		c-0.36-7.04-0.54-12.41-0.54-16.14c0.5,0,1.84-0.01,4.03-0.04c2.189-0.03,3.64-0.03,4.35,0c0.71,0.03,2,0.07,3.86,0.12
		c1.859,0.06,3.26,0.17,4.189,0.33l3.69,0.66c1.479,0.27,2.81,0.63,3.99,1.07c1.17,0.44,2.31,0.98,3.399,1.64
		c4.11,2.24,7.11,5.58,9,10.02C384.02,236.98,384.62,241.62,383.93,246.47z M365.01,232.47c-2.58-1.15-5.89-1.73-9.939-1.73
		c-0.44,0-0.82,0.17-1.15,0.49c-0.33,0.33-0.49,0.72-0.49,1.15c0,0.55,0.21,0.99,0.65,1.32c0,10.46,0.28,18.45,0.82,23.98
		c0.06,0.44,0.26,0.8,0.619,1.11c0.36,0.3,0.75,0.42,1.19,0.36c0.22,0,0.41-0.05,0.58-0.16c0.65,0.49,1.31,0.52,1.97,0.08
		c0.16-0.16,0.91-0.68,2.25-1.56c1.351-0.87,2.29-1.52,2.84-1.93c0.551-0.41,1.32-1.04,2.341-1.89c1.01-0.84,1.829-1.69,2.46-2.54
		c0.63-0.85,1.159-1.77,1.6-2.75c0.77-1.65,0.93-4.16,0.5-7.56C370.7,236.96,368.62,234.16,365.01,232.47z M367.8,247.08
		l-0.819,1.48c-0.33,0.49-0.74,0.99-1.24,1.48l-1.23,1.15c-0.27,0.33-0.79,0.77-1.56,1.31c-0.76,0.55-1.26,0.92-1.48,1.11
		c-0.22,0.19-0.8,0.6-1.76,1.23c-0.96,0.63-1.52,0.98-1.68,1.03c-0.44-5.04-0.66-12.29-0.66-21.76c2.52,0.16,4.6,0.63,6.24,1.39
		c2.52,1.15,3.97,3.1,4.35,5.83C368.34,244.07,368.29,245.99,367.8,247.08z"/>
	<path fill="#FFFFFF" stroke="#231F20" stroke-miterlimit="10" d="M382.13,232.55c-1.89-4.44-4.89-7.78-9-10.02
		c-1.09-0.66-2.229-1.2-3.399-1.64c-1.181-0.44-2.511-0.8-3.99-1.07l-3.69-0.66c-0.93-0.16-2.33-0.27-4.189-0.33
		c-1.86-0.05-3.15-0.09-3.86-0.12c-0.71-0.03-2.16-0.03-4.35,0c-2.19,0.03-3.53,0.04-4.03,0.04c0,3.73,0.18,9.1,0.54,16.14
		c0.35,7.03,0.56,12.14,0.609,15.31c0.061,1.76,0.051,4.16-0.039,7.23c-0.08,3.07-0.11,5.83-0.08,8.29
		c0.029,2.47,0.18,4.8,0.449,6.99c0.17-0.11,0.36-0.2,0.58-0.25c1.09-0.22,3.061-0.38,5.91-0.49c2.41-0.11,4.24-0.33,5.5-0.66
		c3.23-0.71,6.74-2.25,10.51-4.6c3.78-2.35,6.71-4.84,8.79-7.47c3.011-3.67,4.86-7.93,5.54-12.77
		C384.62,241.62,384.02,236.98,382.13,232.55z M370.75,248.4c-0.44,0.98-0.97,1.9-1.6,2.75c-0.631,0.85-1.45,1.7-2.46,2.54
		c-1.021,0.85-1.79,1.48-2.341,1.89c-0.55,0.41-1.489,1.06-2.84,1.93c-1.34,0.88-2.09,1.4-2.25,1.56
		c-0.66,0.44-1.319,0.41-1.97-0.08c-0.17,0.11-0.36,0.16-0.58,0.16c-0.44,0.06-0.83-0.06-1.19-0.36
		c-0.359-0.31-0.56-0.67-0.619-1.11c-0.54-5.53-0.82-13.52-0.82-23.98c-0.44-0.33-0.65-0.77-0.65-1.32c0-0.43,0.16-0.82,0.49-1.15
		c0.33-0.32,0.71-0.49,1.15-0.49c4.05,0,7.359,0.58,9.939,1.73c3.61,1.69,5.69,4.49,6.24,8.37
		C371.68,244.24,371.52,246.75,370.75,248.4z"/>
	<path stroke="#231F20" stroke-miterlimit="10" d="M429.96,221.3l-0.17-1.32c-0.1-0.49-0.19-0.93-0.24-1.31s-0.08-0.71-0.08-0.99
		c0-0.05,0.011-0.12,0.04-0.2c0.03-0.08,0.04-0.26,0.04-0.54c0.05-0.98-0.24-1.72-0.899-2.21c-0.33-0.22-0.771-0.38-1.32-0.5
		c-0.33,0-0.74-0.02-1.23-0.08c-0.93-0.05-2.189-0.08-3.779-0.08c-2.9-0.05-6.54,0-10.92,0.16c-10.131,0.28-16.2,0.61-18.23,0.99
		c-0.439,0.11-0.78,0.36-1.03,0.74c-0.239,0.38-0.34,0.79-0.279,1.23c0.159,0.77,0.63,1.21,1.39,1.32v0.08
		c-0.11,2.84-0.13,4.62-0.08,5.34c0.11,1.69,0.66,2.82,1.64,3.36c0.721,0.39,1.891,0.47,3.54,0.25c2.511-0.27,4.21-0.44,5.091-0.49
		c0.1,0,0.3-0.03,0.569-0.09c0.061,0.44,0.11,1.02,0.16,1.73v3.36c0.22,1.54,0.33,6.11,0.33,13.72c-0.05,7.45-0.05,11.99,0,13.63
		c0.06,2.08,0.17,4.08,0.33,6c0,0.22,0.09,0.52,0.25,0.9c-0.28,0.11-0.63,0.16-1.07,0.16c-0.38,0.06-1.45,0-3.2-0.16
		c-1.64-0.11-2.909,0-3.779,0.33c-1.53,0.55-2.351,1.75-2.46,3.61c0,0.22,0.02,0.52,0.08,0.9l0.25,0.99
		c0.22,0.71,0.46,1.56,0.729,2.55c0.28,0.98,0.521,1.8,0.74,2.46c0.11,0.38,0.189,0.68,0.25,0.9c0.05,0.17,0.11,0.29,0.16,0.37
		c0.06,0.08,0.109,0.18,0.17,0.29l0.08,0.08c0.05,0.11,0.149,0.22,0.29,0.33c0.13,0.11,0.29,0.19,0.449,0.25
		c0.221,0.05,0.521,0.08,0.9,0.08h0.74c0.5-0.06,1.149-0.14,1.97-0.25c1.15-0.16,3.07-0.46,5.75-0.9c5.75-0.88,9.03-1.34,9.86-1.4
		c0.05,0,0.819,0.03,2.3,0.08c1.47,0.06,2.65,0.09,3.53,0.09c1.47-0.11,2.68-0.33,3.609-0.66c1.48-0.66,2.271-1.7,2.38-3.12
		c0.051-0.93-0.159-2.08-0.649-3.45c-0.45-1.31-0.69-2.16-0.74-2.54c0-0.06,0.1-0.66,0.32-1.81c0.38-1.7,0.029-2.9-1.061-3.61
		c-0.77-0.5-1.89-0.58-3.37-0.25c-0.88,0.16-1.97,0.52-3.279,1.07l-2.141,0.82l-0.08-1.81c-0.109-2.63-0.22-5.67-0.329-9.12
		c-0.271-9.08-0.41-15.4-0.41-18.96c0-0.17-0.03-0.65-0.08-1.44c-0.061-0.79-0.09-1.44-0.09-1.93c0-0.71,0.029-1.29,0.09-1.73v-0.24
		h0.16c0.109,0,0.25-0.02,0.409-0.04c0.171-0.03,0.36-0.04,0.58-0.04c0.271-0.06,0.98-0.03,2.13,0.08
		c1.53,0.11,2.681,0.16,3.45,0.16c1.48,0.06,2.65-0.05,3.53-0.33c1.53-0.49,2.47-1.39,2.79-2.71
		C430.21,224.47,430.18,223.1,429.96,221.3z M426.76,224.75c-0.06,0.05-0.189,0.11-0.41,0.16c-0.6,0.22-1.479,0.3-2.63,0.25
		c-0.66,0-1.729-0.06-3.2-0.17c-1.43-0.11-2.329-0.13-2.71-0.08c-1.59,0.16-2.63,0.49-3.119,0.99c-0.551,0.44-0.881,1.17-0.99,2.21
		c-0.05,0.61-0.08,1.35-0.08,2.22c0,0.55,0.03,1.23,0.08,2.05c0.06,0.72,0.08,1.13,0.08,1.24c0,3.56,0.14,9.9,0.41,19.05
		c0.109,3.5,0.22,6.57,0.329,9.2c0.061,1.31,0.08,2.27,0.08,2.87c0.061,0.33,0.091,0.6,0.091,0.82v0.41c0,0.06,0.02,0.11,0.079,0.16
		v0.17l0.08,0.16c0.061,0.06,0.12,0.15,0.21,0.29c0.08,0.14,0.2,0.26,0.37,0.37c0.271,0.17,0.601,0.25,0.98,0.25
		c0.109,0,0.229-0.02,0.37-0.04c0.14-0.03,0.31-0.07,0.529-0.13c0.221-0.05,0.551-0.19,0.99-0.41c1.811-0.71,2.76-1.07,2.87-1.07
		c1.15-0.43,2.09-0.74,2.8-0.9h0.57c-0.33,1.48-0.47,2.47-0.41,2.96c0.11,0.6,0.41,1.64,0.9,3.12c0.39,0.93,0.55,1.64,0.5,2.13
		l-0.41,0.33c-0.5,0.22-1.32,0.36-2.47,0.41c-0.71,0-1.78-0.02-3.2-0.08c-1.431-0.05-2.3-0.08-2.63-0.08
		c-0.38,0-3.801,0.49-10.261,1.48l-5.59,0.82c-0.649,0.11-1.149,0.16-1.47,0.16c-0.23-0.6-0.47-1.37-0.74-2.3
		c-0.279-0.93-0.5-1.75-0.66-2.46c-0.109-0.38-0.199-0.69-0.25-0.91v-0.08c0.051-0.32,0.17-0.54,0.33-0.65
		c0.44-0.11,1.23-0.14,2.38-0.09c1.921,0.17,3.15,0.22,3.7,0.17c1.7-0.06,2.95-0.63,3.78-1.73c0.49-0.65,0.57-1.45,0.24-2.38
		c-0.05-0.27-0.11-0.44-0.16-0.49v-0.08c-0.17-1.97-0.28-3.86-0.33-5.67v-13.8c0-5.63-0.11-10.2-0.33-13.71v-3.28
		c-0.05-0.88-0.11-1.56-0.16-2.06c-0.12-0.93-0.359-1.61-0.74-2.05c-0.5-0.6-1.229-0.87-2.22-0.82h-0.66
		c-0.22,0.05-0.35,0.08-0.41,0.08c-0.979,0.06-2.739,0.22-5.25,0.49c-0.72,0.11-1.21,0.17-1.479,0.17
		c-0.06-0.17-0.08-0.38-0.08-0.66c-0.06-0.6-0.03-2.27,0.08-5.01v-0.57c3.72-0.28,8.729-0.5,15.02-0.66
		c4.28-0.16,7.86-0.22,10.761-0.16c1.54,0,2.739,0.02,3.62,0.08h0.239v0.41c0,0.11,0.17,1.39,0.5,3.86
		C426.9,223.19,426.92,224.2,426.76,224.75z"/>
	<path fill="#FFFFFF" stroke="#231F20" stroke-miterlimit="10" d="M426.76,224.75c-0.06,0.05-0.189,0.11-0.41,0.16
		c-0.6,0.22-1.479,0.3-2.63,0.25c-0.66,0-1.729-0.06-3.2-0.17c-1.43-0.11-2.329-0.13-2.71-0.08c-1.59,0.16-2.63,0.49-3.119,0.99
		c-0.551,0.44-0.881,1.17-0.99,2.21c-0.05,0.61-0.08,1.35-0.08,2.22c0,0.55,0.03,1.23,0.08,2.05c0.06,0.72,0.08,1.13,0.08,1.24
		c0,3.56,0.14,9.9,0.41,19.05c0.109,3.5,0.22,6.57,0.329,9.2c0.061,1.31,0.08,2.27,0.08,2.87c0.061,0.33,0.091,0.6,0.091,0.82v0.41
		c0,0.06,0.02,0.11,0.079,0.16v0.17l0.08,0.16c0.061,0.06,0.12,0.15,0.21,0.29c0.08,0.14,0.2,0.26,0.37,0.37
		c0.271,0.17,0.601,0.25,0.98,0.25c0.109,0,0.229-0.02,0.37-0.04c0.14-0.03,0.31-0.07,0.529-0.13c0.221-0.05,0.551-0.19,0.99-0.41
		c1.811-0.71,2.76-1.07,2.87-1.07c1.15-0.43,2.09-0.74,2.8-0.9h0.57c-0.33,1.48-0.47,2.47-0.41,2.96c0.11,0.6,0.41,1.64,0.9,3.12
		c0.39,0.93,0.55,1.64,0.5,2.13l-0.41,0.33c-0.5,0.22-1.32,0.36-2.47,0.41c-0.71,0-1.78-0.02-3.2-0.08
		c-1.431-0.05-2.3-0.08-2.63-0.08c-0.38,0-3.801,0.49-10.261,1.48l-5.59,0.82c-0.649,0.11-1.149,0.16-1.47,0.16
		c-0.23-0.6-0.47-1.37-0.74-2.3c-0.279-0.93-0.5-1.75-0.66-2.46c-0.109-0.38-0.199-0.69-0.25-0.91v-0.08
		c0.051-0.32,0.17-0.54,0.33-0.65c0.44-0.11,1.23-0.14,2.38-0.09c1.921,0.17,3.15,0.22,3.7,0.17c1.7-0.06,2.95-0.63,3.78-1.73
		c0.49-0.65,0.57-1.45,0.24-2.38c-0.05-0.27-0.11-0.44-0.16-0.49v-0.08c-0.17-1.97-0.28-3.86-0.33-5.67v-13.8
		c0-5.63-0.11-10.2-0.33-13.71v-3.28c-0.05-0.88-0.11-1.56-0.16-2.06c-0.12-0.93-0.359-1.61-0.74-2.05
		c-0.5-0.6-1.229-0.87-2.22-0.82h-0.66c-0.22,0.05-0.35,0.08-0.41,0.08c-0.979,0.06-2.739,0.22-5.25,0.49
		c-0.72,0.11-1.21,0.17-1.479,0.17c-0.06-0.17-0.08-0.38-0.08-0.66c-0.06-0.6-0.03-2.27,0.08-5.01v-0.57
		c3.72-0.28,8.729-0.5,15.02-0.66c4.28-0.16,7.86-0.22,10.761-0.16c1.54,0,2.739,0.02,3.62,0.08h0.239v0.41
		c0,0.11,0.17,1.39,0.5,3.86C426.9,223.19,426.92,224.2,426.76,224.75z"/>
	<path stroke="#231F20" stroke-miterlimit="10" d="M473.15,235.09c-0.71-7.61-3.96-11.79-9.771-12.56c-0.6-0.05-1.09,0.14-1.47,0.57
		c-3.07,0.61-5.561,2.77-7.48,6.49c-2.02,3.94-3.149,8.87-3.359,14.78c-0.221,5.86,0.52,11.06,2.21,15.61
		c1.97,5.31,4.87,8.37,8.71,9.19c1.91,0.39,3.64-0.01,5.17-1.19c1.53-1.17,2.74-2.61,3.62-4.31c0.6-1.15,1.01-2.41,1.229-3.78
		c0.21-1.42,0.34-3.14,0.37-5.17c0.021-2.02,0.04-3.17,0.04-3.45c0-0.38,0.13-1.9,0.41-4.56c0.27-2.65,0.42-4.54,0.45-5.66
		C473.31,239.93,473.27,237.94,473.15,235.09z M470,240.97c-0.04,1.01-0.16,2.8-0.37,5.37l-0.5,4.77c-0.05,0.71-0.08,1.97-0.08,3.78
		c0,1.8-0.08,3.24-0.25,4.31c-0.16,1.06-0.49,2.06-0.979,2.99c-0.66,1.32-1.45,2.32-2.38,3c-0.94,0.69-1.86,0.92-2.801,0.7
		c-2.62-0.55-4.729-2.9-6.319-7.06c-1.48-4.05-2.12-8.82-1.931-14.29c0.19-5.48,1.16-9.97,2.92-13.47
		c1.801-3.45,4.021-5.04,6.65-4.76c0.22,0,0.46-0.03,0.74-0.08c2.95,1.09,4.68,4.16,5.17,9.19
		C469.98,238.1,470.02,239.95,470,240.97z M473.15,235.09c-0.71-7.61-3.96-11.79-9.771-12.56c-0.6-0.05-1.09,0.14-1.47,0.57
		c-3.07,0.61-5.561,2.77-7.48,6.49c-2.02,3.94-3.149,8.87-3.359,14.78c-0.221,5.86,0.52,11.06,2.21,15.61
		c1.97,5.31,4.87,8.37,8.71,9.19c1.91,0.39,3.64-0.01,5.17-1.19c1.53-1.17,2.74-2.61,3.62-4.31c0.6-1.15,1.01-2.41,1.229-3.78
		c0.21-1.42,0.34-3.14,0.37-5.17c0.021-2.02,0.04-3.17,0.04-3.45c0-0.38,0.13-1.9,0.41-4.56c0.27-2.65,0.42-4.54,0.45-5.66
		C473.31,239.93,473.27,237.94,473.15,235.09z M470,240.97c-0.04,1.01-0.16,2.8-0.37,5.37l-0.5,4.77c-0.05,0.71-0.08,1.97-0.08,3.78
		c0,1.8-0.08,3.24-0.25,4.31c-0.16,1.06-0.49,2.06-0.979,2.99c-0.66,1.32-1.45,2.32-2.38,3c-0.94,0.69-1.86,0.92-2.801,0.7
		c-2.62-0.55-4.729-2.9-6.319-7.06c-1.48-4.05-2.12-8.82-1.931-14.29c0.19-5.48,1.16-9.97,2.92-13.47
		c1.801-3.45,4.021-5.04,6.65-4.76c0.22,0,0.46-0.03,0.74-0.08c2.95,1.09,4.68,4.16,5.17,9.19
		C469.98,238.1,470.02,239.95,470,240.97z M489.05,238.46c-0.03-0.44-0.069-1.04-0.13-1.81c-0.05-0.76-0.16-1.47-0.33-2.13
		c-0.16-0.66-0.38-1.29-0.649-1.89c-1.811-4.27-4.631-7.81-8.46-10.63c-3.83-2.82-8.101-4.81-12.811-5.96
		c-0.33-0.54-0.82-0.82-1.479-0.82c-2.41,0-4.681,0.44-6.82,1.31c-2.13,0.88-4.46,2.11-6.98,3.7c-5.58,3.56-9.58,8.29-11.979,14.21
		c-2.41,5.96-3.07,11.99-1.98,18.06c1.101,6.19,3.891,11.45,8.38,15.77c4.44,4.27,10.181,6.71,17.24,7.31
		c3.021,0.22,5.88-0.18,8.59-1.19c2.71-1.01,5.091-2.49,7.141-4.44c2.05-1.94,3.85-4.12,5.38-6.53c1.53-2.4,2.74-4.95,3.609-7.63
		c0.221-0.6,0.4-1.22,0.54-1.85c0.131-0.63,0.24-1.31,0.32-2.05c0.09-0.74,0.16-1.38,0.21-1.93s0.101-1.28,0.12-2.18
		c0.03-0.9,0.04-1.52,0.04-1.85v-3.77c0-0.17,0.02-0.71,0.05-1.65C489.07,239.58,489.07,238.9,489.05,238.46z M485.72,245.93
		c0,0.28-0.01,0.86-0.04,1.77c-0.029,0.9-0.069,1.56-0.12,1.97c-0.06,0.41-0.109,0.97-0.17,1.68c-0.05,0.72-0.149,1.33-0.29,1.85
		c-0.13,0.52-0.279,1.06-0.449,1.6c-1.75,5.2-4.53,9.52-8.33,12.94c-3.811,3.42-8.12,4.94-12.94,4.55
		c-6.29-0.49-11.41-2.64-15.35-6.44c-3.95-3.81-6.41-8.45-7.4-13.92c-0.979-5.48-0.399-10.87,1.73-16.18
		c2.189-5.31,5.81-9.55,10.84-12.73c3.89-2.46,7.12-3.91,9.689-4.35c0.11,0.05,0.19,0.08,0.25,0.08
		c4.82,0.71,9.221,2.38,13.221,5.01c3.989,2.63,6.87,6.02,8.62,10.18c0.17,0.44,0.3,0.89,0.409,1.36c0.11,0.47,0.19,1.03,0.25,1.68
		c0.051,0.66,0.08,1.18,0.08,1.56V245.93z M463.38,222.53c-0.6-0.05-1.09,0.14-1.47,0.57c-3.07,0.61-5.561,2.77-7.48,6.49
		c-2.02,3.94-3.149,8.87-3.359,14.78c-0.221,5.86,0.52,11.06,2.21,15.61c1.97,5.31,4.87,8.37,8.71,9.19
		c1.91,0.39,3.64-0.01,5.17-1.19c1.53-1.17,2.74-2.61,3.62-4.31c0.6-1.15,1.01-2.41,1.229-3.78c0.21-1.42,0.34-3.14,0.37-5.17
		c0.021-2.02,0.04-3.17,0.04-3.45c0-0.38,0.13-1.9,0.41-4.56c0.27-2.65,0.42-4.54,0.45-5.66c0.029-1.12-0.011-3.11-0.13-5.96
		C472.44,227.48,469.19,223.3,463.38,222.53z M470,240.97c-0.04,1.01-0.16,2.8-0.37,5.37l-0.5,4.77c-0.05,0.71-0.08,1.97-0.08,3.78
		c0,1.8-0.08,3.24-0.25,4.31c-0.16,1.06-0.49,2.06-0.979,2.99c-0.66,1.32-1.45,2.32-2.38,3c-0.94,0.69-1.86,0.92-2.801,0.7
		c-2.62-0.55-4.729-2.9-6.319-7.06c-1.48-4.05-2.12-8.82-1.931-14.29c0.19-5.48,1.16-9.97,2.92-13.47
		c1.801-3.45,4.021-5.04,6.65-4.76c0.22,0,0.46-0.03,0.74-0.08c2.95,1.09,4.68,4.16,5.17,9.19
		C469.98,238.1,470.02,239.95,470,240.97z"/>
	<path fill="#FFFFFF" stroke="#231F20" stroke-miterlimit="10" d="M485.64,236.98c-0.06-0.65-0.14-1.21-0.25-1.68
		c-0.109-0.47-0.239-0.92-0.409-1.36c-1.75-4.16-4.631-7.55-8.62-10.18c-4-2.63-8.4-4.3-13.221-5.01c-0.06,0-0.14-0.03-0.25-0.08
		c-2.569,0.44-5.8,1.89-9.689,4.35c-5.03,3.18-8.65,7.42-10.84,12.73c-2.13,5.31-2.71,10.7-1.73,16.18
		c0.99,5.47,3.45,10.11,7.4,13.92c3.939,3.8,9.06,5.95,15.35,6.44c4.82,0.39,9.13-1.13,12.94-4.55c3.8-3.42,6.58-7.74,8.33-12.94
		c0.17-0.54,0.319-1.08,0.449-1.6c0.141-0.52,0.24-1.13,0.29-1.85c0.061-0.71,0.11-1.27,0.17-1.68c0.051-0.41,0.091-1.07,0.12-1.97
		c0.03-0.91,0.04-1.49,0.04-1.77v-7.39C485.72,238.16,485.69,237.64,485.64,236.98z M473.28,241.05c-0.03,1.12-0.181,3.01-0.45,5.66
		c-0.28,2.66-0.41,4.18-0.41,4.56c0,0.28-0.02,1.43-0.04,3.45c-0.03,2.03-0.16,3.75-0.37,5.17c-0.22,1.37-0.63,2.63-1.229,3.78
		c-0.88,1.7-2.09,3.14-3.62,4.31c-1.53,1.18-3.26,1.58-5.17,1.19c-3.84-0.82-6.74-3.88-8.71-9.19c-1.69-4.55-2.431-9.75-2.21-15.61
		c0.21-5.91,1.34-10.84,3.359-14.78c1.92-3.72,4.41-5.88,7.48-6.49c0.38-0.43,0.87-0.62,1.47-0.57
		c5.811,0.77,9.061,4.95,9.771,12.56C473.27,237.94,473.31,239.93,473.28,241.05z"/>
	<path stroke="#231F20" stroke-miterlimit="10" d="M541.56,229.76c-0.439-2.03-0.989-3.97-1.64-5.83
		c-0.66-1.98-1.229-3.29-1.729-3.95c-1.36-1.97-3.141-3.58-5.33-4.84c-2.19-1.26-4.521-2.11-6.98-2.55
		c-2.47-0.43-4.939-0.57-7.439-0.41c-2.49,0.17-4.801,0.63-6.931,1.4c-2.25,0.82-4.149,2.08-5.71,3.78
		c-1.56,1.69-2.66,3.58-3.29,5.66s-0.859,4.27-0.689,6.57c0.16,2.3,0.79,4.46,1.89,6.49c0.71,1.26,2.29,3.26,4.76,5.99
		c3.391,3.67,5.53,6.05,6.4,7.15c2.3,2.79,3.83,5.17,4.6,7.14c0.87,2.19,0.9,4,0.08,5.42c-0.22,0.33-0.38,0.55-0.49,0.66
		c-0.109,0-0.409-0.03-0.899-0.08c-1.65-0.22-3.07-1.18-4.271-2.88c-0.88-1.31-1.76-3.25-2.63-5.83c-0.22-0.6-0.47-1.94-0.74-4.02
		c-0.279-2.08-0.689-3.67-1.229-4.76c-0.66-1.32-1.48-2.08-2.47-2.3c-0.98-0.28-2.021-0.09-3.11,0.57
		c-0.12,0.06-0.42,0.25-0.91,0.58c-0.33,0.16-0.569,0.3-0.74,0.41c-0.109,0.05-0.47,0.19-1.069,0.41
		c-0.71,0.22-1.28,0.41-1.721,0.57l-1.729,0.82c-0.76,0.44-1.28,0.91-1.56,1.4c-0.381,0.77-0.521,1.72-0.41,2.87
		c0.06,0.22,0.1,0.46,0.13,0.7c0.02,0.25,0.05,0.45,0.08,0.62c0.029,0.16,0.04,0.33,0.04,0.49c0,3.67,0.319,6.89,0.949,9.65
		c0.62,2.76,2.011,5.21,4.141,7.35c2.68,2.74,6.46,4.68,11.33,5.83c4.77,1.15,9.45,1.31,14.05,0.49c5.09-0.87,8.92-2.79,11.49-5.75
		c3.069-3.45,3.97-7.82,2.71-13.14c-0.38-1.75-1-3.36-1.851-4.84c-0.84-1.48-1.88-2.78-3.12-3.9c-1.229-1.12-2.38-2.05-3.439-2.79
		c-1.07-0.74-2.37-1.55-3.91-2.43l-1.64-0.98l-1.721-0.99l-1.399-0.9c-0.71-0.44-1.2-0.74-1.48-0.9l-1.149-0.91
		c-0.54-0.38-0.931-0.71-1.15-0.98l-0.82-0.99c-0.319-0.38-0.59-0.76-0.779-1.15c-0.19-0.38-0.34-0.79-0.45-1.23
		c-0.6-2.08-0.63-3.68-0.08-4.8s1.39-1.82,2.54-2.1c1.16-0.27,2.35-0.07,3.58,0.62c1.229,0.68,2.149,1.82,2.75,3.41
		c0.16,0.44,0.29,0.94,0.37,1.52c0.08,0.57,0.12,1.08,0.12,1.52c0,0.43-0.011,1.06-0.04,1.88c-0.03,0.83-0.04,1.46-0.04,1.89
		c0,0.44,0.16,0.82,0.489,1.15c0.33,0.33,0.711,0.5,1.15,0.5h0.16c0.22,0.11,0.439,0.16,0.66,0.16c0.33,0,1.149,0.1,2.47,0.29
		c1.31,0.19,2.29,0.31,2.95,0.37c1.32,0.16,2.38,0.27,3.21,0.33c1.2,0.05,2.08-0.03,2.62-0.25c0.819-0.33,1.399-1.01,1.729-2.05
		c0.16-0.66,0.24-1.45,0.24-2.39C542.41,233.97,542.11,232.05,541.56,229.76z M539.1,236.9h-1.069c-0.771-0.05-1.78-0.16-3.04-0.33
		c-0.601-0.05-1.48-0.15-2.63-0.29c-1.15-0.13-1.91-0.23-2.301-0.28c0.11-3.01-0.079-5.2-0.569-6.57c-0.88-2.36-2.3-4.08-4.271-5.18
		c-1.97-1.09-3.97-1.39-6-0.9c-2.13,0.49-3.68,1.75-4.64,3.78c-0.95,2.02-1,4.46-0.12,7.31c0.22,0.71,0.51,1.41,0.86,2.09
		c0.359,0.69,0.87,1.36,1.52,2.01l1.48,1.48c0.439,0.44,1.12,0.96,2.05,1.56l1.89,1.23c0.38,0.28,1.141,0.73,2.26,1.36
		c1.12,0.63,1.79,1,2.011,1.11c3.01,1.75,5.41,3.5,7.189,5.25c1.78,1.76,3,3.94,3.65,6.57c0.93,4.27,0.25,7.72-2.05,10.35
		c-2.08,2.35-5.261,3.91-9.53,4.68c-4.16,0.71-8.4,0.55-12.73-0.49c-4.319-1.04-7.6-2.69-9.85-4.93c-1.7-1.7-2.8-3.71-3.33-6.04
		c-0.52-2.32-0.78-5.21-0.78-8.66c0-0.05-0.08-0.79-0.239-2.22c-0.061-0.38-0.061-0.63,0-0.74c0.109-0.11,0.22-0.19,0.33-0.24
		l1.31-0.66c0.38-0.11,0.9-0.3,1.56-0.57c0.66-0.22,1.101-0.39,1.32-0.5c0.33-0.11,0.71-0.3,1.14-0.57
		c0.5-0.33,0.771-0.49,0.83-0.49c0.32-0.22,0.54-0.33,0.65-0.33l0.33,0.65c0.38,0.72,0.68,1.95,0.91,3.7
		c0.319,2.3,0.62,3.89,0.899,4.76c0.98,2.79,1.99,4.96,3.04,6.49c1.801,2.52,3.971,3.97,6.48,4.35c1.21,0.17,2.109,0.11,2.71-0.16
		c0.66-0.28,1.32-0.96,1.979-2.06c1.42-2.29,1.471-5.06,0.16-8.29c-0.93-2.24-2.63-4.9-5.09-7.96c-0.28-0.33-2.439-2.77-6.49-7.31
		c-2.3-2.58-3.72-4.38-4.27-5.42c-1.86-3.29-2.19-6.75-0.99-10.39c1.21-3.64,3.54-6.09,6.99-7.35c2.68-0.88,5.439-1.33,8.29-1.36
		c2.84-0.02,5.62,0.54,8.33,1.69c2.71,1.15,4.81,2.73,6.29,4.76c0.27,0.49,0.68,1.53,1.229,3.12c0.601,1.81,1.12,3.64,1.561,5.5
		c0.489,2.14,0.76,3.86,0.819,5.18C539.18,236.13,539.15,236.57,539.1,236.9z"/>
	<path fill="#FFFFFF" stroke="#231F20" stroke-miterlimit="10" d="M539.18,235.59c0,0.54-0.029,0.98-0.08,1.31h-1.069
		c-0.771-0.05-1.78-0.16-3.04-0.33c-0.601-0.05-1.48-0.15-2.63-0.29c-1.15-0.13-1.91-0.23-2.301-0.28
		c0.11-3.01-0.079-5.2-0.569-6.57c-0.88-2.36-2.3-4.08-4.271-5.18c-1.97-1.09-3.97-1.39-6-0.9c-2.13,0.49-3.68,1.75-4.64,3.78
		c-0.95,2.02-1,4.46-0.12,7.31c0.22,0.71,0.51,1.41,0.86,2.09c0.359,0.69,0.87,1.36,1.52,2.01l1.48,1.48
		c0.439,0.44,1.12,0.96,2.05,1.56l1.89,1.23c0.38,0.28,1.141,0.73,2.26,1.36c1.12,0.63,1.79,1,2.011,1.11
		c3.01,1.75,5.41,3.5,7.189,5.25c1.78,1.76,3,3.94,3.65,6.57c0.93,4.27,0.25,7.72-2.05,10.35c-2.08,2.35-5.261,3.91-9.53,4.68
		c-4.16,0.71-8.4,0.55-12.73-0.49c-4.319-1.04-7.6-2.69-9.85-4.93c-1.7-1.7-2.8-3.71-3.33-6.04c-0.52-2.32-0.78-5.21-0.78-8.66
		c0-0.05-0.08-0.79-0.239-2.22c-0.061-0.38-0.061-0.63,0-0.74c0.109-0.11,0.22-0.19,0.33-0.24l1.31-0.66
		c0.38-0.11,0.9-0.3,1.56-0.57c0.66-0.22,1.101-0.39,1.32-0.5c0.33-0.11,0.71-0.3,1.14-0.57c0.5-0.33,0.771-0.49,0.83-0.49
		c0.32-0.22,0.54-0.33,0.65-0.33l0.33,0.65c0.38,0.72,0.68,1.95,0.91,3.7c0.319,2.3,0.62,3.89,0.899,4.76
		c0.98,2.79,1.99,4.96,3.04,6.49c1.801,2.52,3.971,3.97,6.48,4.35c1.21,0.17,2.109,0.11,2.71-0.16c0.66-0.28,1.32-0.96,1.979-2.06
		c1.42-2.29,1.471-5.06,0.16-8.29c-0.93-2.24-2.63-4.9-5.09-7.96c-0.28-0.33-2.439-2.77-6.49-7.31c-2.3-2.58-3.72-4.38-4.27-5.42
		c-1.86-3.29-2.19-6.75-0.99-10.39c1.21-3.64,3.54-6.09,6.99-7.35c2.68-0.88,5.439-1.33,8.29-1.36c2.84-0.02,5.62,0.54,8.33,1.69
		c2.71,1.15,4.81,2.73,6.29,4.76c0.27,0.49,0.68,1.53,1.229,3.12c0.601,1.81,1.12,3.64,1.561,5.5
		C538.85,232.55,539.12,234.27,539.18,235.59z"/>
</g>
<g>
	<path fill="#FFFFFF" stroke="#231F20" stroke-miterlimit="10" d="M83.511,226.375c-1.291-0.937-5.305,0.222-7.386,0.923
		l-0.612-3.862c-0.636-3.996-19.057-1.07-18.358,2.916c1.554,8.921,2.001,13.88,3.436,21.639c0.734,3.98,18.993,1.081,18.358-2.915
		l-0.617-3.889c2.158-0.016,6.247-0.207,7.311-1.391C87.917,237.274,86.266,228.374,83.511,226.375z M82.652,236.28l-4.31,0.685
		l-0.895-5.631l4.31-0.685L82.652,236.28z"/>
	<path d="M64.607,236.26l-0.812-5.118l0.677-0.108l0.813,5.119L64.607,236.26z"/>
	<path fill="#ED1C24" d="M70.469,237.201c-0.197-0.448-0.442-0.861-0.737-1.235c-0.294-0.376-0.837-0.944-1.63-1.706
		c-0.582-0.56-0.942-0.916-1.08-1.068c-0.228-0.25-0.401-0.483-0.518-0.703c-0.119-0.22-0.197-0.449-0.236-0.688
		c-0.07-0.441,0.02-0.833,0.265-1.179c0.248-0.345,0.587-0.552,1.02-0.621c0.438-0.067,0.842,0.026,1.213,0.285
		c0.278,0.191,0.53,0.505,0.752,0.938c0.061-0.469,0.191-0.84,0.393-1.114c0.279-0.369,0.636-0.589,1.068-0.658
		c0.43-0.067,0.817,0.023,1.162,0.271c0.344,0.249,0.549,0.578,0.615,0.987c0.056,0.356,0.028,0.744-0.086,1.158
		c-0.113,0.415-0.371,0.978-0.771,1.685c-0.521,0.927-0.889,1.676-1.103,2.253C70.629,236.26,70.52,236.725,70.469,237.201z"/>
	<path d="M67.058,244.091l0.18,0.541c-0.172,0.065-0.328,0.109-0.468,0.131c-0.228,0.037-0.409,0.028-0.546-0.023
		c-0.138-0.052-0.241-0.133-0.312-0.243c-0.068-0.108-0.134-0.352-0.193-0.729l-0.339-2.134l-0.461,0.073l-0.079-0.489l0.462-0.072
		l-0.146-0.919l0.565-0.476l0.207,1.295l0.631-0.101l0.078,0.488l-0.632,0.102l0.344,2.168c0.027,0.179,0.058,0.293,0.088,0.34
		c0.03,0.048,0.071,0.083,0.128,0.105c0.055,0.022,0.128,0.025,0.222,0.011C66.855,244.148,66.946,244.126,67.058,244.091z"/>
	<path d="M70.11,242.959l0.664-0.023c-0.044,0.396-0.187,0.721-0.43,0.975c-0.244,0.253-0.581,0.413-1.011,0.482
		c-0.543,0.085-1-0.014-1.371-0.296c-0.371-0.284-0.604-0.729-0.699-1.33c-0.099-0.623-0.016-1.134,0.251-1.528
		c0.267-0.396,0.655-0.635,1.167-0.716c0.497-0.079,0.928,0.026,1.295,0.313c0.368,0.287,0.601,0.737,0.698,1.35
		c0.005,0.037,0.014,0.093,0.023,0.168l-2.765,0.438c0.087,0.404,0.252,0.698,0.494,0.881c0.242,0.185,0.516,0.252,0.828,0.202
		c0.229-0.036,0.416-0.129,0.561-0.275C69.958,243.453,70.057,243.239,70.11,242.959z M67.885,242.271l2.071-0.329
		c-0.077-0.309-0.194-0.528-0.35-0.664c-0.238-0.21-0.517-0.289-0.834-0.239c-0.291,0.046-0.517,0.181-0.683,0.405
		C67.923,241.668,67.854,241.943,67.885,242.271z"/>
	<path d="M74.084,243.082c-0.2,0.235-0.403,0.41-0.605,0.527c-0.202,0.115-0.426,0.191-0.673,0.23
		c-0.408,0.064-0.737,0.016-0.987-0.149c-0.251-0.163-0.4-0.401-0.449-0.71c-0.029-0.182-0.014-0.354,0.045-0.517
		c0.059-0.165,0.148-0.301,0.268-0.414c0.119-0.112,0.259-0.204,0.419-0.277c0.119-0.052,0.299-0.113,0.543-0.183
		c0.499-0.142,0.86-0.273,1.087-0.394c-0.012-0.087-0.02-0.143-0.023-0.166c-0.041-0.256-0.129-0.427-0.265-0.513
		c-0.183-0.116-0.433-0.149-0.749-0.1c-0.295,0.048-0.505,0.134-0.629,0.259c-0.124,0.127-0.2,0.326-0.226,0.601l-0.628,0.014
		c0.014-0.271,0.072-0.499,0.175-0.681c0.102-0.183,0.269-0.336,0.496-0.462c0.227-0.127,0.5-0.215,0.82-0.265
		c0.316-0.051,0.581-0.054,0.79-0.011c0.208,0.043,0.37,0.113,0.48,0.212c0.111,0.099,0.198,0.229,0.264,0.396
		c0.037,0.104,0.078,0.295,0.123,0.574l0.133,0.838c0.093,0.585,0.165,0.951,0.217,1.103c0.05,0.149,0.128,0.29,0.229,0.421
		l-0.656,0.103C74.198,243.4,74.131,243.254,74.084,243.082z M73.81,241.688c-0.213,0.13-0.543,0.263-0.989,0.4
		c-0.253,0.079-0.429,0.149-0.529,0.213c-0.099,0.063-0.171,0.145-0.214,0.243c-0.044,0.1-0.058,0.204-0.04,0.313
		c0.026,0.167,0.112,0.297,0.256,0.389c0.144,0.091,0.339,0.117,0.583,0.079c0.243-0.038,0.449-0.126,0.622-0.262
		c0.171-0.136,0.287-0.304,0.347-0.501c0.044-0.152,0.045-0.367,0-0.646L73.81,241.688z"/>
	
		<ellipse transform="matrix(-0.9876 0.1569 -0.1569 -0.9876 167.186 436.655)" fill="none" stroke="#231F20" stroke-miterlimit="10" cx="66.36" cy="224.926" rx="8.857" ry="3.07"/>
</g>
<path fill="#FFE1CF" stroke="#231F20" stroke-miterlimit="10" d="M94.254,217.444c1.211-0.334,2.281,1.707,2.344,3.246
	c0.031-0.008,0.055-0.01,0.081-0.004c0.434,0.043,0.869,0.143,1.292,0.32l31.261-17.57l7.211,11.942l-31.52,17.725
	c-0.032,0.332-0.092,0.639-0.181,0.938c-1.411,4.648-14.68,12.311-19.689,11.889c-4.671-0.404-10.367-9.102-8.064-13.355
	c1.017-1.875,3.665-4.279,6.8-6.441c-0.95,0.305-1.846,0.543-2.616,0.68c-7.549,1.369-2.916-3.764-1.503-4.852
	C81.18,220.805,88.765,218.971,94.254,217.444z"/>
<rect x="109.059" y="168.5" fill="#FFFFFF" stroke="#231F20" stroke-width="3" stroke-miterlimit="10" width="40" height="100"/>
</svg>
