<?xml version="1.0" encoding="utf-8"?>
<!-- Generator: Adobe Illustrator 19.1.0, SVG Export Plug-In . SVG Version: 6.00 Build 0)  -->
<svg version="1.1" xmlns="http://www.w3.org/2000/svg" xmlns:xlink="http://www.w3.org/1999/xlink" x="0px" y="0px"
	 viewBox="0 0 960 560" style="enable-background:new 0 0 960 560;" xml:space="preserve">
<style type="text/css">
	.st0{display:none;}
	.st1{fill:none;stroke:#FFFFFF;stroke-width:2;stroke-miterlimit:10;}
</style>
<g id="Layer_1" class="st0">
	
		<image style="display:inline;overflow:visible;" width="688" height="520" xlink:href="54206850.jpg"  transform="matrix(0.8327 0 0 0.8327 199 63.5)">
	</image>
</g>
<g id="Layer_2">
	<path class="st1" d="M599.3,181.1c0,0,40.9-3,37.8,1.8c-1.4,2.2-30.2,8.7-30.2,8.7s40.9-0.2,36.2,5.2c-2.2,2.5-32.3,5-32.3,5
		s38.2,5.3,32.7,10c-4,3.4-8.7-5.2-26.4,4.5c-12.2,6.7-36.3,36-38.5,53.5c-0.3,2-2.8-4.1-4.4-2.9c-2.7,1.9,1.6,9.4-0.6,11.9
		c-0.8,1-4.1-0.9-5,0c-1.4,1.4,1.5,6.7,0,8c-1.8,1.6-2.4-1.6-3.5,0.5c-1.3,2.4,2.1,4.5,1,7c-0.5,1.2-4.4-0.5-5.2,0.5
		c-1.5,1.7,2,7.6,0.2,9c-2.1,1.7-9.1-6.3-10.5-2.5c-1.3,3.5,3.3,13.3-4.3,18.5c-5.9,4.2-24.5,0.2-29.3,2.5c-2.6,1.3,3,8.5,5.2,10.5
		c15.3,14.4,63.8,20,77.6,32.1c1.5,1.3-7-1.8-8-0.1c-0.7,1.1,3.1,3.5,2.4,4.5c-1,1.4-5.7-2.5-6.9-1.1c-0.8,1,2.5,3.9,1.6,4.9
		c-4.5,5.2-23.4-10.6-27-4.8c-0.9,1.5,5.2,4.2,4.3,5.8c-2.3,3.7-14.8-7-17.1-3.3c-0.9,1.5,5.2,4,4.3,5.5c-2.8,4.5-17.6-8.3-20.6-4
		c-0.7,1,3.2,3.2,2.5,4.1c-3.9,5.3-20.1-10.4-25.5-6.6c-0.9,0.6,0.5,3.9-0.5,4.5c-2.1,1.2-6.7-5.2-8.9-4c-2,1.1,0.5,7.9-1.5,9.1
		c-1.2,0.7-4.3-2.7-5.5-1.9c-1.7,1.2,1.5,7.4-0.4,8.3c-1.5,0.7-3.7-4.5-5.2-4c-1.9,0.7-0.1,7.3-2.1,7.9c-1.9,0.5-3.9-4.6-5.7-5.2
		c-2.8-0.9-9.2-0.2-11.7,1.3c-2.3,1.4-3.4,8.4-6,9c-1.1,0.3-2.9-2.6-4-2.3c-2,0.4-2.7,7.2-4.7,6.7c-2.2-0.6,1.1-8.1-1-9.1
		c-3.2-1.6-9.5,10.2-12.1,7.8c-1.5-1.5,5.5-5.5,4.3-7.3c-0.9-1.3-5,0.1-6.3,1c-0.9,0.7-0.7,4.6-1.9,4.4c-1.6-0.4-0.8-5.4,0.3-6.8
		c2.2-2.8,10.3-2.6,13.5-4.1c2.9-1.4,8-3.2,9.4-6.1c2.4-5,1-2.4,1.3-21c0.1-4.3-2.7-14.3-6.6-16.2c-6.4-3.1-7.3,4.6-33.3,1.8
		c-3.4-0.4-9.6,5.5-10.7,8.7c-0.5,1.3,4.4,4.6,3.1,5.2c-2.7,1.2-10-7-8.3-9.4c3-4.4,6.1-17,9.5-21.9c4.4-6.5,18.2-17,22.2-22.5
		c1.4-1.9-2.5-5-4.8-5.5c-1.9-0.4-5.4,2.1-7.3,2c-1.8-0.1-7.3-6.5-7.3-6.5s0.5,5.5-4.7,9c-2.1,1.4-6.6-7-6.6-7s-6.5,8-9,8.2
		c-5,0.3-4.3-5.5-4.3-5.5s-2.4,8.3-8,6.5c-6.2-2-4.1-6.7-4.1-6.7s-13.3,11.1-16.5,8.1c-2.6-2.4,6.8-20.3,6.8-20.3
		s-25.9,21.9-29,21.2c-7.6-1.7,23.4-30.9,23.4-30.9s-50.8,28.5-49.5,23.3c2.3-8.7,34.5-28.5,34.5-28.5s-47.8,23.1-40.8,15.2
		c7.2-8.2,41-28.8,41-28.8s-37.7,22.7-50.7,19.7c-5.8-1.3,49-29.5,49-29.5s-43.6,14-55.5,11.3c-4.8-1.1,54.7-20.5,54.7-20.5
		s-49.7,6.2-41.2,1.5c21.8-12.2,93.3-19.3,115-7c15.9,9.1,43.7,45.8,48,55.5c2.8,6.3,28.5-58.7,36-77c11-26.9,95.8-55.9,105-49.5
		c3.5,2.5-21.2,12.3-21.2,12.3s41.2-5.9,39.7-3.3C626.7,175.1,599.3,181.1,599.3,181.1z"/>
</g>
</svg>
