<?xml version="1.0" encoding="utf-8"?>
<!-- Generator: Adobe Illustrator 16.0.0, SVG Export Plug-In . SVG Version: 6.00 Build 0)  -->
<!DOCTYPE svg PUBLIC "-//W3C//DTD SVG 1.1//EN" "http://www.w3.org/Graphics/SVG/1.1/DTD/svg11.dtd">
<svg version="1.1" id="Layer_1" xmlns="http://www.w3.org/2000/svg" xmlns:xlink="http://www.w3.org/1999/xlink" x="0px" y="0px"
	 width="960px" height="560px" viewBox="0 0 960 560" enable-background="new 0 0 960 560" xml:space="preserve">
<g>
	<defs>
		<rect id="SVGID_1_" width="960" height="560"/>
	</defs>
	<clipPath id="SVGID_2_">
		<use xlink:href="#SVGID_1_"  overflow="visible"/>
	</clipPath>
	<path clip-path="url(#SVGID_2_)" d="M599.333,181.103c0,0,40.876-2.973,37.833,1.833c-1.372,2.168-30.166,8.667-30.166,8.667
		s40.93-0.178,36.166,5.167c-2.196,2.465-32.333,5-32.333,5s38.167,5.333,32.72,10c-3.996,3.423-8.688-5.197-26.387,4.5
		c-12.166,6.666-36.333,36-38.5,53.5c-0.252,2.041-2.767-4.07-4.446-2.883c-2.692,1.902,1.574,9.366-0.554,11.883
		c-0.807,0.954-4.115-0.884-5,0c-1.414,1.414,1.487,6.662,0,8c-1.773,1.597-2.369-1.604-3.5,0.5c-1.303,2.424,2.057,4.457,1,7
		c-0.504,1.215-4.369-0.486-5.24,0.5c-1.492,1.685,1.988,7.581,0.24,9c-2.095,1.7-9.106-6.324-10.5-2.5
		c-1.273,3.499,3.25,13.25-4.25,18.5c-5.938,4.157-24.456,0.157-29.25,2.5c-2.628,1.284,3.032,8.5,5.167,10.5
		c15.327,14.351,63.833,20,77.63,32.052c1.516,1.324-7.002-1.772-8.047-0.052c-0.66,1.087,3.118,3.467,2.375,4.5
		c-1.017,1.413-5.745-2.451-6.875-1.125c-0.833,0.978,2.464,3.901,1.625,4.875c-4.475,5.189-23.393-10.578-27-4.75
		c-0.939,1.52,5.201,4.235,4.25,5.75c-2.317,3.689-14.846-6.965-17.125-3.25c-0.908,1.48,5.162,4.02,4.25,5.5
		c-2.755,4.471-17.621-8.31-20.625-4c-0.688,0.988,3.222,3.157,2.5,4.125c-3.933,5.283-20.074-10.361-25.5-6.625
		c-0.932,0.642,0.484,3.938-0.5,4.5c-2.113,1.205-6.729-5.15-8.875-4c-2.037,1.092,0.484,7.937-1.5,9.125
		c-1.246,0.746-4.299-2.694-5.5-1.875c-1.705,1.163,1.498,7.379-0.375,8.25c-1.487,0.691-3.653-4.53-5.208-4
		c-1.935,0.659-0.131,7.329-2.093,7.906c-1.864,0.549-3.892-4.642-5.74-5.24c-2.792-0.904-9.162-0.196-11.667,1.334
		c-2.308,1.409-3.365,8.39-6,9c-1.128,0.261-2.869-2.582-4-2.334c-1.987,0.436-2.696,7.171-4.667,6.667
		c-2.213-0.566,1.061-8.098-1-9.083c-3.245-1.554-9.534,10.246-12.125,7.75c-1.522-1.467,5.482-5.547,4.285-7.29
		c-0.901-1.313-5.031,0.057-6.285,1.04c-0.936,0.733-0.714,4.635-1.875,4.375c-1.647-0.37-0.779-5.412,0.25-6.75
		c2.152-2.798,10.315-2.606,13.5-4.125c2.926-1.396,7.979-3.2,9.375-6.125c2.41-5.047,1-2.375,1.292-20.959
		c0.067-4.283-2.726-14.305-6.583-16.166c-6.437-3.108-7.271,4.625-33.334,1.75c-3.44-0.38-9.615,5.455-10.747,8.725
		c-0.464,1.338,4.382,4.633,3.081,5.191c-2.693,1.154-9.98-6.993-8.334-9.416c3-4.417,6.142-16.979,9.5-21.917
		c4.441-6.529,18.167-17,22.167-22.5c1.402-1.929-2.496-5.034-4.833-5.5c-1.906-0.38-5.392,2.083-7.334,2
		c-1.848-0.079-7.333-6.5-7.333-6.5s0.5,5.5-4.712,8.957c-2.106,1.396-6.621-6.957-6.621-6.957s-6.52,8.001-9,8.167
		c-5,0.333-4.334-5.5-4.334-5.5s-2.377,8.323-8,6.5c-6.166-2-4.125-6.748-4.125-6.748s-13.3,11.072-16.541,8.081
		c-2.635-2.431,6.833-20.333,6.833-20.333s-25.923,21.939-29.019,21.231c-7.571-1.729,23.352-30.898,23.352-30.898
		s-50.833,28.5-49.5,23.333c2.254-8.732,34.5-28.5,34.5-28.5s-47.752,23.051-40.833,15.167c7.167-8.167,41-28.833,41-28.833
		s-37.667,22.657-50.667,19.657c-5.83-1.345,49-29.491,49-29.491s-43.566,13.987-55.5,11.334c-4.767-1.06,54.667-20.5,54.667-20.5
		s-49.688,6.248-41.167,1.5c21.834-12.167,93.334-19.334,115-7c15.943,9.075,43.678,45.838,48,55.5c2.834,6.333,28.5-58.667,36-77
		c10.989-26.86,95.765-55.907,105-49.5c3.535,2.451-21.166,12.333-21.166,12.333s41.176-5.948,39.666-3.333
		C626.666,175.103,599.333,181.103,599.333,181.103"/>
	<path clip-path="url(#SVGID_2_)" fill="none" stroke="#000000" stroke-width="2" stroke-miterlimit="10" d="M599.333,181.103
		c0,0,40.876-2.973,37.833,1.833c-1.372,2.168-30.166,8.667-30.166,8.667s40.93-0.178,36.166,5.167c-2.196,2.465-32.333,5-32.333,5
		s38.167,5.333,32.72,10c-3.996,3.423-8.688-5.197-26.387,4.5c-12.166,6.666-36.333,36-38.5,53.5
		c-0.252,2.041-2.767-4.07-4.446-2.883c-2.692,1.902,1.574,9.366-0.554,11.883c-0.807,0.954-4.115-0.884-5,0
		c-1.414,1.414,1.487,6.662,0,8c-1.773,1.597-2.369-1.604-3.5,0.5c-1.303,2.424,2.057,4.457,1,7c-0.504,1.215-4.369-0.486-5.24,0.5
		c-1.492,1.685,1.988,7.581,0.24,9c-2.095,1.7-9.106-6.324-10.5-2.5c-1.273,3.499,3.25,13.25-4.25,18.5
		c-5.938,4.157-24.456,0.157-29.25,2.5c-2.628,1.284,3.032,8.5,5.167,10.5c15.327,14.351,63.833,20,77.63,32.052
		c1.516,1.324-7.002-1.772-8.047-0.052c-0.66,1.087,3.118,3.467,2.375,4.5c-1.017,1.413-5.745-2.451-6.875-1.125
		c-0.833,0.978,2.464,3.901,1.625,4.875c-4.475,5.189-23.393-10.578-27-4.75c-0.939,1.52,5.201,4.235,4.25,5.75
		c-2.317,3.689-14.846-6.965-17.125-3.25c-0.908,1.48,5.162,4.02,4.25,5.5c-2.755,4.471-17.621-8.31-20.625-4
		c-0.688,0.988,3.222,3.157,2.5,4.125c-3.933,5.283-20.074-10.361-25.5-6.625c-0.932,0.642,0.484,3.938-0.5,4.5
		c-2.113,1.205-6.729-5.15-8.875-4c-2.037,1.092,0.484,7.937-1.5,9.125c-1.246,0.746-4.299-2.694-5.5-1.875
		c-1.705,1.163,1.498,7.379-0.375,8.25c-1.487,0.691-3.653-4.53-5.208-4c-1.935,0.659-0.131,7.329-2.093,7.906
		c-1.864,0.549-3.892-4.642-5.74-5.24c-2.792-0.904-9.162-0.196-11.667,1.334c-2.308,1.409-3.365,8.39-6,9
		c-1.128,0.261-2.869-2.582-4-2.334c-1.987,0.436-2.696,7.171-4.667,6.667c-2.213-0.566,1.061-8.098-1-9.083
		c-3.245-1.554-9.534,10.246-12.125,7.75c-1.522-1.467,5.482-5.547,4.285-7.29c-0.901-1.313-5.031,0.057-6.285,1.04
		c-0.936,0.733-0.714,4.635-1.875,4.375c-1.647-0.37-0.779-5.412,0.25-6.75c2.152-2.798,10.315-2.606,13.5-4.125
		c2.926-1.396,7.979-3.2,9.375-6.125c2.41-5.047,1-2.375,1.292-20.959c0.067-4.283-2.726-14.305-6.583-16.166
		c-6.437-3.108-7.271,4.625-33.334,1.75c-3.44-0.38-9.615,5.455-10.747,8.725c-0.464,1.338,4.382,4.633,3.081,5.191
		c-2.693,1.154-9.98-6.993-8.334-9.416c3-4.417,6.142-16.979,9.5-21.917c4.441-6.529,18.167-17,22.167-22.5
		c1.402-1.929-2.496-5.034-4.833-5.5c-1.906-0.38-5.392,2.083-7.334,2c-1.848-0.079-7.333-6.5-7.333-6.5s0.5,5.5-4.712,8.957
		c-2.106,1.396-6.621-6.957-6.621-6.957s-6.52,8.001-9,8.167c-5,0.333-4.334-5.5-4.334-5.5s-2.377,8.323-8,6.5
		c-6.166-2-4.125-6.748-4.125-6.748s-13.3,11.072-16.541,8.081c-2.635-2.431,6.833-20.333,6.833-20.333
		s-25.923,21.939-29.019,21.231c-7.571-1.729,23.352-30.898,23.352-30.898s-50.833,28.5-49.5,23.333
		c2.254-8.732,34.5-28.5,34.5-28.5s-47.752,23.051-40.833,15.167c7.167-8.167,41-28.833,41-28.833s-37.667,22.657-50.667,19.657
		c-5.83-1.345,49-29.491,49-29.491s-43.566,13.987-55.5,11.334c-4.767-1.06,54.667-20.5,54.667-20.5s-49.688,6.248-41.167,1.5
		c21.834-12.167,93.334-19.334,115-7c15.943,9.075,43.678,45.838,48,55.5c2.834,6.333,28.5-58.667,36-77
		c10.989-26.86,95.765-55.907,105-49.5c3.535,2.451-21.166,12.333-21.166,12.333s41.176-5.948,39.666-3.333
		C626.666,175.103,599.333,181.103,599.333,181.103z"/>
</g>
</svg>
